<svg width="1607" height="581" viewBox="0 0 1607 581" fill="none" xmlns="http://www.w3.org/2000/svg">
<g clip-path="url(#clip0_1139_165)">
<mask id="mask0_1139_165" style="mask-type:luminance" maskUnits="userSpaceOnUse" x="0" y="0" width="1607" height="581">
<path d="M1607 0H0V581H1607V0Z" fill="white"/>
</mask>
<g mask="url(#mask0_1139_165)">
<path fill-rule="evenodd" clip-rule="evenodd" d="M271.391 0C421.23 0 542.786 121.5 542.786 271.353C542.786 334.277 521.206 392.209 485.273 438.233L477.851 432.115C498.069 405.084 512.932 373.86 520.978 340.067C519.663 341.04 518.153 341.999 516.502 342.945C510.355 346.353 504.289 351.633 497.492 353.424C487.286 356.148 496.586 342.945 493.412 339.751C488.171 334.277 478.965 345.038 475.764 348.44C468.504 356.148 460.519 360.67 449.708 360.348C438.529 360.033 427.652 360.509 417.64 365.823C415.5 357.913 426.397 350.036 431.114 345.36C434.899 341.348 437.107 336.833 437.502 331.204C438.093 322.69 438.475 321.718 434.778 309.816C431.517 299.658 415.661 294.345 411.997 297.739C408.34 301.101 417.868 312.211 415.265 314.485C412.675 316.887 404.106 308.528 397.201 311.412C390.712 314.331 378.821 300.94 373.601 295.492C367.474 289.058 360.087 281.779 357.382 273.11C354.9 264.422 355.208 255.875 350.712 247.844C346.284 239.807 340.889 231.926 339.177 222.899C337.621 214.373 338.157 208.58 332.393 201.505C327.401 195.222 321.06 190.39 315.598 184.587C310.263 179.108 308.029 174.6 317.678 176.395C321.04 176.875 327.616 176.395 330.434 178.482C334.682 181.55 339.479 183.941 344.358 185.871C343.257 182.823 341.734 179.766 339.117 176.551C332.756 168.828 304.828 160.125 304.345 150.169C304.063 143.729 296.172 138.417 290.367 132.302C288.649 130.339 284.63 130.339 283.623 130.851C281.087 132.124 280.523 134.055 278.269 136.622C277.101 137.937 274.974 142.101 272.961 144.846C270.941 147.569 267.405 152.402 264.137 154.656C246.361 167.2 222.46 178.795 213.293 198.593C211.549 202.308 191.861 213.256 187.519 217.42C180.56 223.849 173.691 230.288 166.52 236.56C159.161 242.853 151.917 249.28 144.465 255.566C144.465 255.566 135.373 260.383 126.208 268.924C117.294 277.304 108.651 277.471 100.52 280.028C91.3135 282.939 73.9441 291.782 70.0924 290.185C63.1822 287.428 89.3823 264.422 87.2531 258.465C85.228 252.842 90.3841 243.168 84.5389 241.88C74.8734 239.485 79.4767 225.487 75.8645 223.212C72.4517 221.146 68.9758 224.172 65.7502 226.448C57.504 231.916 43.3085 248.958 43.3085 248.958C28.7681 268.273 22.2437 280.833 19.4154 296.934C18.1002 304.321 17.5365 310.775 17.2963 316.095C17.7036 319.135 18.1733 322.201 18.6846 325.24C25.8558 320.604 36.4922 318.182 42.9743 315.451C55.3641 310.446 66.3246 299.49 80.4161 299.49C92.7327 299.336 105.353 299.175 116.855 294.177C126.646 289.85 135.665 282.939 146.604 281.779C145.341 289.219 107.242 318.974 116.177 323.811C117.263 324.435 118.348 324.77 119.496 325.092C123.129 325.569 139.6 322.368 141.605 322.838C142.366 323.006 143.035 323.173 143.713 323.482C144.183 323.643 144.506 323.797 144.767 323.952H144.861C165.393 337.477 148.003 329.923 139.777 333.317C131.072 336.679 108.411 341.677 95.3947 347.789C74.9043 357.108 46.4603 347.789 31.3878 342.945C26.8262 341.516 24.0602 340.724 21.7639 340.234C29.6968 373.545 44.2372 404.125 63.9653 430.833L56.533 436.945C21.1164 391.089 0 333.787 0 271.346C0 121.489 121.5 0 271.384 0M1252.69 362.16H1208.13V261.839H1224.96V347.111H1252.69V362.16ZM670.535 437.428C680.715 441.427 685.882 450.263 685.882 462.225C685.882 481.554 675.253 491.282 655.927 491.282H629.945V390.955H656.216C672.153 390.955 683.077 399.952 683.077 416.335C683.077 426.801 678.5 433.893 670.535 437.428ZM646.768 431.377H654.001C662.416 431.377 666.697 426.52 666.697 417.965C666.697 409.25 661.98 405.265 654.001 405.265H646.768V431.377ZM654.303 476.972C664.778 476.972 669.2 471.96 669.2 461.48C669.2 451.457 664.335 445.842 654.303 445.842H646.768V476.972H654.303ZM670.233 261.839H687.063V362.16H670.233V318.631H646.768V362.16H629.945V261.839H646.768V303.59H670.233V261.839ZM748.059 390.955H803.841V406.003H784.368V491.282H767.552V406.003H748.059V390.955ZM710.851 476.24H741.838V491.282H694.021V390.955H740.503V406.003H710.851V432.866H737.269V447.613H710.851V476.24ZM352.068 389.137C364.817 382.22 377.473 382.542 391.913 393.176C411.91 407.654 508.215 489.571 508.215 489.571L480.388 513.241C480.388 513.241 464.887 499.568 445.917 482.969C436.704 491.168 426.202 498.763 414.553 505.19C402.777 511.63 390.866 516.595 379.043 520.158C382.995 544.941 386.209 565.209 386.209 565.209L351.43 576.326C351.43 576.326 333.259 451.269 331.467 426.479C330.192 408.6 336.701 397.684 349.397 390.613C349.397 390.613 349.921 390.284 350.659 389.942C351.43 389.62 352.007 389.298 352.068 389.137ZM398.731 476.858C407.749 471.859 414.553 466.579 420.284 460.776C399.341 442.427 380.365 425.835 377.956 423.749C372.359 418.911 369.534 417.798 366.964 419.24C364.334 420.844 363.804 423.749 364.864 431.142C365.408 434.027 369.3 458.991 373.634 486.532C381.653 484.727 389.685 481.842 398.731 476.858ZM252.226 402.843H288.133V581.002H252.226V402.843ZM189.868 390.78C202.53 397.852 208.932 408.781 207.603 426.66C205.858 451.289 187.439 576.333 187.439 576.333L152.711 565.222C152.711 565.222 155.967 544.954 159.996 519.99C148.17 516.622 136.25 511.651 124.59 505.203C112.816 498.608 102.378 491.175 93.0776 482.983C74.1219 499.407 58.6628 512.912 58.6628 512.912L30.8241 489.256C30.8241 489.256 127.273 407.66 147.304 393.189C161.802 382.555 174.422 382.233 187.177 389.298C187.164 389.284 187.144 389.264 187.124 389.137C187.191 389.284 187.727 389.62 188.452 389.942C189.21 390.284 189.868 390.767 189.868 390.767V390.78ZM187.191 389.298C187.177 389.298 187.177 389.298 187.177 389.298H187.191ZM174.234 431.169C175.351 423.755 174.808 420.689 172.209 419.247C169.579 417.804 166.802 418.925 161.123 423.755C158.775 425.688 139.777 442.272 118.734 460.628C124.465 466.586 131.271 471.712 140.237 476.703C149.245 481.701 157.293 484.734 165.372 486.539C169.767 458.998 173.806 434.047 174.234 431.169ZM748.32 362.173H700.503V261.846H746.999V276.894H717.333V303.737H743.737V318.504H717.333V347.125H748.32V362.173ZM1087.38 362.173H1039.57V261.846H1086.05V276.894H1056.39V303.737H1082.81V318.504H1056.39V347.125H1087.38V362.173ZM359.556 338.114C364.67 340.872 346.451 341.04 339.855 343.75C328.468 348.44 315.349 349.721 308.733 347.957C299.312 345.347 290.83 346.192 285.12 353.424C276.739 363.864 235.893 356.148 222.614 354.867C220.205 354.713 214.783 352.948 213.763 351.801C212.75 350.674 210.703 349.721 214.595 346.829C218.46 343.918 250.066 340.067 254.93 338.114C265.955 333.639 267.123 329.446 273.135 322.838C277.752 317.84 295.568 312.694 282.751 302.087C278.832 298.853 272.552 304.012 269.357 298.216C266.069 292.258 266.64 285.663 262.178 279.86C258.312 274.875 253.689 271.031 248.932 266.992C239.557 258.954 231.948 248.636 222.614 240.598C215.36 234.338 205.53 234.964 196.759 232.719C183.942 229.484 203.584 223.369 207.435 222.565C220.587 219.685 231.082 210.981 242.738 204.855C249.871 201.024 256.259 191.673 264.828 191.987C268.834 192.31 274.565 192.31 270.471 196.986C266.855 201.024 266.412 206.973 263.332 211.304C258.272 218.85 245.872 220.968 244.805 231.248C242.456 254.278 276.517 271.346 290.911 282.624C299.003 288.897 303.821 296.619 307.009 306.253C310.35 316.411 316.906 322.355 319.979 325.092C331.186 335.404 353.282 325.884 359.556 338.114ZM510.261 271.681C516.784 270.226 522.662 267.307 526.802 261.839C516.18 132.124 405.911 30.1088 271.391 30.1088C135.477 30.1088 24.332 134.055 15.6053 265.71C21.6908 259.76 27.5985 253.956 33.423 248.482C40.7197 241.558 50.4998 232.876 58.997 227.731C69.1737 221.459 69.5918 217.253 76.7731 221.459C77.8065 221.939 79.1217 222.889 81.783 224.339C84.8314 226.134 84.1007 226.76 93.7453 232.876C101.271 237.365 108.63 244.127 117.377 245.912C121.083 246.556 125.102 247.844 129.026 249.28C136.459 243.812 146.312 235.61 153.431 230.288C161.051 224.652 168.315 218.693 175.727 212.577C180.424 208.904 200.799 199.375 202.772 195.859C213.401 176.718 238.021 167.044 256.709 155.606C260.138 153.685 264.627 149.521 268.21 146.286C270.069 144.522 272.35 141.287 273.028 140.181C275.497 136.142 278.034 131.811 280.798 128.263C281.798 127.136 283.107 126.655 286.059 127.292C292.937 128.576 300.318 131.978 303.459 134.534C322.04 149.845 341.224 156.284 363.569 164.967C376.305 169.945 382.016 172.679 391.39 182.667C398.435 190.067 400.24 202.142 407.32 209.228C424.948 226.76 442.414 231.571 461.438 244.127C480.428 256.68 487.453 276.499 510.261 271.681ZM876.385 362.16H831.829V261.839H848.652V347.111H876.385V362.16ZM1316.94 305.213V318.779C1316.94 354.941 1306.32 363.636 1289.33 363.636C1272.37 363.636 1261.75 354.941 1261.75 318.779V305.213C1261.75 269.058 1272.37 260.357 1289.33 260.357C1306.32 260.357 1316.94 269.058 1316.94 305.213ZM1300.1 305.656C1300.1 287.803 1299.07 275.855 1289.33 275.855C1279.6 275.855 1278.57 287.803 1278.57 305.656V318.336C1278.57 336.196 1279.6 348.144 1289.33 348.144C1299.07 348.144 1300.1 336.196 1300.1 318.336V305.656ZM1261.34 433.745C1274.47 443.916 1281.4 450.424 1281.4 465.761C1281.4 483.023 1271.52 492.617 1254.98 492.617C1237.27 492.617 1228.87 481.99 1228.87 466.505V462.809H1244.66C1244.95 471.369 1248.5 477.569 1255.57 477.569C1261.77 477.569 1264.87 473.724 1264.87 466.794C1264.87 457.945 1258.53 453.074 1250.86 447.016L1245.54 442.883C1235.79 435.369 1229.76 427.835 1229.76 415.154C1229.76 398.919 1239.34 389.626 1254.69 389.626C1271.52 389.626 1279.78 399.368 1279.78 413.685V417.066H1263.84C1263.25 409.988 1261.19 404.688 1254.54 404.688C1249.37 404.688 1246.29 408.506 1246.29 414.269C1246.29 420.468 1250.12 425.037 1256.02 429.619L1261.34 433.745ZM1191.01 476.24H1222.01V491.289H1174.19V390.955H1220.67V406.003H1191.01V432.866H1217.43V447.613H1191.01V476.24ZM1134.76 466.344C1140.21 443.48 1145.96 415 1149.65 390.955H1166.03C1160.43 423.42 1152.02 462.373 1144.64 487.458C1143.75 490.255 1143.01 491.289 1139.47 491.289H1129.29C1125.89 491.289 1125.01 490.255 1124.27 487.74C1116.89 462.373 1108.48 423.42 1102.88 390.955H1119.85C1123.39 415 1129.29 443.48 1134.76 466.344ZM1181.16 349.533C1181.16 361.086 1172.56 370.231 1169.92 373.874H1162.91C1163.77 369.224 1167.24 360.073 1167.24 348.668V344.897H1181.16V349.533ZM1369.16 261.839H1385.1V362.16H1369.9L1343.93 297.25V362.16H1328V261.839H1344.68L1369.16 323.059V261.839ZM1607 344.891V349.533C1607 361.086 1598.39 370.231 1595.76 373.874H1588.74C1589.61 369.224 1593.07 360.073 1593.07 348.668V344.897L1607 344.891ZM1565.04 317.014C1571.97 330.446 1579.64 352.13 1582.01 362.16H1565.18C1562.08 351.975 1555.59 333.546 1549.69 321H1542.15V362.16H1525.34V261.839H1550.43C1569.91 261.839 1578.92 273.191 1578.92 291.05C1578.92 303.288 1574.19 312.587 1565.04 317.014ZM1549.84 306.246C1558.4 306.246 1562.24 300.349 1562.24 291.191C1562.24 282.201 1558.4 276.291 1549.84 276.291H1542.15V306.246H1549.84ZM1423.18 307.132H1450.62V326.749C1450.62 355.524 1440.88 363.777 1423.77 363.777C1406.8 363.777 1396.18 355.075 1396.18 319.369V305.066C1396.18 268.924 1407.39 260.209 1424.07 260.209C1442.95 260.209 1449.45 272.903 1449.45 286.475V289.722H1433.8C1432.92 280.423 1430.55 275.694 1423.92 275.694C1415.51 275.694 1413 283.523 1413 305.502V318.497C1413 340.624 1415.51 348.292 1423.92 348.292C1432.63 348.292 1434.54 340.174 1434.54 326.749V322.18H1423.18V307.132ZM1480.9 347.111H1511.88V362.16H1464.09V261.839H1510.57V276.888H1480.9V303.737H1507.32V318.497H1480.9V347.111ZM975.099 261.839H991.929V362.16H975.099V318.645H951.634V362.16H934.818V261.839H951.634V303.59H975.099V261.839ZM888.484 476.24H919.478V491.289H871.668V390.955H918.15V406.003H888.484V432.866H914.902V447.613H888.484V476.24ZM867.977 261.839H923.759V276.888H904.28V362.16H887.45V276.888H867.977V261.839ZM1116.32 362.16H1099.51V261.839H1124.6C1144.06 261.839 1153.07 273.191 1153.07 291.05C1153.07 303.288 1148.34 312.587 1139.2 317.014C1146.14 330.446 1153.81 352.13 1156.18 362.16H1139.35C1136.25 351.975 1129.76 333.546 1123.86 321H1116.32V362.16ZM1116.32 306.246H1124C1132.56 306.246 1136.4 300.349 1136.4 291.191C1136.4 282.201 1132.56 276.291 1124 276.291H1116.32V306.246ZM985.178 420.18C985.178 432.417 980.448 441.709 971.301 446.143C978.233 459.562 985.903 481.252 988.265 491.289H971.449C968.349 481.118 961.853 462.661 955.955 450.129H948.42V491.289H931.597V390.955H956.687C976.166 390.955 985.178 402.32 985.178 420.18ZM956.103 435.369C964.665 435.369 968.496 429.465 968.496 420.32C968.496 411.317 964.665 405.406 956.103 405.406H948.42V435.369H956.103ZM808.33 390.955H864.112V406.003H844.632V491.289H827.81V406.003H808.33V390.955ZM1038.73 476.24H1066.47V491.289H1021.91V390.955H1038.73V476.24ZM1077.53 390.955H1094.35V491.289H1077.53V390.955ZM801.586 264.925C808.981 290.755 817.536 329.997 823.146 362.16H806.022C804.988 355.075 803.801 347.561 802.331 340.033H776.503C775.181 347.561 773.853 355.075 772.819 362.16H756.447C762.05 329.997 770.464 290.601 777.986 264.925C778.57 262.711 779.604 261.839 783.153 261.839H796.58C799.969 261.839 801.002 262.711 801.586 264.925ZM799.681 325.28C796.433 308.454 792.749 291.936 789.488 278.209C786.099 291.936 782.563 308.454 779.315 325.28H799.681ZM1024.16 362.16H1007.35V261.839H1024.16V362.16Z" fill="white"/>
</g>
</g>
<defs>
<clipPath id="clip0_1139_165">
<rect width="1607" height="581" fill="white"/>
</clipPath>
</defs>
</svg>
