<svg width="1271" height="460" viewBox="0 0 1271 460" fill="none" xmlns="http://www.w3.org/2000/svg">
<g clip-path="url(#clip0_1139_57)">
<path fill-rule="evenodd" clip-rule="evenodd" d="M215.172 0.725586C333.57 0.725586 429.617 96.6991 429.617 215.071C429.617 264.772 412.569 310.533 384.171 346.888L378.307 342.057C394.283 320.706 406.028 296.041 412.387 269.347C411.348 270.114 410.152 270.873 408.849 271.623C403.991 274.31 399.199 278.481 393.829 279.899C385.763 282.051 393.112 271.623 390.604 269.1C386.464 264.772 379.189 273.271 376.657 275.959C370.925 282.051 364.615 285.621 356.07 285.365C347.237 285.118 338.643 285.497 330.733 289.693C329.042 283.444 337.653 277.22 341.381 273.527C344.367 270.361 346.115 266.792 346.429 262.349C346.891 255.622 347.196 254.855 344.276 245.449C341.694 237.428 329.166 233.232 326.271 235.911C323.384 238.565 330.914 247.345 328.852 249.142C326.807 251.038 320.035 244.435 314.584 246.71C309.453 249.018 300.059 238.442 295.935 234.138C291.094 229.052 285.254 223.306 283.118 216.456C281.155 209.597 281.402 202.845 277.847 196.498C274.35 190.15 270.086 183.926 268.734 176.795C267.505 170.06 267.925 165.485 263.372 159.895C259.43 154.933 254.415 151.116 250.102 146.532C245.887 142.204 244.122 138.643 251.743 140.061C254.399 140.44 259.595 140.061 261.822 141.71C265.179 144.133 268.973 146.021 272.824 147.546C271.958 145.139 270.754 142.724 268.684 140.185C263.661 134.084 241.59 127.209 241.21 119.345C240.988 114.258 234.752 110.062 230.166 105.231C228.805 103.682 225.63 103.682 224.838 104.085C222.834 105.091 222.389 106.616 220.607 108.644C219.683 109.683 218.001 112.972 216.409 115.14C214.817 117.292 212.021 121.109 209.439 122.889C195.393 132.798 176.506 141.957 169.264 157.595C167.887 160.53 152.331 169.178 148.9 172.467C143.399 177.545 137.971 182.632 132.305 187.586C126.49 192.557 120.766 197.635 114.877 202.598C114.877 202.598 107.693 206.407 100.452 213.15C93.4081 219.77 86.5789 219.902 80.1538 221.921C72.8791 224.221 59.1546 231.204 56.1112 229.942C50.651 227.766 71.3533 209.597 69.6707 204.89C68.0706 200.446 72.1451 192.804 67.5262 191.79C59.8887 189.894 63.526 178.84 60.6722 177.042C57.9752 175.41 55.2286 177.801 52.68 179.598C46.1642 183.918 34.9471 197.38 34.9471 197.38C23.4577 212.639 18.3028 222.556 16.0676 235.276C15.0284 241.113 14.583 246.207 14.3933 250.412C14.715 252.811 15.0861 255.234 15.4903 257.633C21.1566 253.973 29.5612 252.06 34.6831 249.901C44.4734 245.952 53.1337 237.296 64.2683 237.296C74.0008 237.172 83.9725 237.049 93.0617 233.1C100.798 229.679 107.924 224.221 116.568 223.306C115.57 229.184 85.4654 252.687 92.5256 256.504C93.3834 256.998 94.2412 257.262 95.1484 257.518C98.0187 257.897 111.034 255.366 112.617 255.737C113.22 255.869 113.747 256.001 114.284 256.248C114.655 256.372 114.91 256.495 115.117 256.619H115.191C131.414 267.303 117.673 261.335 111.174 264.014C104.295 266.668 86.3892 270.617 76.104 275.448C59.9134 282.809 37.4379 275.448 25.528 271.623C21.9236 270.493 19.738 269.867 17.9234 269.479C24.1918 295.793 35.6811 319.947 51.2696 341.043L45.3971 345.874C17.412 309.651 0.726562 264.385 0.726562 215.063C0.726562 96.6908 96.732 0.725586 215.163 0.725586M990.564 286.799H955.354V207.552H968.65V274.912H990.564V286.799ZM530.563 346.253C538.605 349.411 542.687 356.393 542.687 365.84C542.687 381.108 534.291 388.791 519.016 388.791H498.487V309.544H519.247C531.841 309.544 540.469 316.65 540.469 329.593C540.469 337.861 536.856 343.459 530.563 346.253ZM511.782 341.472H517.498C524.146 341.472 527.528 337.638 527.528 330.879C527.528 323.995 523.8 320.846 517.498 320.846H511.782V341.472ZM517.737 377.489C526.01 377.489 529.507 373.532 529.507 365.255C529.507 357.333 525.664 352.898 517.737 352.898H511.782V377.489H517.737ZM530.324 207.552H543.619V286.799H530.324V252.415H511.782V286.799H498.487V207.552H511.782V240.536H530.324V207.552ZM591.82 309.544H635.897V321.431H620.506V388.791H607.219V321.431H591.82V309.544ZM562.416 376.912H586.904V388.791H549.121V309.544H585.848V321.431H562.416V342.651H583.292V354.299H562.416V376.912ZM278.92 308.109C288.99 302.644 298.995 302.899 310.402 311.3C326.205 322.734 402.3 387.439 402.3 387.439L380.311 406.136C380.311 406.136 368.063 395.336 353.076 382.229C345.794 388.7 337.496 394.702 328.292 399.78C318.988 404.866 309.577 408.79 300.232 411.601C303.358 431.18 305.899 447.189 305.899 447.189L278.417 455.969C278.417 455.969 264.057 357.184 262.638 337.606C261.632 323.484 266.779 314.861 276.808 309.272C276.808 309.272 277.221 309.016 277.806 308.744C278.417 308.489 278.87 308.233 278.92 308.109ZM315.788 377.398C322.914 373.449 328.292 369.278 332.82 364.694C316.274 350.202 301.28 337.094 299.374 335.446C294.954 331.629 292.718 330.747 290.689 331.884C288.611 333.154 288.19 335.446 289.032 341.29C289.46 343.566 292.537 363.285 295.96 385.04C302.294 383.614 308.645 381.338 315.788 377.398ZM200.029 318.933H228.401V459.662H200.029V318.933ZM150.756 309.404C160.76 314.993 165.816 323.624 164.769 337.746C163.391 357.201 148.834 455.977 148.834 455.977L121.393 447.198C121.393 447.198 123.967 431.188 127.15 411.469C117.805 408.807 108.386 404.883 99.1734 399.788C89.8698 394.578 81.6219 388.708 74.273 382.237C59.2948 395.213 47.0797 405.88 47.0797 405.88L25.0826 387.192C25.0826 387.192 101.293 322.742 117.121 311.308C128.577 302.908 138.549 302.652 148.628 308.233C148.619 308.225 148.603 308.208 148.586 308.109C148.636 308.225 149.065 308.489 149.634 308.744C150.236 309.016 150.756 309.395 150.756 309.395V309.404ZM148.636 308.233C148.628 308.233 148.628 308.233 148.628 308.233H148.636ZM138.4 341.307C139.283 335.454 138.854 333.03 136.8 331.893C134.722 330.755 132.528 331.637 128.041 335.454C126.185 336.979 111.174 350.078 94.5463 364.579C99.0744 369.286 104.452 373.334 111.537 377.274C118.655 381.223 125.014 383.622 131.398 385.048C134.87 363.293 138.062 343.582 138.4 341.307ZM592.026 286.808H554.243V207.561H590.979V219.448H567.538V240.651H588.405V252.316H567.538V274.92H592.026V286.808ZM859.934 286.808H822.159V207.561H858.887V219.448H835.446V240.651H856.322V252.316H835.446V274.92H859.934V286.808ZM284.833 267.806C288.875 269.982 274.482 270.114 269.27 272.257C260.271 275.959 249.904 276.973 244.674 275.58C237.235 273.519 230.529 274.187 226.018 279.899C219.395 288.143 187.121 282.051 176.629 281.037C174.724 280.913 170.443 279.52 169.635 278.613C168.835 277.723 167.218 276.973 170.295 274.689C173.347 272.389 198.321 269.347 202.165 267.806C210.875 264.269 211.798 260.955 216.549 255.737C220.195 251.788 234.274 247.724 224.145 239.349C221.052 236.793 216.087 240.865 213.563 236.29C210.965 231.583 211.419 226.373 207.889 221.789C204.837 217.849 201.183 214.815 197.422 211.625C190.016 205.277 184.003 197.124 176.629 190.776C170.897 185.83 163.128 186.325 156.199 184.552C146.071 181.997 161.593 177.166 164.637 176.531C175.029 174.256 183.318 167.381 192.531 162.542C198.165 159.516 203.212 152.13 209.984 152.377C213.151 152.633 217.679 152.633 214.446 156.326C211.584 159.516 211.237 164.215 208.804 167.636C204.804 173.597 195.006 175.27 194.164 183.39C192.309 201.584 219.221 215.063 230.595 223.974C236.987 228.928 240.798 235.029 243.314 242.638C245.953 250.659 251.133 255.358 253.566 257.518C262.416 265.663 279.876 258.144 284.833 267.806ZM403.916 215.326C409.071 214.18 413.715 211.872 416.989 207.552C408.593 105.091 321.462 24.5087 215.172 24.5087C107.776 24.5087 19.9524 106.616 13.0572 210.611C17.8657 205.912 22.534 201.328 27.1363 197C32.9016 191.535 40.6299 184.676 47.3436 180.612C55.3853 175.657 55.7153 172.335 61.3898 175.657C62.2063 176.037 63.2456 176.787 65.3488 177.933C67.7572 179.351 67.1798 179.845 74.8009 184.676C80.7476 188.221 86.5624 193.563 93.4741 194.973C96.4021 195.484 99.5775 196.498 102.679 197.635C108.551 193.316 116.337 186.836 121.962 182.632C127.983 178.18 133.724 173.473 139.58 168.642C143.291 165.74 159.391 158.214 160.95 155.436C169.346 140.317 188.803 132.675 203.567 123.64C206.28 122.123 209.827 118.833 212.656 116.278C214.124 114.885 215.931 112.329 216.467 111.455C218.413 108.265 220.417 104.844 222.603 102.041C223.395 101.151 224.426 100.771 226.76 101.274C232.195 102.288 238.027 104.976 240.509 106.995C255.19 119.089 270.35 124.175 288.009 131.034C298.071 134.966 302.583 137.126 309.989 145.016C315.557 150.86 316.984 160.398 322.576 165.996C336.506 179.845 350.305 183.646 365.341 193.563C380.344 203.48 385.895 219.135 403.916 215.326ZM693.219 286.799H658.009V207.552H671.305V274.912H693.219V286.799ZM1041.33 241.813V252.53C1041.33 281.095 1032.93 287.962 1019.51 287.962C1006.11 287.962 997.715 281.095 997.715 252.53V241.813C997.715 213.257 1006.11 206.382 1019.51 206.382C1032.93 206.382 1041.33 213.257 1041.33 241.813ZM1028.03 242.168C1028.03 228.063 1027.21 218.624 1019.51 218.624C1011.83 218.624 1011.01 228.063 1011.01 242.168V252.184C1011.01 266.289 1011.83 275.728 1019.51 275.728C1027.21 275.728 1028.03 266.289 1028.03 252.184V242.168ZM997.393 343.343C1007.77 351.381 1013.25 356.517 1013.25 368.635C1013.25 382.27 1005.44 389.846 992.371 389.846C978.382 389.846 971.734 381.454 971.734 369.22V366.302H984.213C984.444 373.062 987.249 377.959 992.841 377.959C997.74 377.959 1000.19 374.925 1000.19 369.451C1000.19 362.46 995.175 358.611 989.113 353.829L984.914 350.565C977.211 344.629 972.444 338.677 972.444 328.661C972.444 315.834 980.015 308.497 992.14 308.497C1005.44 308.497 1011.97 316.188 1011.97 327.499V330.17H999.373C998.903 324.58 997.278 320.393 992.024 320.393C987.941 320.393 985.5 323.41 985.5 327.96C985.5 332.857 988.527 336.468 993.187 340.087L997.393 343.343ZM941.827 376.912H966.315V388.799H928.532V309.544H965.26V321.431H941.827V342.651H962.695V354.299H941.827V376.912ZM897.371 369.097C901.685 351.035 906.23 328.537 909.141 309.544H922.082C917.661 335.19 911.013 365.956 905.182 385.774C904.481 387.983 903.895 388.799 901.099 388.799H893.049C890.369 388.799 889.668 387.983 889.09 385.996C883.259 365.956 876.611 335.19 872.182 309.544H885.593C888.389 328.537 893.049 351.035 897.371 369.097ZM934.041 276.824C934.041 285.95 927.245 293.172 925.158 296.049H919.616C920.3 292.38 923.039 285.151 923.039 276.14V273.164H934.041V276.824ZM1082.59 207.552H1095.19V286.799H1083.18L1062.66 235.523V286.799H1050.06V207.552H1063.24L1082.59 255.91V207.552ZM1270.52 273.156V276.824C1270.52 285.95 1263.72 293.172 1261.64 296.049H1256.1C1256.78 292.38 1259.52 285.151 1259.52 276.14V273.164L1270.52 273.156ZM1237.37 251.137C1242.85 261.747 1248.9 278.877 1250.78 286.799H1237.48C1235.03 278.754 1229.9 264.195 1225.24 254.286H1219.29V286.799H1206V207.552H1225.83C1241.22 207.552 1248.34 216.522 1248.34 230.627C1248.34 240.297 1244.6 247.642 1237.37 251.137ZM1225.36 242.63C1232.12 242.63 1235.16 237.972 1235.16 230.742C1235.16 223.636 1232.12 218.97 1225.36 218.97H1219.29V242.63H1225.36ZM1125.28 243.33H1146.96V258.828C1146.96 281.556 1139.27 288.077 1125.74 288.077C1112.33 288.077 1103.94 281.202 1103.94 253V241.698C1103.94 213.15 1112.8 206.266 1125.98 206.266C1140.9 206.266 1146.03 216.291 1146.03 227.016V229.58H1133.67C1132.97 222.235 1131.1 218.5 1125.86 218.5C1119.21 218.5 1117.23 224.683 1117.23 242.044V252.308C1117.23 269.784 1119.21 275.843 1125.86 275.843C1132.74 275.843 1134.25 269.43 1134.25 258.828V255.218H1125.28V243.33ZM1170.88 274.912H1195.37V286.799H1157.6V207.552H1194.33V219.44H1170.88V240.651H1191.76V252.308H1170.88V274.912ZM771.22 207.552H784.515V286.799H771.22V252.423H752.679V286.799H739.391V207.552H752.679V240.536H771.22V207.552ZM702.779 376.912H727.267V388.799H689.491V309.544H726.219V321.431H702.779V342.651H723.654V354.299H702.779V376.912ZM686.572 207.552H730.648V219.44H715.258V286.799H701.962V219.44H686.572V207.552ZM882.805 286.799H869.526V207.552H889.346C904.728 207.552 911.846 216.522 911.846 230.627C911.846 240.297 908.11 247.642 900.885 251.137C906.37 261.747 912.432 278.877 914.296 286.799H901C898.551 278.754 893.421 264.195 888.761 254.286H882.805V286.799ZM882.805 242.63H888.876C895.639 242.63 898.674 237.972 898.674 230.742C898.674 223.636 895.639 218.97 888.876 218.97H882.805V242.63ZM779.179 332.626C779.179 342.296 775.443 349.633 768.218 353.137C773.694 363.738 779.756 380.869 781.62 388.799H768.333C765.883 380.761 760.753 366.187 756.093 356.286H750.138V388.799H736.843V309.544H756.67C772.061 309.544 779.179 318.521 779.179 332.626ZM756.209 344.629C762.972 344.629 765.999 339.963 765.999 332.742C765.999 325.627 762.972 320.961 756.209 320.961H750.138V344.629H756.209ZM639.443 309.544H683.52V321.431H668.129V388.799H654.834V321.431H639.443V309.544ZM821.491 376.912H843.414V388.799H808.203V309.544H821.491V376.912ZM852.156 309.544H865.444V388.799H852.156V309.544ZM634.115 209.993C639.955 230.396 646.718 261.392 651.147 286.799H637.62C636.804 281.202 635.864 275.266 634.701 269.323H614.295C613.248 275.266 612.2 281.202 611.384 286.799H598.443C602.872 261.392 609.52 230.272 615.467 209.993C615.929 208.245 616.745 207.552 619.549 207.552H630.156C632.837 207.552 633.653 208.245 634.115 209.993ZM632.606 257.666C630.041 244.377 627.129 231.327 624.556 220.487C621.875 231.327 619.079 244.377 616.514 257.666H632.606ZM809.985 286.799H796.698V207.552H809.985V286.799Z" fill="#D4003B"/>
</g>
<defs>
<clipPath id="clip0_1139_57">
<rect width="1271" height="460" fill="white"/>
</clipPath>
</defs>
</svg>
