<svg width="300" height="322" viewBox="0 0 300 322" fill="none" xmlns="http://www.w3.org/2000/svg">
<path fill-rule="evenodd" clip-rule="evenodd" d="M150 0C232.817 0 300 67.1315 300 149.93C300 184.695 288.075 216.704 268.211 242.133L264.11 238.754C275.285 223.82 283.5 206.567 287.948 187.895C287.221 188.432 286.385 188.963 285.473 189.487C282.075 191.367 278.723 194.284 274.967 195.276C269.325 196.781 274.466 189.487 272.711 187.722C269.815 184.695 264.727 190.64 262.956 192.52C258.946 196.781 254.532 199.278 248.555 199.099C242.377 198.927 236.366 199.192 230.833 202.127C229.65 197.756 235.673 193.402 238.281 190.819C240.369 188.604 241.592 186.108 241.812 183C242.135 178.295 242.348 177.758 240.306 171.179C238.5 165.568 229.737 162.633 227.712 164.507C225.692 166.364 230.959 172.505 229.517 173.762C228.087 175.088 223.35 170.47 219.537 172.061C215.948 173.675 209.377 166.278 206.492 163.267C203.106 159.71 199.021 155.69 197.527 150.899C196.154 146.101 196.327 141.378 193.84 136.939C191.394 132.498 188.411 128.145 187.466 123.157C186.606 118.446 186.9 115.246 183.715 111.336C180.958 107.865 177.45 105.195 174.433 101.989C171.485 98.9612 170.25 96.4704 175.581 97.4622C177.439 97.7273 181.073 97.4622 182.631 98.6157C184.979 100.311 187.633 101.631 190.327 102.698C189.721 101.014 188.879 99.325 187.431 97.549C183.917 93.2815 168.479 88.4725 168.213 82.9718C168.058 79.4136 163.696 76.4786 160.488 73.0994C159.536 72.0159 157.315 72.0159 156.761 72.2978C155.36 73.0015 155.048 74.0682 153.802 75.4867C153.156 76.2135 151.979 78.514 150.865 80.0305C149.752 81.5358 147.796 84.2057 145.99 85.4508C136.165 92.3819 122.954 98.7885 117.888 109.727C116.925 111.78 106.044 117.829 103.644 120.13C99.7964 123.682 95.9996 127.24 92.0364 130.705C87.9689 134.182 83.9651 137.734 79.8459 141.206C79.8459 141.206 74.8208 143.87 69.7559 148.586C64.8288 153.217 60.0519 153.309 55.5577 154.722C50.4692 156.33 40.8692 161.215 38.7404 160.332C34.9211 158.81 49.4019 146.101 48.225 142.809C47.1058 139.7 49.9558 134.355 46.725 133.646C41.3827 132.319 43.9269 124.587 41.9307 123.33C40.0442 122.188 38.123 123.861 36.3404 125.118C31.7827 128.139 23.9366 137.556 23.9366 137.556C15.9 148.229 12.2942 155.166 10.7307 164.063C10.0038 168.146 9.69229 171.709 9.5596 174.65C9.78462 176.329 10.0442 178.023 10.3269 179.701C14.2904 177.141 20.1692 175.803 23.7519 174.293C30.6 171.531 36.6577 165.476 44.4461 165.476C51.2538 165.389 58.2288 165.303 64.5865 162.541C69.9979 160.148 74.9824 156.33 81.0287 155.69C80.3306 159.802 59.2731 176.242 64.2115 178.912C64.8115 179.257 65.4116 179.442 66.0461 179.621C68.0538 179.886 77.1578 178.116 78.265 178.375C78.6868 178.468 79.0555 178.56 79.4311 178.733C79.6906 178.819 79.869 178.905 80.0137 178.992H80.0655C91.4132 186.465 81.8016 182.291 77.2557 184.165C72.444 186.021 59.9192 188.783 52.725 192.163C41.4 197.312 25.6788 192.163 17.3481 189.487C14.8269 188.697 13.2981 188.259 12.0288 187.987C16.4134 206.394 24.45 223.289 35.3538 238.045L31.2461 241.424C11.6711 216.087 0 184.424 0 149.925C0 67.1257 67.1538 0 149.994 0M194.591 215.008C201.634 211.186 208.633 211.364 216.612 217.24C227.665 225.238 280.892 270.498 280.892 270.498L265.511 283.576C265.511 283.576 256.944 276.022 246.461 266.854C241.368 271.38 235.563 275.578 229.125 279.13C222.617 282.688 216.034 285.433 209.498 287.399C211.684 301.094 213.462 312.292 213.462 312.292L194.239 318.433C194.239 318.433 184.194 249.335 183.202 235.641C182.498 225.763 186.098 219.731 193.113 215.822C193.113 215.822 193.402 215.643 193.811 215.453C194.239 215.274 194.556 215.095 194.591 215.008ZM220.379 263.475C225.363 260.712 229.125 257.795 232.293 254.588C220.719 244.452 210.231 235.283 208.898 234.13C205.806 231.46 204.242 230.843 202.823 231.638C201.369 232.527 201.075 234.13 201.664 238.218C201.963 239.81 204.115 253.603 206.51 268.82C210.94 267.823 215.383 266.231 220.379 263.475ZM139.408 222.58H159.254V321.017H139.408V222.58ZM104.942 215.914C111.94 219.824 115.477 225.861 114.744 235.739C113.78 249.347 103.598 318.439 103.598 318.439L84.4037 312.298C84.4037 312.298 86.2041 301.1 88.4306 287.307C81.8939 285.445 75.3056 282.7 68.8615 279.136C62.3539 275.492 56.5846 271.386 51.4442 266.859C40.9673 275.936 32.4231 283.397 32.4231 283.397L17.0365 270.325C17.0365 270.325 70.3441 225.244 81.4155 217.246C89.4287 211.37 96.404 211.191 103.454 215.095C103.448 215.089 103.437 215.078 103.425 215.008C103.46 215.089 103.76 215.274 104.158 215.453C104.579 215.643 104.942 215.908 104.942 215.908V215.914ZM103.46 215.095C103.454 215.095 103.454 215.095 103.454 215.095H103.46ZM96.2997 238.23C96.9174 234.136 96.6173 232.44 95.1806 231.645C93.727 230.849 92.1924 231.466 89.0538 234.136C87.7556 235.202 77.2557 244.365 65.625 254.508C68.7923 257.8 72.5538 260.632 77.5096 263.388C82.4885 266.15 86.9365 267.828 91.402 268.826C93.8306 253.608 96.0633 239.821 96.2997 238.23ZM198.727 186.817C201.554 188.339 191.486 188.432 187.841 189.931C181.546 192.52 174.294 193.229 170.636 192.255C165.433 190.813 160.742 191.281 157.587 195.276C152.954 201.043 130.379 196.781 123.04 196.072C121.708 195.985 118.713 195.011 118.148 194.377C117.588 193.754 116.457 193.229 118.61 191.632C120.744 190.023 138.213 187.895 140.902 186.817C146.994 184.343 147.64 182.025 150.963 178.375C153.514 175.613 163.362 172.77 156.277 166.912C154.113 165.124 150.64 167.973 148.875 164.772C147.057 161.48 147.375 157.836 144.906 154.629C142.771 151.873 140.215 149.751 137.584 147.52C132.404 143.079 128.198 137.377 123.04 132.936C119.031 129.477 113.596 129.823 108.75 128.583C101.665 126.796 112.523 123.416 114.652 122.972C121.921 121.381 127.719 116.572 134.163 113.187C138.104 111.071 141.634 105.904 146.371 106.077C148.587 106.256 151.754 106.256 149.492 108.839C147.49 111.071 147.248 114.357 145.546 116.75C142.748 120.92 135.894 122.09 135.305 127.77C134.008 140.496 152.832 149.925 160.788 156.158C165.259 159.623 167.925 163.89 169.685 169.213C171.531 174.823 175.154 178.11 176.856 179.621C183.046 185.318 195.259 180.059 198.727 186.817ZM282.023 150.109C285.628 149.307 288.877 147.693 291.167 144.671C285.294 73.0015 224.348 16.6358 150 16.6358C74.8789 16.6358 13.4481 74.0681 8.62503 146.811C11.9885 143.524 15.2539 140.317 18.4731 137.29C22.5058 133.467 27.9116 128.67 32.6077 125.827C38.2327 122.361 38.4635 120.037 42.4327 122.361C43.0038 122.627 43.7308 123.151 45.2019 123.953C46.8865 124.945 46.4827 125.29 51.8135 128.67C55.9731 131.149 60.0404 134.886 64.875 135.872C66.9231 136.229 69.1442 136.939 71.3136 137.734C75.421 134.713 80.8671 130.18 84.8017 127.24C89.0132 124.126 93.029 120.833 97.1251 117.454C99.7209 115.424 110.982 110.16 112.073 108.217C117.946 97.6413 131.556 92.2959 141.883 85.9761C143.78 84.915 146.261 82.6137 148.24 80.8265C149.267 79.8522 150.531 78.0643 150.906 77.4529C152.267 75.2216 153.669 72.8287 155.198 70.868C155.752 70.2455 156.473 69.9797 158.106 70.3315C161.907 71.0408 165.987 72.921 167.723 74.3333C177.992 82.7928 188.596 86.3503 200.948 91.148C207.986 93.8984 211.142 95.4093 216.323 100.928C220.217 105.016 221.216 111.688 225.127 115.603C234.871 125.29 244.523 127.949 255.04 134.886C265.535 141.823 269.417 152.773 282.023 150.109Z" fill="#D4003B"/>
</svg>
