<svg width="6409" height="4808" viewBox="0 0 6409 4808" fill="none" xmlns="http://www.w3.org/2000/svg">
<g clip-path="url(#clip0_783_124)">
<path d="M2526.37 3933.85V2791.48C2526.37 2731.33 2575.31 2682.39 2635.47 2682.39H4900.89C4961.05 2682.39 5010 2731.33 5010 2791.48V3933.85C5010 3994 4961.05 4042.94 4900.89 4042.94H2635.47C2575.31 4042.94 2526.37 3994 2526.37 3933.85ZM4998.94 2791.48C4998.94 2737.34 4955.04 2693.45 4900.9 2693.45H2635.47C2581.32 2693.45 2537.43 2737.34 2537.43 2791.48V3933.85C2537.43 3987.99 2581.32 4031.88 2635.47 4031.88H4176.38C4630.67 4031.88 4998.94 3663.66 4998.94 3209.44L4998.94 2791.48Z" fill="#E6E6E6"/>
<path d="M3324.48 2890.18H2054.82C2017.18 2890.18 1986.56 2920.79 1986.56 2958.43V3424.78C1986.56 3462.42 2017.18 3493.03 2054.82 3493.03H3324.48C3362.13 3493.03 3392.74 3462.42 3392.74 3424.78V2958.43C3392.74 2920.79 3362.13 2890.18 3324.48 2890.18Z" fill="white"/>
<path d="M3324.48 2890.18H2054.82C2017.18 2890.18 1986.56 2920.79 1986.56 2958.43V3424.78C1986.56 3462.42 2017.18 3493.03 2054.82 3493.03H3324.48C3362.13 3493.03 3392.74 3462.42 3392.74 3424.78V2958.43C3392.74 2920.79 3362.13 2890.18 3324.48 2890.18ZM3385.57 3424.78C3385.57 3458.47 3358.18 3485.85 3324.48 3485.85H2054.82C2021.12 3485.85 1993.74 3458.47 1993.74 3424.78V2958.43C1993.74 2924.74 2021.12 2897.36 2054.82 2897.36H3324.48C3358.18 2897.36 3385.57 2924.74 3385.57 2958.43V3424.78Z" fill="#3F3D56"/>
<path d="M2114.27 3102.72H3242.69C3253.38 3102.72 3262.05 3111.39 3262.05 3122.08C3262.05 3132.77 3253.38 3141.44 3242.69 3141.44H2114.27C2103.58 3141.44 2094.91 3132.77 2094.91 3122.08C2094.91 3111.39 2103.58 3102.72 2114.27 3102.72Z" fill="#C22E48"/>
<path d="M2114.27 3229.93H2523.6C2534.29 3229.93 2542.96 3238.6 2542.96 3249.29C2542.96 3259.98 2534.29 3268.64 2523.6 3268.64H2114.27C2103.58 3268.64 2094.91 3259.98 2094.91 3249.29C2094.91 3238.6 2103.58 3229.93 2114.27 3229.93Z" fill="#C22E48"/>
<path d="M4578.28 3043.59H3803.88C3791.68 3043.59 3781.75 3033.66 3781.75 3021.46C3781.75 3009.26 3791.68 2999.34 3803.88 2999.34H4578.28C4590.48 2999.34 4600.41 3009.26 4600.41 3021.46C4600.41 3033.66 4590.48 3043.59 4578.28 3043.59Z" fill="#E6E6E6"/>
<path d="M4725.09 3523.36H3646V3517.83C4001.31 3572.31 4361.36 3567.83 4725.09 3517.83V3523.36Z" fill="#E6E6E6"/>
<path d="M4578.28 3325.65H3803.88C3791.68 3325.65 3781.75 3315.73 3781.75 3303.53C3781.75 3291.33 3791.68 3281.4 3803.88 3281.4H4578.28C4590.48 3281.4 4600.41 3291.33 4600.41 3303.53C4600.41 3315.73 4590.48 3325.65 4578.28 3325.65Z" fill="#E6E6E6"/>
<path d="M4730.62 3595.26H3651.54V3600.79H4730.62V3595.26Z" fill="#E6E6E6"/>
<path d="M4578.28 3180.15H3803.88C3791.68 3180.15 3781.75 3170.23 3781.75 3158.03C3781.75 3145.83 3791.68 3135.91 3803.88 3135.91H4578.28C4590.48 3135.91 4600.41 3145.83 4600.41 3158.03C4600.41 3170.23 4590.48 3180.15 4578.28 3180.15Z" fill="#E6E6E6"/>
<path d="M4730.62 3672.69C4358.15 3647.36 3996.42 3643.32 3651.54 3672.69V3667.16H4730.62V3672.69Z" fill="#E6E6E6"/>
<path d="M3241.39 3582.69L3195.87 3561.13C3214.54 3587.18 3230.63 3627.87 3239.24 3660.25C3253.82 3630.09 3277.33 3593.19 3300.61 3571.14L3252.49 3583.52C3282.14 3438.24 3393.65 3333.94 3521.35 3333.94V3322.88C3387.96 3322.88 3271.66 3431.54 3241.39 3582.69Z" fill="#3F3D56"/>
<path d="M3450.92 3804.05H3163.28C3151.08 3804.05 3141.16 3794.12 3141.16 3781.93C3141.16 3769.73 3151.08 3759.8 3163.28 3759.8H3450.92C3463.12 3759.8 3473.04 3769.73 3473.04 3781.93C3473.04 3794.12 3463.12 3804.05 3450.92 3804.05Z" fill="#C22E48"/>
<path d="M2714.44 3323.95C2757.21 3323.95 2791.88 3289.28 2791.88 3246.52C2791.88 3203.76 2757.21 3169.09 2714.44 3169.09C2671.67 3169.09 2637 3203.76 2637 3246.52C2637 3289.28 2671.67 3323.95 2714.44 3323.95Z" fill="#C22E48"/>
<path d="M2754.72 3201.18C2751.03 3199.02 2745.39 3200.14 2743.36 3204.16C2734.16 3222.39 2724.95 3240.62 2715.75 3258.86C2708.32 3247.22 2698.82 3237.07 2687.8 3228.56C2684.26 3225.82 2678.51 3228.02 2676.45 3231.53C2673.95 3235.82 2675.87 3240.14 2679.43 3242.88C2692.28 3252.81 2702.19 3266.15 2708.86 3280.87C2711.4 3286.47 2720.54 3286.12 2723.19 3280.87C2734.69 3258.09 2746.19 3235.31 2757.69 3212.53C2759.71 3208.53 2758.75 3203.54 2754.72 3201.18Z" fill="white"/>
<path d="M3643.72 3097.19C3686.49 3097.19 3721.16 3062.53 3721.16 3019.76C3721.16 2977 3686.49 2942.33 3643.72 2942.33C3600.95 2942.33 3566.28 2977 3566.28 3019.76C3566.28 3062.53 3600.95 3097.19 3643.72 3097.19Z" fill="#C22E48"/>
<path d="M3684 2974.42C3680.31 2972.27 3674.68 2973.38 3672.65 2977.4C3663.45 2995.63 3654.24 3013.86 3645.04 3032.1C3637.61 3020.47 3628.11 3010.31 3617.09 3001.8C3613.54 2999.06 3607.8 3001.26 3605.74 3004.78C3603.23 3009.06 3605.16 3013.38 3608.72 3016.13C3621.57 3026.05 3631.48 3039.39 3638.15 3054.12C3640.69 3059.71 3649.83 3059.36 3652.48 3054.12C3663.98 3031.34 3675.48 3008.55 3686.98 2985.77C3689 2981.78 3688.04 2976.78 3684 2974.42Z" fill="white"/>
<path d="M4755.55 3224.4C4798.32 3224.4 4832.99 3189.73 4832.99 3146.97C4832.99 3104.21 4798.32 3069.54 4755.55 3069.54C4712.78 3069.54 4678.11 3104.21 4678.11 3146.97C4678.11 3189.73 4712.78 3224.4 4755.55 3224.4Z" fill="#C22E48"/>
<path d="M4795.83 3101.63C4792.14 3099.47 4786.51 3100.59 4784.48 3104.61C4775.27 3122.84 4766.07 3141.07 4756.87 3159.3C4749.44 3147.67 4739.94 3137.52 4728.92 3129C4725.37 3126.26 4719.63 3128.46 4717.57 3131.98C4715.06 3136.27 4716.99 3140.58 4720.55 3143.33C4733.4 3153.26 4743.31 3166.6 4749.98 3181.32C4752.51 3186.92 4761.66 3186.56 4764.31 3181.32C4775.81 3158.54 4787.31 3135.76 4798.81 3112.98C4800.83 3108.98 4799.86 3103.99 4795.83 3101.63Z" fill="white"/>
<path d="M3019.86 3631.35H2833.33C2821.75 3631.35 2812.33 3621.93 2812.33 3610.35C2787.67 3538.28 2788.15 3467.65 2812.33 3398.4C2812.33 3386.82 2821.75 3377.4 2833.33 3377.4H3019.86C3031.44 3377.4 3040.87 3386.82 3040.87 3398.4V3610.35C3040.87 3621.93 3031.44 3631.35 3019.86 3631.35Z" fill="#E6E6E6"/>
<path d="M2873.3 3383.66C2843.08 3383.66 2818.59 3408.15 2818.59 3438.36V3605.86C2818.59 3616.48 2827.2 3625.09 2837.83 3625.09H2940.98C2992.69 3625.09 3034.61 3583.18 3034.61 3531.48V3402.9C3034.61 3392.27 3025.99 3383.66 3015.36 3383.66H2873.3Z" fill="white"/>
<path d="M2970.04 3445.25H2882.71C2880.51 3445.25 2878.71 3443.46 2878.71 3441.26C2878.71 3439.06 2880.51 3437.27 2882.71 3437.27H2970.04C2972.24 3437.27 2974.03 3439.06 2974.03 3441.26C2974.03 3443.46 2972.24 3445.25 2970.04 3445.25Z" fill="#E6E6E6"/>
<path d="M2970.04 3530.38H2882.71C2880.51 3530.38 2878.71 3528.59 2878.71 3526.39C2878.71 3524.19 2880.51 3522.4 2882.71 3522.4H2970.04C2972.24 3522.4 2974.03 3524.19 2974.03 3526.39C2974.03 3528.59 2972.24 3530.38 2970.04 3530.38Z" fill="#E6E6E6"/>
<path d="M3016.9 3487.84H2835.84C2833.64 3487.84 2831.85 3486.05 2831.85 3483.85C2831.85 3481.65 2833.64 3479.86 2835.84 3479.86H3016.9C3019.1 3479.86 3020.89 3481.65 3020.89 3483.85C3020.89 3486.05 3019.1 3487.84 3016.9 3487.84Z" fill="#E6E6E6"/>
<path d="M3019.04 3565H2943.49C2941.29 3565 2939.49 3563.2 2939.49 3561C2939.49 3558.8 2941.29 3557.01 2943.49 3557.01H3019.04C3021.24 3557.01 3023.03 3558.8 3023.03 3561C3023.03 3563.2 3021.24 3565 3019.04 3565Z" fill="#E6E6E6"/>
<path d="M1734.75 3051.48C1739.66 3028.82 1741.1 3045.51 1751.79 3024.96C1744.45 3051.52 1757.99 3042.82 1775.97 3063.64C1902.33 3083.45 1910.29 3040.18 1957.05 3041.51L1957.29 3041.51C1967.58 3041.34 1972.86 3029.02 1966.66 3020.81C1951.34 3000.54 1934.46 2969.26 1950.44 2949.57C1978.75 2914.68 1953.8 2843.14 1941.6 2858.6C1941.6 2798.94 1868.12 2759.82 1839.62 2769.51C1786.95 2787.42 1738.17 2811.58 1732.26 2865.63C1731.34 2874.08 1730.15 2882.47 1728.63 2890.82C1725.55 2907.79 1712.87 2912.29 1717.23 2928.95L1730.88 2942.83C1737.29 2967.28 1735.27 2992.95 1726.49 3016.66C1721.64 3029.76 1720.97 3040.99 1734.75 3051.48Z" fill="#2F2E41"/>
<path d="M1866.29 2971.42C1910.04 2971.42 1945.5 2935.97 1945.5 2892.23C1945.5 2848.5 1910.04 2813.04 1866.29 2813.04C1822.55 2813.04 1787.09 2848.5 1787.09 2892.23C1787.09 2935.97 1822.55 2971.42 1866.29 2971.42Z" fill="#A0616A"/>
<path d="M1742.91 4697.56L1783.7 4698.52L1806.44 4515.3L1746.25 4513.88L1742.91 4697.56Z" fill="#A0616A"/>
<path d="M1882.85 4782.64C1882.85 4789.53 1877.96 4795.11 1871.93 4795.11H1790.97C1790.97 4795.11 1783 4763.09 1750.52 4749.31L1748.28 4795.11H1706.51L1711.57 4721.47C1711.57 4721.47 1700.4 4682.06 1723.6 4661.92C1746.81 4641.78 1728.01 4644.59 1728.01 4644.59L1737.14 4599L1800.25 4606.42L1800.72 4677.98L1831.34 4749L1876.27 4771.19C1880.26 4773.16 1882.85 4777.66 1882.85 4782.64Z" fill="#2F2E41"/>
<path d="M1787.77 4531.33L1820.17 4556.12L1946.46 4421.43L1898.65 4384.84L1787.77 4531.33Z" fill="#A0616A"/>
<path d="M1850.76 4682.49C1846.7 4688.06 1839.46 4689.7 1834.58 4686.14L1769.15 4638.47C1769.15 4638.47 1781.57 4607.9 1763.43 4577.64L1734.64 4613.33L1700.89 4588.74L1748.36 4532.2C1748.36 4532.2 1762.54 4493.77 1793.15 4491.16C1823.77 4488.54 1806.93 4479.74 1806.93 4479.74L1841.15 4448.28L1887.79 4491.44L1846.02 4549.54L1828.94 4624.98L1852.18 4669.36C1854.24 4673.31 1853.69 4678.47 1850.76 4682.49Z" fill="#2F2E41"/>
<path d="M1671.06 3760.72C1673.52 3770.81 1668.99 3817.73 1671.52 3833.87C1677.96 3874.92 1736.8 4098.71 1726.65 4162.51C1689.46 4396.27 1740.9 4546.23 1740.9 4546.23H1823.87L1868.12 3838.31L1911.31 3895.23L1995.82 4147.6L1846.32 4416.35L1924.38 4480.8L2157.44 4110.3L1991.83 3490.51L1981.83 3453.08L1758.06 3446.84L1770.51 3465.5L1742.19 3493.48C1742.19 3493.48 1742.15 3493.55 1742 3493.7C1737.64 3499.79 1640.67 3636.2 1671.06 3760.72Z" fill="#2F2E41"/>
<path d="M1742 3493.7C1767.91 3502.95 1943.04 3493.4 1991.83 3490.51L1981.82 3453.08L1758.06 3446.84L1770.51 3465.5L1742.19 3493.48C1742.19 3493.48 1742.15 3493.55 1742 3493.7Z" fill="#A0616A"/>
<path d="M2031.63 3194.01L2023.57 3236.78L2021.62 3247.03L1978.75 3335.01L1984.38 3463.99C1987.99 3479.09 1835.77 3444.83 1756.69 3480.22L1695.14 3185.88L1757.55 3050.21L1806.4 3023.08L1814.54 2990.52H1918.01C1923.52 3016.32 1917.55 3029.04 1906.84 3036.35L1932.76 3105.47L2031.63 3194.01Z" fill="#C22E48"/>
<path d="M2112.57 2941.79C2111.29 2952.87 2107.61 2962.73 2102.53 2970.17L2097 3076.43L2046.5 3072.32L2057.55 2964.97C2054.31 2956.57 2052.98 2946.13 2054.26 2935.05C2057.19 2909.76 2072.61 2890.76 2088.71 2892.62C2104.81 2894.48 2115.49 2916.5 2112.57 2941.79Z" fill="#A0616A"/>
<path d="M1911.32 3053.47L1917.9 3069.54C1917.9 3069.54 1821.65 3059.9 1823.71 3110.15C1825.46 3153.02 2006.63 3322.92 2015.29 3326.89C2040.93 3338.64 2070.73 3322.82 2075.37 3295.01C2116.16 3189.78 2124.61 3094.9 2105.97 3008.7H2050.66L2032.65 3076.7L2031.63 3128.43L2002.47 3190.64L1906.84 3069.54L1911.32 3053.47Z" fill="#C22E48"/>
<path d="M1590.64 3644.11C1594.2 3633.27 1595.01 3622.53 1593.48 3613.45L1633.88 3512.37L1585.21 3494.56L1549.47 3599.01C1542.86 3605.42 1537.15 3614.55 1533.59 3625.39C1525.47 3650.14 1531.65 3674.4 1547.4 3679.57C1563.16 3684.74 1582.51 3668.86 1590.64 3644.11Z" fill="#A0616A"/>
<path d="M1823.68 3053.52C1823.68 3053.52 1763.92 3030.87 1730 3058.55C1716.01 3069.96 1654.14 3148.63 1644.61 3254.53C1643.87 3262.83 1638.21 3269.97 1635.02 3277.74C1615.38 3325.61 1581.55 3347.66 1567.17 3388.6C1561.55 3404.6 1571.86 3445.98 1568.31 3459.79C1549.71 3532.07 1556.42 3573.28 1556.42 3573.28L1606.64 3590L1633.88 3570.75L1678.62 3407.38L1823.68 3053.52Z" fill="#C22E48"/>
<path d="M2273.11 2928.95H2086.58C2075 2928.95 2065.58 2919.53 2065.58 2907.95C2040.92 2835.88 2041.4 2765.26 2065.58 2696C2065.58 2684.42 2075 2675 2086.58 2675H2273.11C2284.69 2675 2294.12 2684.42 2294.12 2696V2907.95C2294.12 2919.53 2284.69 2928.95 2273.11 2928.95Z" fill="#E6E6E6"/>
<path d="M2126.55 2681.26C2096.33 2681.26 2071.84 2705.75 2071.84 2735.96V2903.45C2071.84 2914.08 2080.45 2922.69 2091.08 2922.69H2194.23C2245.94 2922.69 2287.86 2880.78 2287.86 2829.08V2700.5C2287.86 2689.87 2279.24 2681.26 2268.61 2681.26H2126.55Z" fill="white"/>
<path d="M2223.29 2742.85H2135.96C2133.76 2742.85 2131.96 2741.06 2131.96 2738.86C2131.96 2736.66 2133.76 2734.87 2135.96 2734.87H2223.29C2225.49 2734.87 2227.28 2736.66 2227.28 2738.86C2227.28 2741.06 2225.49 2742.85 2223.29 2742.85Z" fill="#E6E6E6"/>
<path d="M2223.29 2827.98H2135.96C2133.76 2827.98 2131.96 2826.19 2131.96 2823.99C2131.96 2821.79 2133.76 2820 2135.96 2820H2223.29C2225.49 2820 2227.28 2821.79 2227.28 2823.99C2227.28 2826.19 2225.49 2827.98 2223.29 2827.98Z" fill="#E6E6E6"/>
<path d="M2270.15 2785.45H2089.09C2086.89 2785.45 2085.1 2783.65 2085.1 2781.45C2085.1 2779.25 2086.89 2777.46 2089.09 2777.46H2270.15C2272.35 2777.46 2274.14 2779.25 2274.14 2781.45C2274.14 2783.65 2272.35 2785.45 2270.15 2785.45Z" fill="#E6E6E6"/>
<path d="M2272.29 2862.6H2196.74C2194.54 2862.6 2192.74 2860.81 2192.74 2858.6C2192.74 2856.4 2194.54 2854.61 2196.74 2854.61H2272.29C2274.49 2854.61 2276.28 2856.4 2276.28 2858.6C2276.28 2860.81 2274.49 2862.6 2272.29 2862.6Z" fill="#E6E6E6"/>
<path d="M2326.81 4703.88C2338.23 4704.6 2344.55 4690.4 2335.9 4682.13L2335.04 4678.71C2335.16 4678.43 2335.27 4678.16 2335.39 4677.89C2346.94 4650.33 2386.11 4650.52 2397.57 4678.12C2407.74 4702.61 2420.69 4727.14 2423.87 4753.04C2425.3 4764.47 2424.66 4776.11 2422.12 4787.33C2445.95 4735.28 2458.49 4678.45 2458.49 4621.29C2458.49 4606.93 2457.71 4592.57 2456.1 4578.25C2454.78 4566.53 2452.96 4554.89 2450.6 4543.35C2437.84 4480.98 2410.23 4421.57 2370.39 4371.95C2351.24 4361.49 2335.27 4345.13 2325.62 4325.52C2322.16 4318.44 2319.44 4310.83 2318.16 4303.08C2320.34 4303.37 2326.37 4270.18 2324.73 4268.15C2327.77 4263.54 2333.2 4261.25 2336.52 4256.75C2353.02 4234.39 2375.75 4238.29 2387.61 4268.68C2412.96 4281.47 2413.2 4302.68 2397.65 4323.09C2387.76 4336.07 2386.4 4353.63 2377.71 4367.52C2378.61 4368.67 2379.54 4369.77 2380.43 4370.92C2396.81 4391.92 2410.98 4414.5 2422.92 4438.22C2419.54 4411.86 2424.53 4380.1 2433.02 4359.63C2442.69 4336.3 2460.82 4316.66 2476.78 4296.5C2495.95 4272.28 2535.26 4282.85 2538.64 4313.55C2538.67 4313.85 2538.71 4314.14 2538.74 4314.44C2536.37 4315.78 2534.04 4317.2 2531.77 4318.7C2518.83 4327.26 2523.31 4347.31 2538.64 4349.68L2538.99 4349.73C2538.13 4358.27 2536.66 4366.74 2534.52 4375.06C2555 4454.24 2510.79 4483.08 2447.67 4484.37C2446.27 4485.09 2444.92 4485.8 2443.52 4486.48C2449.92 4504.48 2455.03 4522.95 2458.81 4541.67C2462.21 4558.21 2464.57 4574.93 2465.89 4591.72C2467.53 4612.9 2467.39 4634.19 2465.6 4655.34L2465.71 4654.59C2470.25 4631.3 2482.89 4609.54 2501.26 4594.47C2528.62 4572 2567.27 4563.72 2596.78 4545.66C2610.98 4536.97 2629.19 4548.2 2626.71 4564.67L2626.59 4565.46C2622.19 4567.25 2617.91 4569.32 2613.76 4571.64C2611.39 4572.98 2609.07 4574.4 2606.8 4575.9C2593.86 4584.46 2598.33 4604.51 2613.67 4606.88L2614.01 4606.93C2614.26 4606.97 2614.48 4607 2614.73 4607.04C2607.19 4624.94 2596.69 4641.55 2583.54 4655.87C2570.73 4724.99 2515.74 4731.55 2456.92 4711.42H2456.89C2450.46 4739.43 2441.06 4766.79 2428.98 4792.87H2329.3C2328.95 4791.76 2328.63 4790.62 2328.3 4789.51C2337.52 4790.08 2346.81 4789.54 2355.89 4787.87C2348.49 4778.79 2341.09 4769.65 2333.7 4760.57C2333.52 4760.39 2333.38 4760.22 2333.23 4760.04C2329.48 4755.39 2325.7 4750.79 2321.94 4746.14L2321.94 4746.14C2321.71 4731.88 2323.42 4717.67 2326.81 4703.88Z" fill="#F2F2F2"/>
<path d="M1400 4801.42C1400 4805.07 1402.93 4808 1406.58 4808H2614.05C2617.7 4808 2620.63 4805.07 2620.63 4801.42C2620.63 4797.77 2617.7 4794.84 2614.05 4794.84H1406.58C1402.93 4794.84 1400 4797.77 1400 4801.42Z" fill="#CCCCCC"/>
<path d="M1887.76 2798.54H1871.64C1824.47 2798.59 1743.84 2865.3 1775.04 2912.09C1748.4 2983.15 1747.42 3020.12 1758.73 3039.47C1762.9 3046.59 1771.16 3049.83 1779.39 3049.26C1780.49 3049.18 1781.6 3049.15 1782.71 3049.19C1790.68 3049.46 1801.38 3086.93 1808.8 3089.81L1828.5 3083.83L1860.82 3051.54L1844.42 3002.29L1812.69 2977.47L1817.01 2919.99C1795.78 2871.18 1818.88 2868.8 1831.88 2853.05L1833.2 2903.56L1851.82 2885.59C1866.99 2885.98 1884.71 2892.56 1896.5 2878.88C1917.9 2853.84 1940.09 2884.07 1965.38 2890.19L1973.22 2883.98C1973.49 2869.9 1971.4 2856.3 1967.36 2844.13C1965.46 2838.4 1960.59 2833.67 1960.39 2827.98C1959.62 2806.6 1919.21 2785.86 1887.76 2798.54Z" fill="#2F2E41"/>
</g>
<path fill-rule="evenodd" clip-rule="evenodd" d="M1386.53 333C1898.64 333 2314.07 748.377 2314.07 1260.69C2314.07 1475.8 2240.34 1673.86 2117.51 1831.2L2092.14 1810.3C2161.24 1717.89 2212.05 1611.13 2239.55 1495.61C2235.06 1498.92 2229.88 1502.21 2224.25 1505.45C2203.23 1517.08 2182.51 1535.14 2159.28 1541.27C2124.39 1550.59 2156.18 1505.45 2145.33 1494.53C2127.42 1475.8 2095.96 1512.59 2085.01 1524.22C2060.21 1550.59 2032.92 1566.04 1995.96 1564.93C1957.76 1563.86 1920.58 1565.5 1886.37 1583.66C1879.06 1556.62 1916.3 1529.68 1932.43 1513.69C1945.34 1499.99 1952.9 1484.54 1954.26 1465.31C1956.26 1436.2 1957.58 1432.88 1944.95 1392.17C1933.78 1357.46 1879.59 1339.29 1867.07 1350.89C1854.58 1362.38 1887.15 1400.38 1878.24 1408.16C1869.39 1416.36 1840.1 1387.78 1816.52 1397.63C1794.33 1407.62 1753.7 1361.84 1735.86 1343.22C1714.92 1321.21 1689.66 1296.34 1680.42 1266.69C1671.93 1237 1673 1207.78 1657.62 1180.31C1642.5 1152.84 1624.05 1125.9 1618.2 1095.04C1612.89 1065.89 1614.71 1046.08 1595.01 1021.89C1577.96 1000.41 1556.27 983.895 1537.61 964.057C1519.38 945.326 1511.75 929.912 1544.71 936.049C1556.2 937.69 1578.68 936.049 1588.31 943.185C1602.83 953.675 1619.24 961.845 1635.9 968.446C1632.15 958.027 1626.94 947.573 1617.99 936.584C1596.26 910.182 1500.8 880.425 1499.16 846.387C1498.19 824.373 1471.22 806.213 1451.39 785.305C1445.5 778.597 1431.77 778.597 1428.34 780.345C1419.67 784.698 1417.75 791.299 1410.04 800.076C1406.04 804.571 1398.77 818.807 1391.88 828.191C1385 837.503 1372.9 854.023 1361.74 861.729C1300.98 904.616 1219.29 944.255 1187.96 1011.94C1182.01 1024.64 1114.72 1062.07 1099.88 1076.3C1076.09 1098.28 1052.61 1120.3 1028.11 1141.74C1002.96 1163.25 978.197 1185.23 952.725 1206.71C952.725 1206.71 921.653 1223.19 890.33 1252.38C859.864 1281.03 830.325 1281.6 802.534 1290.34C771.069 1300.3 711.706 1330.52 698.542 1325.06C674.926 1315.64 764.469 1237 757.192 1216.63C750.271 1197.4 767.894 1164.32 747.916 1159.94C714.882 1151.73 730.614 1103.88 718.271 1096.11C706.605 1089.04 694.725 1099.39 683.702 1107.17C655.519 1125.86 607.001 1184.13 607.001 1184.13C557.306 1250.17 535.009 1293.09 525.341 1348.14C520.846 1373.4 518.92 1395.45 518.099 1413.65C519.491 1424.03 521.096 1434.52 522.844 1444.91C547.353 1429.06 583.705 1420.79 605.859 1411.44C648.205 1394.35 685.664 1356.88 733.825 1356.88C775.921 1356.35 819.052 1355.81 858.366 1338.72C891.828 1323.92 922.651 1300.3 960.039 1296.34C955.722 1321.78 825.509 1423.5 856.047 1440.02C859.757 1442.16 863.467 1443.3 867.391 1444.41C879.806 1446.05 936.101 1435.09 942.95 1436.7C945.555 1437.27 947.838 1437.84 950.157 1438.91C951.762 1439.45 952.868 1439.98 953.76 1440.52H954.081C1024.25 1486.76 964.819 1460.93 936.707 1472.52C906.955 1484.01 829.505 1501.1 785.018 1522.01C714.989 1553.87 617.775 1522.01 566.26 1505.45C550.671 1500.56 541.217 1497.85 533.368 1496.18C560.481 1610.06 610.176 1714.6 677.601 1805.91L652.201 1826.81C531.156 1670.04 458.986 1474.13 458.986 1260.66C458.986 748.341 874.241 333 1386.49 333M4740.35 1571.14H4588.06V1228.15H4645.56V1519.69H4740.35V1571.14ZM2750.7 1828.46C2785.48 1842.12 2803.14 1872.34 2803.14 1913.23C2803.14 1979.31 2766.82 2012.56 2700.75 2012.56H2611.96V1669.58H2701.75C2756.23 1669.58 2793.54 1700.33 2793.54 1756.35C2793.54 1792.13 2777.92 1816.36 2750.7 1828.46ZM2669.47 1807.76H2694.19C2722.94 1807.76 2737.57 1791.17 2737.57 1761.91C2737.57 1732.12 2721.45 1718.49 2694.19 1718.49H2669.47V1807.76ZM2695.22 1963.64C2731.01 1963.64 2746.13 1946.52 2746.13 1910.7C2746.13 1876.41 2729.51 1857.21 2695.22 1857.21H2669.47V1963.64H2695.22ZM2749.66 1228.15H2807.17V1571.14H2749.66V1422.32H2669.47V1571.14H2611.96V1228.15H2669.47V1370.91H2749.66V1228.15ZM3015.66 1669.58H3206.3V1721.03H3139.73V2012.56H3082.26V1721.03H3015.66V1669.58ZM2888.47 1961.15H2994.39V2012.56H2830.97V1669.58H2989.83V1721.03H2888.47V1812.86H2978.77V1863.28H2888.47V1961.15ZM1662.26 1663.37C1705.82 1639.71 1749.09 1640.82 1798.43 1677.18C1866.78 1726.66 2195.92 2006.71 2195.92 2006.71L2100.81 2087.63C2100.81 2087.63 2047.83 2040.89 1983.01 1984.16C1951.51 2012.17 1915.62 2038.14 1875.81 2060.12C1835.57 2082.14 1794.86 2099.12 1754.44 2111.28C1767.97 2196.02 1778.95 2265.31 1778.95 2265.31L1660.08 2303.31C1660.08 2303.31 1597.98 1875.77 1591.84 1791.03C1587.49 1729.91 1609.75 1692.59 1653.13 1668.4C1653.13 1668.4 1654.91 1667.29 1657.44 1666.12C1660.08 1665.01 1662.05 1663.9 1662.26 1663.37ZM1821.73 1963.25C1852.55 1946.16 1875.81 1928.11 1895.4 1908.27C1823.83 1845.55 1758.98 1788.82 1750.73 1781.68C1731.61 1765.16 1721.94 1761.34 1713.17 1766.27C1704.18 1771.76 1702.36 1781.68 1706 1806.98C1707.85 1816.82 1721.16 1902.17 1735.97 1996.33C1763.36 1990.15 1790.83 1980.31 1821.73 1963.25ZM1321.03 1710.22H1443.75V2319.29H1321.03V1710.22ZM1107.91 1668.97C1151.18 1693.16 1173.05 1730.52 1168.52 1791.64C1162.56 1875.84 1099.6 2303.35 1099.6 2303.35L980.908 2265.35C980.908 2265.35 992.039 2196.06 1005.81 2110.71C965.39 2099.19 924.649 2082.21 884.801 2060.16C844.559 2037.61 808.885 2012.2 777.098 1984.2C712.313 2040.35 659.479 2086.52 659.479 2086.52L564.334 2005.64C564.334 2005.64 893.969 1726.7 962.429 1677.21C1011.98 1640.86 1055.11 1639.75 1098.71 1663.9C1098.67 1663.87 1098.6 1663.8 1098.53 1663.37C1098.74 1663.87 1100.6 1665.01 1103.06 1666.12C1105.66 1667.29 1107.91 1668.93 1107.91 1668.93V1668.97ZM1098.74 1663.9C1098.71 1663.9 1098.71 1663.9 1098.71 1663.9H1098.74ZM1054.47 1807.05C1058.29 1781.72 1056.43 1771.23 1047.55 1766.3C1038.56 1761.38 1029.07 1765.2 1009.66 1781.72C1001.64 1788.32 936.707 1845.01 864.787 1907.77C884.372 1928.14 907.632 1945.66 938.277 1962.72C969.064 1979.81 996.57 1990.19 1024.18 1996.36C1039.2 1902.2 1053.01 1816.9 1054.47 1807.05ZM3016.55 1571.17H2853.12V1228.19H3012.02V1279.64H2910.63V1371.41H3000.89V1421.89H2910.63V1519.72H3016.55V1571.17ZM4175.34 1571.17H4011.94V1228.19H4170.8V1279.64H4069.42V1371.41H4159.71V1421.89H4069.42V1519.72H4175.34V1571.17ZM1687.84 1488.93C1705.32 1498.35 1643.07 1498.92 1620.52 1508.2C1581.6 1524.22 1536.76 1528.61 1514.14 1522.58C1481.96 1513.66 1452.96 1516.55 1433.44 1541.27C1404.8 1576.95 1265.2 1550.59 1219.82 1546.2C1211.58 1545.66 1193.07 1539.63 1189.57 1535.71C1186.11 1531.86 1179.12 1528.61 1192.42 1518.73C1205.62 1508.77 1313.65 1495.61 1330.27 1488.93C1367.94 1473.63 1371.94 1459.28 1392.49 1436.7C1408.26 1419.61 1469.15 1402.02 1425.34 1365.77C1411.97 1354.71 1390.49 1372.33 1379.57 1352.53C1368.34 1332.16 1370.3 1309.61 1355.03 1289.77C1341.83 1272.72 1326.03 1259.59 1309.76 1245.78C1277.72 1218.31 1251.72 1183.02 1219.82 1155.55C1195.03 1134.14 1161.42 1136.28 1131.46 1128.61C1087.65 1117.55 1154.79 1096.64 1167.95 1093.89C1212.9 1084.05 1248.75 1054.29 1288.6 1033.35C1312.97 1020.25 1334.8 988.283 1364.09 989.354C1377.79 990.46 1397.38 990.46 1383.39 1006.44C1371.01 1020.25 1369.51 1040.59 1358.99 1055.4C1341.69 1081.19 1299.31 1088.43 1295.67 1123.58C1287.64 1202.32 1404.05 1260.66 1453.24 1299.23C1480.89 1320.67 1497.37 1347.07 1508.25 1380C1519.67 1414.72 1542.07 1435.06 1552.6 1444.41C1590.88 1479.66 1666.4 1447.12 1687.84 1488.93ZM2202.91 1261.8C2225.21 1256.84 2245.29 1246.85 2259.46 1228.15C2223.14 784.698 1846.27 435.934 1386.53 435.934C922.009 435.934 542.144 791.299 512.32 1241.39C533.119 1221.05 553.31 1201.22 573.217 1182.49C598.154 1158.83 631.581 1129.14 660.62 1111.55C695.403 1090.11 696.83 1075.73 721.374 1090.11C724.906 1091.75 729.401 1095 738.498 1099.96C748.915 1106.1 746.418 1108.24 779.382 1129.14C805.103 1144.49 830.254 1167.61 860.149 1173.71C872.814 1175.92 886.549 1180.31 899.962 1185.23C925.363 1166.54 959.04 1138.49 983.37 1120.3C1009.41 1101.03 1034.24 1080.66 1059.57 1059.75C1075.62 1047.19 1145.26 1014.61 1152 1002.59C1188.32 937.155 1272.48 904.081 1336.34 864.976C1348.07 858.411 1363.41 844.175 1375.65 833.115C1382 827.085 1389.81 816.024 1392.13 812.242C1400.55 798.435 1409.22 783.628 1418.67 771.497C1422.1 767.643 1426.56 766.002 1436.65 768.179C1460.16 772.567 1485.39 784.199 1496.12 792.94C1559.62 845.281 1625.19 867.295 1701.57 896.98C1745.1 913.999 1764.61 923.347 1796.65 957.492C1820.73 982.789 1826.9 1024.07 1851.09 1048.3C1911.34 1108.24 1971.03 1124.68 2036.06 1167.61C2100.95 1210.53 2124.96 1278.28 2202.91 1261.8ZM3454.24 1571.14H3301.95V1228.15H3359.45V1519.69H3454.24V1571.14ZM4959.93 1376.44V1422.82C4959.93 1546.45 4923.61 1576.17 4865.57 1576.17C4807.6 1576.17 4771.28 1546.45 4771.28 1422.82V1376.44C4771.28 1252.84 4807.6 1223.09 4865.57 1223.09C4923.61 1223.09 4959.93 1252.84 4959.93 1376.44ZM4902.39 1377.97C4902.39 1316.92 4898.86 1276.07 4865.57 1276.07C4832.32 1276.07 4828.79 1316.92 4828.79 1377.97V1421.32C4828.79 1482.37 4832.32 1523.22 4865.57 1523.22C4898.86 1523.22 4902.39 1482.37 4902.39 1421.32V1377.97ZM4769.89 1815.86C4814.77 1850.65 4838.46 1872.88 4838.46 1925.33C4838.46 1984.34 4804.67 2017.13 4748.17 2017.13C4687.66 2017.13 4658.91 1980.81 4658.91 1927.86V1915.23H4712.88C4713.88 1944.48 4726.01 1965.68 4750.2 1965.68C4771.39 1965.68 4781.99 1952.55 4781.99 1928.86C4781.99 1898.6 4760.29 1881.94 4734.07 1861.25L4715.92 1847.12C4682.6 1821.43 4661.98 1795.67 4661.98 1752.32C4661.98 1696.8 4694.72 1665.05 4747.17 1665.05C4804.67 1665.05 4832.93 1698.33 4832.93 1747.29V1758.85H4778.45C4776.42 1734.66 4769.39 1716.53 4746.67 1716.53C4729.01 1716.53 4718.45 1729.59 4718.45 1749.28C4718.45 1770.48 4731.54 1786.11 4751.7 1801.77L4769.89 1815.86ZM4529.55 1961.15H4635.47V2012.6H4472.04V1669.58H4630.9V1721.03H4529.55V1812.86H4619.81V1863.28H4529.55V1961.15ZM4337.26 1927.32C4355.92 1849.15 4375.58 1751.78 4388.17 1669.58H4444.14C4425.02 1780.57 4396.27 1913.73 4371.05 1999.5C4368.01 2009.06 4365.48 2012.6 4353.39 2012.6H4318.57C4306.98 2012.6 4303.94 2009.06 4301.45 2000.47C4276.22 1913.73 4247.47 1780.57 4228.31 1669.58H4286.32C4298.41 1751.78 4318.57 1849.15 4337.26 1927.32ZM4495.87 1527.97C4495.87 1567.46 4466.48 1598.72 4457.45 1611.17H4433.48C4436.44 1595.29 4448.28 1564 4448.28 1525V1512.12H4495.87V1527.97ZM5138.41 1228.15H5192.89V1571.14H5140.94L5052.19 1349.21V1571.14H4997.71V1228.15H5054.72L5138.41 1437.45V1228.15ZM5951.26 1512.09V1527.97C5951.26 1567.46 5921.83 1598.72 5912.84 1611.17H5888.87C5891.83 1595.29 5903.67 1564 5903.67 1525V1512.12L5951.26 1512.09ZM5807.88 1416.79C5831.57 1462.71 5857.76 1536.85 5865.86 1571.14H5808.35C5797.75 1536.32 5775.56 1473.31 5755.41 1430.42H5729.65V1571.14H5672.18V1228.15H5757.94C5824.51 1228.15 5855.3 1266.97 5855.3 1328.02C5855.3 1369.87 5839.14 1401.66 5807.88 1416.79ZM5755.91 1379.97C5785.16 1379.97 5798.29 1359.81 5798.29 1328.52C5798.29 1297.76 5785.16 1277.57 5755.91 1277.57H5729.65V1379.97H5755.91ZM5323.03 1383H5416.82V1450.08C5416.82 1548.45 5383.53 1576.67 5325.03 1576.67C5267.02 1576.67 5230.74 1546.91 5230.74 1424.85V1375.94C5230.74 1252.38 5269.05 1222.59 5326.06 1222.59C5390.6 1222.59 5412.79 1265.97 5412.79 1312.39V1323.49H5359.31C5356.31 1291.7 5348.22 1275.54 5325.56 1275.54C5296.81 1275.54 5288.21 1302.3 5288.21 1377.44V1421.86C5288.21 1497.5 5296.81 1523.72 5325.56 1523.72C5355.31 1523.72 5361.84 1495.96 5361.84 1450.08V1434.45H5323.03V1383ZM5520.27 1519.69H5626.19V1571.14H5462.84V1228.15H5621.7V1279.6H5520.27V1371.41H5610.6V1421.86H5520.27V1519.69ZM3791.62 1228.15H3849.13V1571.14H3791.62V1422.36H3711.42V1571.14H3653.95V1228.15H3711.42V1370.91H3791.62V1228.15ZM3495.59 1961.15H3601.51V2012.6H3438.12V1669.58H3596.98V1721.03H3495.59V1812.86H3585.88V1863.28H3495.59V1961.15ZM3425.49 1228.15H3616.13V1279.6H3549.56V1571.14H3492.06V1279.6H3425.49V1228.15ZM4274.26 1571.14H4216.83V1228.15H4302.55C4369.09 1228.15 4399.87 1266.97 4399.87 1328.02C4399.87 1369.87 4383.71 1401.66 4352.46 1416.79C4376.18 1462.71 4402.41 1536.85 4410.47 1571.14H4352.96C4342.36 1536.32 4320.18 1473.31 4300.02 1430.42H4274.26V1571.14ZM4274.26 1379.97H4300.52C4329.77 1379.97 4342.9 1359.81 4342.9 1328.52C4342.9 1297.76 4329.77 1277.57 4300.52 1277.57H4274.26V1379.97ZM3826.04 1769.48C3826.04 1811.33 3809.88 1843.08 3778.63 1858.25C3802.32 1904.13 3828.54 1978.27 3836.6 2012.6H3779.13C3768.54 1977.81 3746.35 1914.73 3726.19 1871.88H3700.43V2012.6H3642.92V1669.58H3728.69C3795.26 1669.58 3826.04 1708.43 3826.04 1769.48ZM3726.69 1821.43C3755.94 1821.43 3769.04 1801.23 3769.04 1769.98C3769.04 1739.19 3755.94 1718.99 3726.69 1718.99H3700.43V1821.43H3726.69ZM3221.64 1669.58H3412.29V1721.03H3345.72V2012.6H3288.21V1721.03H3221.64V1669.58ZM4009.06 1961.15H4103.88V2012.6H3951.58V1669.58H4009.06V1961.15ZM4141.69 1669.58H4199.17V2012.6H4141.69V1669.58ZM3198.6 1238.72C3223.85 1327.02 3253.11 1461.17 3272.26 1571.14H3213.76C3210.23 1546.91 3206.16 1521.22 3201.13 1495.5H3112.87C3108.34 1521.22 3103.81 1546.91 3100.28 1571.14H3044.3C3063.46 1461.17 3092.21 1326.49 3117.93 1238.72C3119.93 1231.15 3123.46 1228.15 3135.59 1228.15H3181.47C3193.07 1228.15 3196.6 1231.15 3198.6 1238.72ZM3192.07 1445.05C3180.97 1387.53 3168.38 1331.05 3157.25 1284.13C3145.65 1331.05 3133.56 1387.53 3122.47 1445.05H3192.07ZM3959.29 1571.14H3901.82V1228.15H3959.29V1571.14Z" fill="#D4003B"/>
<defs>
<clipPath id="clip0_783_124">
<rect width="3610" height="2133" fill="white" transform="translate(1400 2675)"/>
</clipPath>
</defs>
</svg>
