<svg width="1715" height="415" viewBox="0 0 1715 415" fill="none" xmlns="http://www.w3.org/2000/svg">
<g clip-path="url(#clip0_1139_219)">
<mask id="mask0_1139_219" style="mask-type:luminance" maskUnits="userSpaceOnUse" x="0" y="0" width="1715" height="415">
<path d="M1715 0H0V415H1715V0Z" fill="white"/>
</mask>
<g mask="url(#mask0_1139_219)">
<path fill-rule="evenodd" clip-rule="evenodd" d="M207.571 415.004C322.244 415.004 415.188 322.091 415.188 207.482C415.188 92.8903 322.244 0 207.571 0C92.9325 0 0 92.8903 0 207.482C0 322.103 92.9439 415.004 207.571 415.004Z" fill="#CC222D"/>
<path fill-rule="evenodd" clip-rule="evenodd" d="M34.6952 207.334C34.6952 111.931 112.086 34.5934 207.525 34.5934C302.975 34.5934 380.332 111.931 380.332 207.334C380.332 302.73 302.975 380.051 207.525 380.051C112.086 380.051 34.6952 302.741 34.6952 207.334ZM207.513 388.388C307.567 388.388 388.672 307.342 388.672 207.391C388.672 107.391 307.567 26.3477 207.513 26.3477C107.505 26.3477 26.3887 107.391 26.3887 207.391C26.4001 307.342 107.505 388.388 207.513 388.388Z" fill="white"/>
<path fill-rule="evenodd" clip-rule="evenodd" d="M203.378 115.884H190.127C188.942 115.893 187.814 115.432 186.971 114.602C186.127 113.771 185.649 112.639 185.649 111.457C185.649 108.974 187.643 106.946 190.127 106.946H203.378V66.874H171.679L179.405 123.111H135.024C135.024 123.111 151.762 232.037 106.766 322.889C133.565 322.98 165.914 322.889 165.914 322.889H165.8C196.963 239.235 193.465 229.235 193.465 229.235H203.378V191.856H193.351C190.867 191.856 188.839 189.84 188.839 187.346C188.839 184.863 190.867 182.847 193.351 182.847H203.378V115.884ZM212.346 115.884H225.244C226.429 115.893 227.569 115.433 228.412 114.603C229.255 113.772 229.734 112.64 229.734 111.457C229.745 108.971 227.728 106.951 225.244 106.946H212.346V66.874H243.737L236.149 123.111H280.575C280.575 123.111 263.689 232.037 308.697 322.889C281.908 322.98 249.469 322.889 249.469 322.889C218.305 239.235 221.917 229.235 221.917 229.235H212.346V191.856H222.145C224.618 191.856 226.634 189.84 226.634 187.368C226.634 184.886 224.629 182.87 222.145 182.847H212.346V115.884Z" fill="white"/>
<path fill-rule="evenodd" clip-rule="evenodd" d="M175.701 237.459C175.45 237.72 175.142 237.914 174.88 238.108L178.834 252.868C179.427 255.112 178.093 257.412 175.849 258.016C174.778 258.312 173.627 258.164 172.658 257.617C171.69 257.059 170.995 256.137 170.71 255.066L167.098 241.661C166.38 241.775 165.651 241.923 164.921 241.878C164.295 241.878 163.714 241.764 163.087 241.695L159.498 255.055C158.86 257.253 156.569 258.54 154.359 257.936C152.148 257.344 150.815 255.077 151.374 252.857L155.305 238.21C155.008 237.971 154.678 237.789 154.393 237.493C151.579 234.645 150.006 230.796 150.018 226.787V166.196C150.086 157.848 156.911 151.14 165.263 151.197C173.524 151.265 180.178 157.996 180.144 166.253V226.901C180.144 230.876 178.549 234.68 175.701 237.459Z" fill="#CC222D"/>
<path fill-rule="evenodd" clip-rule="evenodd" d="M158.461 191.537V226.798C158.439 228.586 159.122 230.306 160.376 231.582C161.583 232.789 163.236 233.472 164.945 233.461C166.745 233.472 168.477 232.755 169.742 231.479C170.984 230.272 171.69 228.62 171.713 226.901V191.537H158.461ZM171.725 183.132V166.253C171.725 162.529 168.876 159.59 165.23 159.59C161.538 159.545 158.507 162.495 158.461 166.196V183.132H171.725Z" fill="white"/>
<path fill-rule="evenodd" clip-rule="evenodd" d="M268.804 187.311L250.653 151.925L232.49 187.311L246.437 214.497V253.892C246.437 256.216 248.328 258.072 250.676 258.072C251.781 258.072 252.852 257.639 253.638 256.854C254.436 256.068 254.869 254.997 254.869 253.892V214.383L268.804 187.311ZM250.653 204.566L241.788 187.3L250.653 169.999L259.518 187.3L250.653 204.566Z" fill="#CC222D"/>
<path fill-rule="evenodd" clip-rule="evenodd" d="M1706.83 256.342V247.094H541.175V256.342H1706.83ZM539.785 299.666H556.25V329.506H596.142V299.666H612.561V372.967H596.142V341.533H556.25V372.967H539.785V299.666ZM659.905 299.666H680.631L718.096 372.967H698.588L690.157 356.51H647.952L640.215 372.967H622.508L659.905 299.666ZM684.266 344.529L669.031 312.661L653.831 344.529H684.266ZM727.838 299.666H751.002L792.535 355.918H792.729V299.666H807.541V372.967H785.391L742.867 315.714H742.65V372.967H727.838V299.666ZM888.886 323.344C888.362 313.049 877.81 309.119 869.686 309.119C854.281 309.119 839.97 316.955 839.97 336.021C839.97 349.665 847.273 362.922 869.8 362.922C876.204 362.922 881.764 362.068 889.888 359.562V345.542H866.427V334.176H905.932V368.4C895.472 372.865 879.428 374.903 868.763 374.903C841.451 374.903 822.867 362.74 822.867 336.112C822.867 314.21 838.42 297.742 867.248 297.742C889.398 297.742 905.932 306.192 905.932 323.344H888.886ZM973.819 350.029C974.731 358.754 981.112 364.05 994.113 364.05C1007.73 364.05 1012.7 358.161 1012.7 352.865C1012.7 347.569 1008.94 345.166 1000.8 344.016L985.704 342.011C966.276 339.392 959.884 331.146 959.884 321.522C959.884 304.564 975.699 297.73 992.814 297.73C1014.25 297.73 1025.8 306.807 1026.3 321.613H1009.87C1009.26 312.081 1002.67 308.607 991.264 308.607C984.462 308.607 976.987 311.955 976.987 318.686C976.987 324.358 981.112 326.67 987.629 327.593L1008.63 330.543C1026.12 332.968 1029.75 343.23 1029.75 350.815C1029.75 365.963 1016.75 374.881 991.902 374.881C970.663 374.881 957.377 365.735 957.377 350.018H973.819V350.029ZM1101.84 311.636H1060.21V328.914H1100.32V340.884H1060.21V360.963H1103.67V372.967H1043.75V299.666H1101.84V311.636ZM1119.39 299.666H1142.54L1184.1 355.918H1184.27V299.666H1199.12V372.967H1176.95L1134.41 315.714H1134.22V372.967H1119.39V299.666ZM1280.45 323.344C1279.95 313.049 1269.38 309.119 1261.25 309.119C1245.8 309.119 1231.47 316.955 1231.47 336.021C1231.47 349.665 1238.8 362.922 1261.32 362.922C1267.75 362.922 1273.37 362.068 1281.44 359.562V345.542H1257.98V334.176H1297.52V368.4C1287 372.865 1270.98 374.903 1260.33 374.903C1232.97 374.903 1214.42 362.74 1214.42 336.112C1214.42 314.21 1229.96 297.742 1258.84 297.742C1280.94 297.742 1297.52 306.192 1297.52 323.344H1280.45ZM1353.71 299.666H1396.84C1411.29 299.666 1424.05 303.242 1424.05 318.345C1424.05 327.604 1415.54 333.413 1405.98 334.005V334.7C1415.54 335.542 1427.84 339.392 1427.84 353.275C1427.84 361.305 1422.13 372.967 1398.49 372.967H1353.71V299.666ZM1370.13 361.567H1392.88C1402.94 361.567 1410.16 358.868 1410.16 351.351C1410.16 342.923 1401.32 340.884 1394.01 340.884H1370.12V361.567H1370.13ZM1370.13 329.506H1393.6C1401.62 329.506 1406.42 327.08 1406.42 320.6C1406.42 312.661 1398.99 311.033 1390.43 311.033H1370.13V329.506ZM1471.08 299.666H1491.78L1529.27 372.967H1509.76L1501.33 356.51H1459.07L1451.36 372.967H1433.71L1471.08 299.666ZM1495.45 344.529L1480.2 312.661L1464.95 344.529H1495.45ZM1539.49 299.666H1562.69L1604.21 355.918H1604.42V299.666H1619.24V372.967H1597.1L1554.57 315.714H1554.36V372.967H1539.49V299.666ZM1655.29 299.666V331.659L1686.24 299.666H1706.47L1674.16 332.672L1710.33 372.967H1688.59L1655.29 334.392V372.967H1638.83V299.666H1655.29ZM981.112 51.4636C977.033 63.1785 978.4 77.8786 978.252 90.171C980.326 92.54 984.257 91.3554 987.231 91.3554C994.272 90.5969 1004.05 86.5594 1009.29 93.2984C1010.48 96.1514 1011.39 99.4589 1011.1 102.615C1007.34 103.942 1002.98 103.828 999.377 104.387C992.187 106.814 982.456 106.056 978.856 113.988C977.819 117.154 977.762 120.548 978.685 123.749L980.941 125.696C990.683 123.749 999.252 127.165 1008.09 128.828C1011.53 132.131 1013.49 137.074 1013.49 141.732L1011.97 142.769C1001.48 141.732 990.956 143.053 980.485 142.598C975.996 144.409 975.996 149.534 974.332 153.099C973.888 157.597 970.891 164.955 976.144 167.779C983.801 169.886 991.868 166.447 999.981 168.258C1011.22 170.513 1026.23 168.679 1031.3 180.991C1031.5 184.909 1030.44 188.348 1028.34 191.173C1023.98 191.173 1020.22 188.496 1015.74 188.223C1002.24 187.141 975.631 184.066 973.751 184.294C971.882 184.51 956.34 186.685 949.618 192.528C945.117 195.546 938.656 194.043 934.156 196.742C926.806 197.642 918.841 199.122 911.674 197.186C906.706 197.471 902.798 201.081 898.32 201.526C896.372 195.82 895.745 189.681 894.571 183.713C893.831 181.276 895.472 179.635 896.816 177.859C900.257 176.503 902.661 180.672 905.966 180.991C915.423 182.198 924.265 177.551 934.156 177.266L955.919 170.524C960.522 166.173 961.16 158.987 959.804 152.689C959.212 152.096 958.596 150.741 957.548 151.197C952.478 152.529 946.917 152.973 941.516 153.429C937.893 154.636 934.771 157.005 931.011 157.609C926.373 152.381 926.681 144.58 926.533 138.133C931.011 136.949 935.238 139.488 940.195 138.577C947.213 137.245 953.788 135.161 960.271 132.279C964.727 128.544 962.972 121.676 961.741 117.018C958.323 115.637 954.244 116.71 950.803 117.018C944.798 117.61 939.101 120.605 932.971 119.557C929.062 115.808 928.743 110.7 925.621 106.672C921.85 106.956 921.417 111.325 918.568 112.964C910.603 120.457 898.913 120.742 888.874 122.872C888.122 122.245 886.915 122.416 886.641 121.232C888.122 116.835 893.25 114.007 894.72 109.486C898.753 105.459 903.721 101.867 906.422 97.0512C914.523 88.6733 921.85 79.5277 924.858 68.9221C925.45 67.2536 924.413 64.6854 926.669 64.0886C932.059 64.4006 934.771 71.2911 939.534 73.3673C941.345 74.4379 943.442 74.8923 944.673 76.9777V79.2339C937.893 84.4843 926.795 89.2518 928.743 99.6103C934.144 102.88 941.505 103.193 947.669 103.051C951.703 100.226 957.092 100.501 961.616 98.2459C964.282 96.2938 964.157 93.1755 964.727 90.171C962.961 78.1531 967.735 63.6524 959.793 53.7198C961.422 50.5821 965.638 50.7529 968.943 49.7108C973.158 52.0798 978.867 45.9387 981.112 51.4636ZM1606.75 58.2402C1609.32 59.9087 1613.04 61.8129 1613.95 65.2923C1615.91 70.3719 1609.47 67.8322 1607.65 69.7843C1598.5 75.3377 1596.13 88.5127 1584.86 91.0616C1580.54 92.7301 1575.15 92.7301 1570.35 92.2655C1569.44 91.8201 1569.44 90.9101 1569.9 90.1801C1578.86 81.186 1587.88 70.0975 1594.31 58.9987C1595.68 56.6104 1594.04 52.5444 1597.46 51.4738C1601.64 51.6344 1603.19 56.6013 1606.75 58.2402ZM1690.47 59.141C1690.52 65.9894 1686.59 72.2466 1680.4 75.168C1673.64 76.9686 1667.83 81.1769 1661.67 84.3044C1654.61 82.9491 1645.31 91.6401 1641.55 82.0766C1640.63 77.2522 1636.15 73.2147 1637.37 67.9746C1641.71 64.8368 1647.42 69.1875 1652.21 66.7889C1662.98 62.5909 1674.08 57.9566 1685.63 55.8427C1687.72 56.2596 1690.57 56.2596 1690.47 59.141ZM1712.64 93.6208C1713.38 96.4738 1715.77 99.3165 1714.74 102.312C1705.31 107.391 1691.49 101.573 1682.5 107.25C1679.64 108.918 1680.83 112.643 1681.15 115.031C1683.69 120.423 1688.79 124.808 1689.68 130.924C1691.49 135.89 1690.88 141.413 1691.01 146.493C1693.42 157.335 1691.01 164.955 1693.15 175.911C1691.65 185.045 1695.85 192.688 1694.63 201.662L1693.27 202.881C1679.47 201.377 1664.92 203.633 1652.66 198.359C1651.31 197.027 1649.22 196.264 1648.78 194.316C1651.59 192.095 1655.97 192.209 1659.36 190.74C1664.92 188.2 1672.59 188.337 1675.61 180.979C1679.47 173.087 1676.35 162.244 1678.13 153.406C1676.2 143.213 1679.64 131.687 1674.4 122.849C1672.59 119.831 1671.41 116.253 1668.09 114.301C1661.81 113.988 1657.29 118.202 1651.78 119.546C1645.14 121.209 1637.65 120.867 1633.18 127.017C1630.9 127.792 1628.68 126.266 1627.58 124.193C1625.63 119.66 1624.94 114.747 1622.55 110.538C1622.82 108.909 1621.61 106.643 1623.54 106.055C1629.25 106.169 1633.76 107.382 1639.3 106.055C1662.24 99.7333 1683.54 84.0105 1709.46 90.4454L1712.64 93.6208ZM1612.63 102.625C1612.87 103.919 1612.2 105.214 1610.99 105.753C1607.52 106.178 1604.08 104.549 1601.53 107.108C1596.89 112.813 1595.51 120.32 1596.6 127.792C1601.53 135.89 1603.31 145.946 1602.4 155.809C1604.53 166.925 1600.61 177.711 1599.73 188.792C1598.38 191.48 1597.79 195.546 1594.15 196.583C1589.99 198.986 1584.11 198.53 1579.3 197.927C1576.92 197.038 1578.86 194.612 1579.02 193.291C1586.98 180.558 1588.65 165.274 1589.81 149.807C1590.72 145.035 1591.95 139.614 1590.55 134.682C1587.58 132.723 1586.24 138.122 1583.96 138.714C1574.7 146.22 1566.46 156.413 1553.83 155.809C1548.9 155.399 1543.05 156.128 1538.98 154.317L1539.3 152.188C1547.71 147.564 1553.53 138.874 1561.79 133.783C1572.13 128.669 1579.77 117.154 1587.88 109.363C1591.19 103.496 1595.52 97.9612 1597.33 91.3554C1598.24 89.6972 1600.19 90.5969 1601.38 91.3554L1612.63 102.625ZM1260.01 57.1696C1263.14 58.0694 1266.31 60.477 1268.25 63.4906C1267.06 69.339 1258.35 64.543 1257 71.1396C1256.71 75.8023 1258.82 81.7828 1256.09 85.9536C1251.32 90.6072 1247.71 95.7152 1246.65 101.867C1246.5 103.364 1247.71 103.838 1248.77 104.549C1250.69 105.165 1252.35 104.093 1253.43 102.321C1254.3 100.511 1253.25 97.8006 1255.64 96.4738C1258.51 96.0285 1261.78 95.5728 1264.49 96.0284C1265.26 97.042 1265.4 98.6821 1266.89 99.0227C1269.56 99.7527 1273.48 97.3553 1274.44 100.511C1274.55 109.202 1260.6 109.799 1263.32 118.487C1264.35 120.605 1267.21 119.387 1268.68 118.794C1271.39 118.35 1275.15 115.637 1277.24 118.487C1278.15 126.14 1272.12 131.106 1267.35 136.06C1265.07 137.985 1261.21 137.678 1260.43 141.288C1260.43 143.509 1259.1 147.131 1261.49 148.475C1266.6 147.131 1270 141.425 1275.44 140.844C1277.7 140.98 1278.14 143.509 1278.9 145.035C1278.73 148.794 1281.75 151.47 1280.65 155.228C1279.19 156.265 1277.7 155.058 1276.16 155.228C1271.22 157.483 1267.04 161.686 1261.77 162.563C1259.4 164.226 1259.53 167.358 1259.98 169.613C1264.47 172.301 1268.67 166.31 1273.47 168.679C1276.91 180.991 1263.58 186.093 1256.37 192.528C1247.53 196.457 1237.64 197.927 1227.73 198.371C1223.85 198.997 1220.4 203.336 1216.46 201.081C1213.65 198.428 1212.31 194.578 1212.88 190.763C1215 189.123 1217.39 190.899 1219.64 191.036C1225.03 189.852 1229.55 186.241 1234.8 184.442C1239 182.346 1244.71 181.446 1247.08 176.811C1248.57 167.779 1248.74 158.36 1249.64 149.09C1245.89 144.431 1240.79 149.386 1236.46 149.989C1233.29 149.67 1228.64 155.969 1227.15 149.819C1226.83 145.775 1222.95 142.791 1224.15 138.27C1226.99 135.764 1231.18 136.072 1234.96 135.423C1240.32 131.391 1250.67 133.202 1251.88 124.341C1251.71 122.701 1250.99 121.061 1249.36 120.332C1244.09 121.061 1238.67 126.14 1234.04 120.742C1221.76 128.566 1211.98 143.406 1195.82 140.981C1194.46 139.614 1196.28 138.27 1197 136.949C1204.37 125.514 1215 115.04 1221.91 103.193C1233.14 93.6207 1235.82 80.4184 1246.92 70.6852C1248.74 67.5281 1249.03 61.8232 1254.17 61.6809C1257.46 59.2834 1249.03 53.4442 1256.08 54.525L1260.01 57.1696Z" fill="white"/>
<path fill-rule="evenodd" clip-rule="evenodd" d="M1283.97 82.0764C1285.35 82.6447 1285.64 84.1993 1285.19 85.2141C1283.7 89.2413 1279.51 90.4555 1276.18 91.5352C1268.69 90.4646 1267.94 82.1994 1264.22 77.433C1264.22 76.6654 1264.06 75.8021 1264.96 75.3477C1271.26 77.5651 1277.55 80.1334 1283.97 82.0764Z" fill="white"/>
<path fill-rule="evenodd" clip-rule="evenodd" d="M1341.15 51.937C1345.78 55.5292 1350.72 58.8275 1354.63 63.4811C1355.4 67.2339 1349.7 67.2338 1350.43 70.8169C1352.24 81.0057 1347.28 88.7959 1346.86 98.1032C1345.48 104.928 1344.56 111.836 1344.11 118.783C1344.11 119.83 1344.44 121.778 1346.08 121.505C1347.91 120.673 1350.07 121.095 1351.46 122.541C1353.89 126.117 1358.5 128.999 1358.07 133.327C1356.41 134.989 1353.74 133.942 1351.93 135.263C1349.07 139.784 1345.5 143.224 1341.46 146.663C1340.72 147.711 1340.83 149.374 1341.15 150.445C1348.8 156.993 1356.73 163.736 1366.2 166.925C1376.84 170.512 1387.94 173.086 1398.28 177.71C1398.44 177.858 1398.87 178.303 1398.74 178.747C1387.34 185.922 1371.73 182.642 1358.52 185.056C1350.89 185.637 1343.84 182.346 1340.73 175.455C1332.01 166.765 1326.62 155.684 1316.86 148.793C1316.98 144.283 1313.69 141.288 1310.69 138.133C1309.66 137.37 1308.47 136.459 1307.25 137.677C1303.65 143.964 1306.34 152.973 1305 159.704C1304.72 164.362 1302.46 169.134 1304.56 173.656C1307.42 173.815 1309.51 170.797 1312.36 170.08C1315.8 168.861 1318.49 164.966 1322.54 165.592C1323.88 168.132 1322.25 170.979 1321.36 173.371C1316.53 186.833 1301.69 195.557 1290.14 202.163C1286.09 202.448 1283.88 209.179 1279.21 206.024C1276.51 201.229 1267.84 197.778 1270.21 190.762C1272.35 188.803 1275.79 190.762 1278.05 189.122C1290.14 184.601 1286.56 170.205 1290.14 160.308C1291.21 152.973 1293.43 145.946 1292.57 137.677C1290.61 129.58 1293.61 120.89 1291.68 113.097C1291.48 102.321 1294.22 91.3642 1289.42 81.1856C1288.22 76.6652 1285.97 71.5561 1287.92 66.628L1289.42 65.7556C1298.1 70.2486 1307.41 65.4435 1314.86 61.4151C1322.86 58.8468 1330.05 54.0508 1338.31 51.814L1341.15 51.937ZM1328.07 70.3716L1314.15 77.5742C1310.84 79.5172 1306.33 78.1618 1303.96 82.3701C1302.91 85.6776 1302.3 90.9189 1305.14 93.1842C1314.41 90.6159 1323.76 87.3084 1330.93 80.2847C1331.53 77.442 1333.04 74.4466 1332 71.2907C1331.09 69.9172 1329.41 70.6745 1328.07 70.3716ZM1324.48 99.4676C1319.25 102.178 1314 105.307 1308.29 106.832C1304.87 108.757 1305.14 113.097 1304.97 116.71C1305.42 118.794 1305.29 121.789 1308.29 121.516L1321.18 115.637C1326.89 113.372 1325.7 106.662 1327.51 101.866C1327.33 100.501 1326 99.1555 1324.48 99.4676ZM1330.79 124.329C1325.26 126.129 1321.04 131.094 1315.51 133.019L1315.06 135.901C1315.51 138.133 1317.6 139.796 1319.54 140.843C1326.45 144.875 1330.66 136.948 1335.59 133.782C1336.97 131.698 1340.39 130.035 1339.36 127.04C1337.83 123.874 1333.77 124.944 1330.79 124.329ZM1243.49 162.073C1243.07 169.601 1238.42 176.218 1231.67 179.806C1225.36 180.421 1225.06 173.644 1222.39 170.068C1222.07 166.025 1227.18 168.394 1229.42 167.039C1233.76 165.125 1237.68 161.822 1242.63 161.207L1243.49 162.073ZM692.538 95.8481C695.979 99.6009 705.721 97.4779 703.454 104.985L696.742 115.172C695.842 127.017 691.034 137.074 690.27 148.896C688.322 152.962 687.729 160.16 682.021 159.875C678.124 157.756 674.683 161.059 671.105 161.503C660.155 163.28 650.231 168.838 638.836 167.938C634.518 166.583 629.55 168.679 624.901 168.246C622.941 165.854 623.989 162.244 623.112 159.419C617.836 144.408 617.107 127.621 612.435 112.178C612.709 110.897 613.461 109.767 614.532 109.022C616.925 108.141 619.819 108.908 622.2 109.363C636.603 104.871 649.934 97.7899 664.952 94.5212C673.316 86.8438 683.833 94.3504 692.538 95.8481ZM673.316 105.297C658.799 112.946 643.326 118.031 629.254 126.277C627.749 127.632 627.02 129.716 628.798 131.094C632.991 132.279 636.888 130.183 641.104 129.716C649.205 127.028 657.17 124.329 665.237 121.789C667.163 120.741 668.986 122.404 670.205 124.044C671.561 127.791 669.715 131.208 667.493 134.067C657.272 139.488 646.037 142.187 634.951 145.035C633.196 145.468 631.794 146.754 631.225 148.463C631.225 149.807 630.883 151.743 632.398 152.677C638.392 154.169 645.137 153.098 650.971 151.743C659.255 147.882 672.734 149.795 675.139 138.258C674.227 127.632 679.343 119.557 677.543 108.463C677.839 106.064 675.606 104.709 673.316 105.297ZM584.28 48.7811C584.28 51.3494 581.705 52.847 580.793 54.9517C577.216 61.6714 580.509 69.4616 582.468 75.7837C581.568 86.247 585.146 95.3925 586.217 105.287C585.305 114.301 586.069 122.849 586.491 131.8C586.798 148.007 585.739 165.114 585.454 181.252C583.95 187.106 584.998 194.168 583.813 200.181C579.152 209.008 567.018 205.546 558.608 206.605L558.164 205.249C567.45 177.972 567.621 147.677 570.914 117.86C571.826 104.965 573 91.1945 571.644 78.4375C573.774 69.8887 571.199 61.652 566.391 55.2171C569.878 52.0612 574.356 51.6056 577.945 48.7526C579.62 47.7389 583.095 46.0807 584.28 48.7811ZM687.889 57.6145C689.245 61.6714 687.285 66.0209 686.977 70.2383C680.084 78.9203 670.49 84.7584 660.007 86.5693C650.983 94.9472 637.663 95.4016 625.824 93.7434C619.671 91.2229 620.856 83.7539 620.411 78.3326C624.73 75.7928 630.12 80.418 634.347 76.9773C643.781 73.0822 653.102 69.3295 663.152 67.0733C671.116 64.2203 676.495 53.5861 685.792 55.397L687.889 57.6145Z" fill="white"/>
<path fill-rule="evenodd" clip-rule="evenodd" d="M614.43 74.8832C614.715 76.5233 615.341 78.4662 615 80.1336C608.562 83.129 603.617 89.5639 596.153 90.0092C592.667 89.1288 588.018 90.171 585.75 87.2895C584.565 82.522 591.174 81.6222 592.211 77.4139C594.478 72.7511 599.708 70.6658 601.087 65.7377C607.787 62.4394 609.462 71.8594 614.43 74.8832ZM555.475 102.766C558.335 111.316 558.62 122.974 555.168 131.379C552 135.753 546.326 135.275 541.529 135.275C538.236 135.001 535.068 133.327 533.427 130.195C533.279 123.76 537.917 119.102 540.321 113.552C544.355 109.041 546.918 103.648 550.963 99.4782C553.39 98.4259 554.723 100.957 555.475 102.766ZM709.926 172.016C719.976 172.016 716.387 183.382 720.147 188.94C720.283 191.332 717.572 190.421 716.216 191.025C702.132 186.082 685.918 189.533 671.219 190.751C665.967 191.959 661.192 194.328 656.373 196.583C643.668 199.669 630.724 201.674 617.689 202.596C612.459 201.161 606.853 202.152 602.42 205.273C601.098 205.204 599.959 204.316 599.549 203.063C598.512 197.927 598.808 192.221 596.586 187.597C595.971 186.093 597.498 185.193 598.364 184.442C601.224 183.872 603.161 185.512 605.702 185.512C615.9 184.909 625.949 185.82 634.643 181.275C642.152 180.228 648.921 176.959 656.714 176.367C667.812 174.841 677.407 167.221 689.997 170.661C695.979 173.201 703.329 170.661 709.926 172.016Z" fill="white"/>
</g>
</g>
<defs>
<clipPath id="clip0_1139_219">
<rect width="1715" height="415" fill="white"/>
</clipPath>
</defs>
</svg>
