<svg width="1715" height="415" viewBox="0 0 1715 415" fill="none" xmlns="http://www.w3.org/2000/svg">
<g clip-path="url(#clip0_1139_236)">
<mask id="mask0_1139_236" style="mask-type:luminance" maskUnits="userSpaceOnUse" x="-1" y="0" width="1716" height="415">
<path d="M1715 0H-1V415H1715V0Z" fill="white"/>
</mask>
<g mask="url(#mask0_1139_236)">
<path fill-rule="evenodd" clip-rule="evenodd" d="M206.692 415.004C321.432 415.004 414.43 322.091 414.43 207.482C414.43 92.8903 321.432 0 206.692 0C91.9867 0 -1 92.8903 -1 207.482C-1 322.103 91.9981 415.004 206.692 415.004Z" fill="#CC222D"/>
<path fill-rule="evenodd" clip-rule="evenodd" d="M33.7157 207.334C33.7157 111.931 111.151 34.5934 206.646 34.5934C302.152 34.5934 379.554 111.931 379.554 207.334C379.554 302.73 302.152 380.051 206.646 380.051C111.151 380.051 33.7157 302.741 33.7157 207.334ZM206.635 388.388C306.747 388.388 387.899 307.342 387.899 207.391C387.899 107.391 306.747 26.3477 206.635 26.3477C106.568 26.3477 25.4043 107.391 25.4043 207.391C25.4157 307.342 106.568 388.388 206.635 388.388Z" fill="white"/>
<path fill-rule="evenodd" clip-rule="evenodd" d="M202.497 115.884H189.238C188.052 115.893 186.924 115.432 186.08 114.602C185.236 113.771 184.757 112.639 184.757 111.457C184.757 108.974 186.752 106.946 189.238 106.946H202.497V66.874H170.78L178.51 123.111H134.103C134.103 123.111 150.851 232.037 105.828 322.889C132.643 322.98 165.011 322.889 165.011 322.889H164.897C196.078 239.235 192.578 229.235 192.578 229.235H202.497V191.856H192.464C189.979 191.856 187.949 189.84 187.949 187.346C187.949 184.863 189.979 182.847 192.464 182.847H202.497V115.884ZM211.47 115.884H224.376C225.561 115.893 226.702 115.433 227.545 114.603C228.389 113.772 228.868 112.64 228.868 111.457C228.879 108.971 226.861 106.951 224.376 106.946H211.47V66.874H242.88L235.286 123.111H279.739C279.739 123.111 262.843 232.037 307.877 322.889C281.073 322.98 248.614 322.889 248.614 322.889C217.433 239.235 221.047 229.235 221.047 229.235H211.47V191.856H221.275C223.749 191.856 225.767 189.84 225.767 187.368C225.767 184.886 223.76 182.87 221.275 182.847H211.47V115.884Z" fill="white"/>
<path fill-rule="evenodd" clip-rule="evenodd" d="M174.803 237.459C174.553 237.72 174.245 237.914 173.982 238.108L177.939 252.868C178.532 255.112 177.198 257.412 174.952 258.016C173.88 258.312 172.728 258.164 171.759 257.617C170.79 257.059 170.095 256.137 169.81 255.066L166.196 241.661C165.477 241.775 164.748 241.923 164.018 241.878C163.391 241.878 162.81 241.764 162.182 241.695L158.591 255.055C157.953 257.253 155.661 258.54 153.449 257.936C151.238 257.344 149.904 255.077 150.462 252.857L154.396 238.21C154.099 237.971 153.769 237.789 153.483 237.493C150.667 234.645 149.094 230.796 149.106 226.787V166.196C149.174 157.848 156.003 151.14 164.36 151.197C172.626 151.265 179.284 157.996 179.25 166.253V226.901C179.25 230.876 177.654 234.68 174.803 237.459Z" fill="#CC222D"/>
<path fill-rule="evenodd" clip-rule="evenodd" d="M157.553 191.537V226.798C157.53 228.586 158.214 230.306 159.469 231.582C160.677 232.789 162.33 233.472 164.04 233.461C165.842 233.472 167.575 232.755 168.84 231.479C170.083 230.272 170.79 228.62 170.813 226.901V191.537H157.553ZM170.824 183.132V166.253C170.824 162.529 167.974 159.59 164.325 159.59C160.631 159.545 157.599 162.495 157.553 166.196V183.132H170.824Z" fill="white"/>
<path fill-rule="evenodd" clip-rule="evenodd" d="M267.962 187.311L249.8 151.925L231.627 187.311L245.582 214.497V253.892C245.582 256.216 247.474 258.072 249.823 258.072C250.929 258.072 252 257.639 252.787 256.854C253.585 256.068 254.019 254.997 254.019 253.892V214.383L267.962 187.311ZM249.8 204.566L240.93 187.3L249.8 169.999L258.67 187.3L249.8 204.566Z" fill="#CC222D"/>
<path fill-rule="evenodd" clip-rule="evenodd" d="M1706.83 256.342V247.094H540.491V256.342H1706.83ZM539.1 299.666H555.574V329.506H595.489V299.666H611.918V372.967H595.489V341.533H555.574V372.967H539.1V299.666ZM659.289 299.666H680.028L717.514 372.967H697.995L689.559 356.51H647.329L639.588 372.967H621.871L659.289 299.666ZM683.664 344.529L668.421 312.661L653.212 344.529H683.664ZM727.262 299.666H750.44L791.997 355.918H792.191V299.666H807.012V372.967H784.848L742.3 315.714H742.083V372.967H727.262V299.666ZM888.404 323.344C887.879 313.049 877.322 309.119 869.193 309.119C853.779 309.119 839.459 316.955 839.459 336.021C839.459 349.665 846.767 362.922 869.307 362.922C875.714 362.922 881.278 362.068 889.407 359.562V345.542H865.932V334.176H905.46V368.4C894.994 372.865 878.941 374.903 868.27 374.903C840.941 374.903 822.346 362.74 822.346 336.112C822.346 314.21 837.909 297.742 866.753 297.742C888.917 297.742 905.46 306.192 905.46 323.344H888.404ZM973.387 350.029C974.299 358.754 980.684 364.05 993.692 364.05C1007.32 364.05 1012.29 358.161 1012.29 352.865C1012.29 347.569 1008.52 345.166 1000.38 344.016L985.278 342.011C965.839 339.392 959.443 331.146 959.443 321.522C959.443 304.564 975.268 297.73 992.392 297.73C1013.84 297.73 1025.4 306.807 1025.9 321.613H1009.46C1008.84 312.081 1002.25 308.607 990.842 308.607C984.035 308.607 976.556 311.955 976.556 318.686C976.556 324.358 980.684 326.67 987.205 327.593L1008.22 330.543C1025.72 332.968 1029.35 343.23 1029.35 350.815C1029.35 365.963 1016.35 374.881 991.48 374.881C970.229 374.881 956.935 365.735 956.935 350.018H973.387V350.029ZM1101.48 311.636H1059.83V328.914H1099.96V340.884H1059.83V360.963H1103.31V372.967H1043.35V299.666H1101.48V311.636ZM1119.05 299.666H1142.2L1183.79 355.918H1183.96V299.666H1198.82V372.967H1176.63L1134.07 315.714H1133.88V372.967H1119.05V299.666ZM1280.2 323.344C1279.7 313.049 1269.12 309.119 1260.99 309.119C1245.53 309.119 1231.19 316.955 1231.19 336.021C1231.19 349.665 1238.52 362.922 1261.06 362.922C1267.49 362.922 1273.11 362.068 1281.19 359.562V345.542H1257.72V334.176H1297.28V368.4C1286.76 372.865 1270.73 374.903 1260.07 374.903C1232.69 374.903 1214.13 362.74 1214.13 336.112C1214.13 314.21 1229.68 297.742 1258.57 297.742C1280.69 297.742 1297.28 306.192 1297.28 323.344H1280.2ZM1353.5 299.666H1396.65C1411.12 299.666 1423.88 303.242 1423.88 318.345C1423.88 327.604 1415.37 333.413 1405.8 334.005V334.7C1415.37 335.542 1427.67 339.392 1427.67 353.275C1427.67 361.305 1421.96 372.967 1398.3 372.967H1353.5V299.666ZM1369.93 361.567H1392.69C1402.76 361.567 1409.98 358.868 1409.98 351.351C1409.98 342.923 1401.14 340.884 1393.82 340.884H1369.91V361.567H1369.93ZM1369.93 329.506H1393.41C1401.44 329.506 1406.24 327.08 1406.24 320.6C1406.24 312.661 1398.8 311.033 1390.24 311.033H1369.93V329.506ZM1470.94 299.666H1491.65L1529.16 372.967H1509.64L1501.21 356.51H1458.92L1451.2 372.967H1433.54L1470.94 299.666ZM1495.33 344.529L1480.06 312.661L1464.8 344.529H1495.33ZM1539.39 299.666H1562.6L1604.15 355.918H1604.35V299.666H1619.19V372.967H1597.03L1554.47 315.714H1554.27V372.967H1539.39V299.666ZM1655.26 299.666V331.659L1686.22 299.666H1706.46L1674.14 332.672L1710.33 372.967H1688.57L1655.26 334.392V372.967H1638.78V299.666H1655.26ZM980.684 51.4636C976.602 63.1785 977.97 77.8786 977.822 90.171C979.897 92.54 983.83 91.3554 986.806 91.3554C993.852 90.5969 1003.63 86.5594 1008.88 93.2984C1010.06 96.1514 1010.98 99.4589 1010.69 102.615C1006.93 103.942 1002.56 103.828 998.959 104.387C991.765 106.814 982.029 106.056 978.426 113.988C977.389 117.154 977.332 120.548 978.255 123.749L980.513 125.696C990.26 123.749 998.834 127.165 1007.68 128.828C1011.12 132.131 1013.09 137.074 1013.09 141.732L1011.56 142.769C1001.07 141.732 990.534 143.053 980.056 142.598C975.564 144.409 975.564 149.534 973.9 153.099C973.455 157.597 970.457 164.955 975.713 167.779C983.374 169.886 991.446 166.447 999.564 168.258C1010.8 170.513 1025.83 168.679 1030.9 180.991C1031.1 184.909 1030.04 188.348 1027.94 191.173C1023.57 191.173 1019.81 188.496 1015.33 188.223C1001.82 187.141 975.2 184.066 973.319 184.294C971.449 184.51 955.898 186.685 949.171 192.528C944.668 195.546 938.203 194.043 933.7 196.742C926.346 197.642 918.377 199.122 911.206 197.186C906.235 197.471 902.324 201.081 897.844 201.526C895.894 195.82 895.267 189.681 894.093 183.713C893.352 181.276 894.994 179.635 896.339 177.859C899.782 176.503 902.188 180.672 905.494 180.991C914.957 182.198 923.804 177.551 933.7 177.266L955.476 170.524C960.082 166.173 960.72 158.987 959.364 152.689C958.771 152.096 958.155 150.741 957.106 151.197C952.033 152.529 946.469 152.973 941.065 153.429C937.44 154.636 934.316 157.005 930.553 157.609C925.913 152.381 926.221 144.58 926.073 138.133C930.553 136.949 934.783 139.488 939.742 138.577C946.766 137.245 953.344 135.161 959.831 132.279C964.289 128.544 962.533 121.676 961.302 117.018C957.882 115.637 953.8 116.71 950.357 117.018C944.349 117.61 938.648 120.605 932.514 119.557C928.604 115.808 928.284 110.7 925.161 106.672C921.387 106.956 920.954 111.325 918.103 112.964C910.134 120.457 898.437 120.742 888.392 122.872C887.64 122.245 886.431 122.416 886.158 121.232C887.64 116.835 892.77 114.007 894.241 109.486C898.277 105.459 903.248 101.867 905.95 97.0512C914.056 88.6733 921.387 79.5277 924.397 68.9221C924.99 67.2536 923.952 64.6854 926.209 64.0886C931.602 64.4006 934.316 71.2911 939.081 73.3673C940.894 74.4379 942.992 74.8923 944.223 76.9777V79.2339C937.44 84.4843 926.335 89.2518 928.285 99.6103C933.689 102.88 941.054 103.193 947.222 103.051C951.258 100.226 956.65 100.501 961.176 98.2459C963.844 96.2938 963.719 93.1755 964.289 90.171C962.522 78.1531 967.299 63.6524 959.352 53.7198C960.983 50.5821 965.201 50.7529 968.507 49.7108C972.726 52.0798 978.438 45.9387 980.684 51.4636ZM1606.69 58.2402C1609.26 59.9087 1612.98 61.8129 1613.9 65.2923C1615.86 70.3719 1609.4 67.8322 1607.59 69.7843C1598.44 75.3377 1596.06 88.5127 1584.79 91.0616C1580.46 92.7301 1575.06 92.7301 1570.26 92.2655C1569.35 91.8201 1569.35 90.9101 1569.82 90.1801C1578.78 81.186 1587.81 70.0975 1594.24 58.9987C1595.61 56.6104 1593.97 52.5444 1597.39 51.4738C1601.57 51.6344 1603.12 56.6013 1606.69 58.2402ZM1690.45 59.141C1690.51 65.9894 1686.58 72.2466 1680.37 75.168C1673.61 76.9686 1667.8 81.1769 1661.64 84.3044C1654.57 82.9491 1645.27 91.6401 1641.51 82.0766C1640.59 77.2522 1636.1 73.2147 1637.32 67.9746C1641.67 64.8368 1647.38 69.1875 1652.17 66.7889C1662.95 62.5909 1674.06 57.9566 1685.61 55.8427C1687.71 56.2596 1690.56 56.2596 1690.45 59.141ZM1712.64 93.6208C1713.38 96.4738 1715.77 99.3165 1714.74 102.312C1705.31 107.391 1691.48 101.573 1682.48 107.25C1679.62 108.918 1680.81 112.643 1681.13 115.031C1683.67 120.423 1688.78 124.808 1689.67 130.924C1691.48 135.89 1690.86 141.413 1691 146.493C1693.41 157.335 1691 164.955 1693.13 175.911C1691.64 185.045 1695.83 192.688 1694.61 201.662L1693.26 202.881C1679.45 201.377 1664.89 203.633 1652.62 198.359C1651.27 197.027 1649.18 196.264 1648.74 194.316C1651.55 192.095 1655.93 192.209 1659.33 190.74C1664.89 188.2 1672.57 188.337 1675.59 180.979C1679.45 173.087 1676.33 162.244 1678.11 153.406C1676.18 143.213 1679.62 131.687 1674.38 122.849C1672.57 119.831 1671.38 116.253 1668.06 114.301C1661.78 113.988 1657.25 118.202 1651.75 119.546C1645.1 121.209 1637.61 120.867 1633.13 127.017C1630.85 127.792 1628.63 126.266 1627.53 124.193C1625.58 119.66 1624.89 114.747 1622.49 110.538C1622.77 108.909 1621.56 106.643 1623.48 106.055C1629.2 106.169 1633.71 107.382 1639.25 106.055C1662.21 99.7333 1683.52 84.0105 1709.46 90.4454L1712.64 93.6208ZM1612.57 102.625C1612.81 103.919 1612.14 105.214 1610.93 105.753C1607.45 106.178 1604.01 104.549 1601.47 107.108C1596.82 112.813 1595.44 120.32 1596.53 127.792C1601.47 135.89 1603.25 145.946 1602.33 155.809C1604.47 166.925 1600.55 177.711 1599.67 188.792C1598.31 191.48 1597.72 195.546 1594.08 196.583C1589.92 198.986 1584.04 198.53 1579.22 197.927C1576.84 197.038 1578.78 194.612 1578.94 193.291C1586.91 180.558 1588.57 165.274 1589.74 149.807C1590.65 145.035 1591.88 139.614 1590.48 134.682C1587.5 132.723 1586.17 138.122 1583.89 138.714C1574.62 146.22 1566.38 156.413 1553.73 155.809C1548.81 155.399 1542.95 156.128 1538.88 154.317L1539.2 152.188C1547.61 147.564 1553.44 138.874 1561.7 133.783C1572.04 128.669 1579.69 117.154 1587.81 109.363C1591.12 103.496 1595.45 97.9612 1597.26 91.3554C1598.17 89.6972 1600.12 90.5969 1601.31 91.3554L1612.57 102.625ZM1259.75 57.1696C1262.88 58.0694 1266.05 60.477 1267.99 63.4906C1266.8 69.339 1258.08 64.543 1256.74 71.1396C1256.44 75.8023 1258.55 81.7828 1255.82 85.9536C1251.05 90.6072 1247.43 95.7152 1246.37 101.867C1246.22 103.364 1247.43 103.838 1248.49 104.549C1250.42 105.165 1252.08 104.093 1253.16 102.321C1254.03 100.511 1252.99 97.8006 1255.37 96.4738C1258.24 96.0285 1261.51 95.5728 1264.23 96.0284C1265 97.042 1265.14 98.6821 1266.63 99.0227C1269.3 99.7527 1273.22 97.3553 1274.18 100.511C1274.29 109.202 1260.34 109.799 1263.05 118.487C1264.09 120.605 1266.95 119.387 1268.42 118.794C1271.14 118.35 1274.9 115.637 1276.98 118.487C1277.9 126.14 1271.87 131.106 1267.09 136.06C1264.81 137.985 1260.94 137.678 1260.17 141.288C1260.17 143.509 1258.83 147.131 1261.23 148.475C1266.34 147.131 1269.74 141.425 1275.18 140.844C1277.44 140.98 1277.89 143.509 1278.65 145.035C1278.48 148.794 1281.5 151.47 1280.39 155.228C1278.93 156.265 1277.44 155.058 1275.9 155.228C1270.96 157.483 1266.78 161.686 1261.5 162.563C1259.13 164.226 1259.27 167.358 1259.71 169.613C1264.2 172.301 1268.41 166.31 1273.21 168.679C1276.65 180.991 1263.31 186.093 1256.1 192.528C1247.26 196.457 1237.37 197.927 1227.45 198.371C1223.56 198.997 1220.12 203.336 1216.17 201.081C1213.36 198.428 1212.02 194.578 1212.59 190.763C1214.71 189.123 1217.09 190.899 1219.35 191.036C1224.74 189.852 1229.27 186.241 1234.52 184.442C1238.72 182.346 1244.43 181.446 1246.81 176.811C1248.3 167.779 1248.47 158.36 1249.37 149.09C1245.62 144.431 1240.51 149.386 1236.18 149.989C1233.01 149.67 1228.36 155.969 1226.87 149.819C1226.55 145.775 1222.66 142.791 1223.87 138.27C1226.71 135.764 1230.9 136.072 1234.68 135.423C1240.04 131.391 1250.4 133.202 1251.61 124.341C1251.43 122.701 1250.72 121.061 1249.09 120.332C1243.82 121.061 1238.39 126.14 1233.76 120.742C1221.47 128.566 1211.69 143.406 1195.51 140.981C1194.16 139.614 1195.98 138.27 1196.7 136.949C1204.08 125.514 1214.71 115.04 1221.62 103.193C1232.86 93.6207 1235.54 80.4184 1246.65 70.6852C1248.47 67.5281 1248.76 61.8232 1253.9 61.6809C1257.19 59.2834 1248.76 53.4442 1255.81 54.525L1259.75 57.1696Z" fill="black"/>
<path fill-rule="evenodd" clip-rule="evenodd" d="M1283.72 82.0764C1285.1 82.6447 1285.39 84.1993 1284.94 85.2141C1283.45 89.2413 1279.25 90.4555 1275.93 91.5352C1268.43 90.4646 1267.68 82.1994 1263.95 77.433C1263.95 76.6654 1263.79 75.8021 1264.7 75.3477C1271 77.5651 1277.29 80.1334 1283.72 82.0764Z" fill="black"/>
<path fill-rule="evenodd" clip-rule="evenodd" d="M1340.93 51.937C1345.56 55.5292 1350.51 58.8275 1354.42 63.4811C1355.2 67.2339 1349.48 67.2338 1350.21 70.8169C1352.03 81.0057 1347.07 88.7959 1346.65 98.1032C1345.27 104.928 1344.34 111.836 1343.9 118.783C1343.9 119.83 1344.23 121.778 1345.87 121.505C1347.69 120.673 1349.86 121.095 1351.25 122.541C1353.68 126.117 1358.3 128.999 1357.86 133.327C1356.2 134.989 1353.53 133.942 1351.72 135.263C1348.86 139.784 1345.29 143.224 1341.24 146.663C1340.5 147.711 1340.61 149.374 1340.93 150.445C1348.58 156.993 1356.52 163.736 1365.99 166.925C1376.64 170.512 1387.75 173.086 1398.1 177.71C1398.26 177.858 1398.69 178.303 1398.55 178.747C1387.15 185.922 1371.53 182.642 1358.31 185.056C1350.68 185.637 1343.62 182.346 1340.51 175.455C1331.79 166.765 1326.4 155.684 1316.63 148.793C1316.75 144.283 1313.46 141.288 1310.46 138.133C1309.42 137.37 1308.24 136.459 1307.02 137.677C1303.41 143.964 1306.1 152.973 1304.76 159.704C1304.48 164.362 1302.22 169.134 1304.32 173.656C1307.19 173.815 1309.27 170.797 1312.12 170.08C1315.57 168.861 1318.26 164.966 1322.32 165.592C1323.65 168.132 1322.02 170.979 1321.13 173.371C1316.3 186.833 1301.45 195.557 1289.89 202.163C1285.84 202.448 1283.63 209.179 1278.96 206.024C1276.26 201.229 1267.58 197.778 1269.95 190.762C1272.09 188.803 1275.54 190.762 1277.79 189.122C1289.89 184.601 1286.31 170.205 1289.89 160.308C1290.96 152.973 1293.19 145.946 1292.32 137.677C1290.36 129.58 1293.37 120.89 1291.43 113.097C1291.24 102.321 1293.97 91.3642 1289.17 81.1856C1287.98 76.6652 1285.72 71.5561 1287.67 66.628L1289.17 65.7556C1297.86 70.2486 1307.18 65.4435 1314.63 61.4151C1322.63 58.8468 1329.83 54.0508 1338.09 51.814L1340.93 51.937ZM1327.84 70.3716L1313.91 77.5742C1310.61 79.5172 1306.09 78.1618 1303.72 82.3701C1302.67 85.6776 1302.06 90.9189 1304.91 93.1842C1314.18 90.6159 1323.54 87.3084 1330.71 80.2847C1331.31 77.442 1332.82 74.4466 1331.78 71.2907C1330.87 69.9172 1329.19 70.6745 1327.84 70.3716ZM1324.25 99.4676C1319.02 102.178 1313.76 105.307 1308.05 106.832C1304.63 108.757 1304.91 113.097 1304.74 116.71C1305.18 118.794 1305.05 121.789 1308.05 121.516L1320.95 115.637C1326.66 113.372 1325.47 106.662 1327.29 101.866C1327.1 100.501 1325.77 99.1555 1324.25 99.4676ZM1330.57 124.329C1325.03 126.129 1320.81 131.094 1315.28 133.019L1314.83 135.901C1315.28 138.133 1317.37 139.796 1319.31 140.843C1326.23 144.875 1330.43 136.948 1335.37 133.782C1336.75 131.698 1340.17 130.035 1339.14 127.04C1337.62 123.874 1333.55 124.944 1330.57 124.329ZM1243.22 162.073C1242.79 169.601 1238.14 176.218 1231.39 179.806C1225.08 180.421 1224.78 173.644 1222.1 170.068C1221.78 166.025 1226.9 168.394 1229.14 167.039C1233.48 165.125 1237.4 161.822 1242.36 161.207L1243.22 162.073ZM691.942 95.8481C695.385 99.6009 705.133 97.4779 702.865 104.985L696.149 115.172C695.249 127.017 690.437 137.074 689.674 148.896C687.724 152.962 687.131 160.16 681.419 159.875C677.52 157.756 674.077 161.059 670.497 161.503C659.541 163.28 649.61 168.838 638.209 167.938C633.888 166.583 628.918 168.679 624.266 168.246C622.305 165.854 623.354 162.244 622.476 159.419C617.197 144.408 616.468 127.621 611.793 112.178C612.067 110.897 612.819 109.767 613.891 109.022C616.285 108.141 619.181 108.908 621.564 109.363C635.975 104.871 649.314 97.7899 664.341 94.5212C672.709 86.8438 683.232 94.3504 691.942 95.8481ZM672.709 105.297C658.184 112.946 642.701 118.031 628.621 126.277C627.116 127.632 626.387 129.716 628.165 131.094C632.361 132.279 636.26 130.183 640.478 129.716C648.584 127.028 656.554 124.329 664.626 121.789C666.552 120.741 668.377 122.404 669.596 124.044C670.953 127.791 669.106 131.208 666.883 134.067C656.656 139.488 645.415 142.187 634.322 145.035C632.566 145.468 631.164 146.754 630.593 148.463C630.593 149.807 630.251 151.743 631.768 152.677C637.765 154.169 644.514 153.098 650.352 151.743C658.64 147.882 672.127 149.795 674.533 138.258C673.621 127.632 678.74 119.557 676.939 108.463C677.235 106.064 675 104.709 672.709 105.297ZM583.621 48.7811C583.621 51.3494 581.045 52.847 580.133 54.9517C576.553 61.6714 579.848 69.4616 581.809 75.7837C580.908 86.247 584.488 95.3925 585.56 105.287C584.647 114.301 585.411 122.849 585.833 131.8C586.141 148.007 585.081 165.114 584.796 181.252C583.291 187.106 584.34 194.168 583.154 200.181C578.491 209.008 566.349 205.546 557.935 206.605L557.49 205.249C566.782 177.972 566.953 147.677 570.248 117.86C571.16 104.965 572.334 91.1945 570.978 78.4375C573.11 69.8887 570.533 61.652 565.722 55.2171C569.211 52.0612 573.691 51.6056 577.283 48.7526C578.958 47.7389 582.436 46.0807 583.621 48.7811ZM687.291 57.6145C688.648 61.6714 686.687 66.0209 686.379 70.2383C679.481 78.9203 669.881 84.7584 659.392 86.5693C650.363 94.9472 637.035 95.4016 625.189 93.7434C619.033 91.2229 620.219 83.7539 619.774 78.3326C624.095 75.7928 629.488 80.418 633.717 76.9773C643.158 73.0822 652.483 69.3295 662.539 67.0733C670.508 64.2203 675.89 53.5861 685.193 55.397L687.291 57.6145Z" fill="black"/>
<path fill-rule="evenodd" clip-rule="evenodd" d="M613.788 74.8832C614.073 76.5233 614.7 78.4662 614.358 80.1336C607.916 83.129 602.968 89.5639 595.5 90.0092C592.012 89.1288 587.36 90.171 585.091 87.2895C583.906 82.522 590.518 81.6222 591.556 77.4139C593.824 72.7511 599.058 70.6658 600.437 65.7377C607.141 62.4394 608.817 71.8594 613.788 74.8832ZM554.799 102.766C557.66 111.316 557.945 122.974 554.491 131.379C551.321 135.753 545.644 135.275 540.844 135.275C537.549 135.001 534.38 133.327 532.738 130.195C532.59 123.76 537.23 119.102 539.636 113.552C543.671 109.041 546.237 103.648 550.284 99.4782C552.712 98.4259 554.046 100.957 554.799 102.766ZM709.339 172.016C719.395 172.016 715.804 183.382 719.566 188.94C719.703 191.332 716.99 190.421 715.633 191.025C701.541 186.082 685.318 189.533 670.61 190.751C665.354 191.959 660.577 194.328 655.755 196.583C643.043 199.669 630.091 201.674 617.048 202.596C611.815 201.161 606.206 202.152 601.771 205.273C600.448 205.204 599.308 204.316 598.898 203.063C597.86 197.927 598.157 192.221 595.934 187.597C595.318 186.093 596.846 185.193 597.712 184.442C600.574 183.872 602.512 185.512 605.054 185.512C615.258 184.909 625.314 185.82 634.013 181.275C641.526 180.228 648.298 176.959 656.097 176.367C667.201 174.841 676.801 167.221 689.399 170.661C695.385 173.201 702.738 170.661 709.339 172.016Z" fill="black"/>
</g>
</g>
<defs>
<clipPath id="clip0_1139_236">
<rect width="1716" height="415" fill="white" transform="translate(-1)"/>
</clipPath>
</defs>
</svg>
