<svg width="300" height="300" viewBox="0 0 300 300" fill="none" xmlns="http://www.w3.org/2000/svg">
<path fill-rule="evenodd" clip-rule="evenodd" d="M149.983 300C232.842 300 300 232.835 300 149.986C300 67.149 232.842 0 149.983 0C67.1497 0 0 67.149 0 149.986C0 232.843 67.158 300 149.983 300Z" fill="#CC222D"/>
<path fill-rule="evenodd" clip-rule="evenodd" d="M25.0694 149.879C25.0694 80.9132 80.9888 25.0071 149.95 25.0071C218.919 25.0071 274.814 80.9132 274.814 149.879C274.814 218.839 218.919 274.733 149.95 274.733C80.9888 274.733 25.0694 218.847 25.0694 149.879ZM149.942 280.76C222.237 280.76 280.841 222.173 280.841 149.92C280.841 77.6313 222.237 19.0464 149.942 19.0464C77.6792 19.0464 19.0674 77.6313 19.0674 149.92C19.0756 222.173 77.6792 280.76 149.942 280.76Z" fill="white"/>
<path fill-rule="evenodd" clip-rule="evenodd" d="M146.954 83.7709H137.379C136.523 83.7774 135.708 83.4441 135.099 82.8441C134.489 82.2434 134.144 81.4251 134.144 80.5706C134.144 78.7757 135.584 77.3097 137.379 77.3097H146.954V48.3423H124.05L129.632 88.9951H97.5641C97.5641 88.9951 109.659 167.736 77.1455 233.412C96.5098 233.477 119.884 233.412 119.884 233.412H119.802C142.319 172.939 139.791 165.711 139.791 165.711H146.954V138.69H139.709C137.915 138.69 136.449 137.233 136.449 135.43C136.449 133.635 137.915 132.177 139.709 132.177H146.954V83.7709ZM153.434 83.7709H162.754C163.61 83.7774 164.434 83.4448 165.043 82.8448C165.652 82.2441 165.998 81.4258 165.998 80.5706C166.006 78.7736 164.549 77.3133 162.754 77.3097H153.434V48.3423H176.117L170.633 88.9951H202.734C202.734 88.9951 190.533 167.736 223.054 233.412C203.698 233.477 180.257 233.412 180.257 233.412C157.74 172.939 160.35 165.711 160.35 165.711H153.434V138.69H160.515C162.301 138.69 163.759 137.233 163.759 135.446C163.759 133.651 162.309 132.194 160.515 132.177H153.434V83.7709Z" fill="white"/>
<path fill-rule="evenodd" clip-rule="evenodd" d="M126.954 171.656C126.774 171.844 126.551 171.984 126.362 172.125L129.219 182.795C129.647 184.417 128.684 186.079 127.062 186.516C126.288 186.73 125.456 186.623 124.756 186.227C124.056 185.824 123.555 185.158 123.349 184.383L120.739 174.693C120.22 174.776 119.693 174.883 119.166 174.85C118.713 174.85 118.294 174.768 117.84 174.718L115.247 184.375C114.786 185.964 113.131 186.895 111.534 186.458C109.937 186.03 108.974 184.391 109.377 182.787L112.218 172.198C112.003 172.026 111.765 171.894 111.558 171.68C109.525 169.621 108.389 166.839 108.398 163.941V120.141C108.447 114.106 113.378 109.257 119.413 109.298C125.382 109.347 130.19 114.213 130.166 120.182V164.023C130.166 166.897 129.013 169.647 126.954 171.656Z" fill="#CC222D"/>
<path fill-rule="evenodd" clip-rule="evenodd" d="M114.498 138.459V163.949C114.482 165.241 114.976 166.485 115.882 167.407C116.754 168.28 117.948 168.773 119.183 168.765C120.484 168.773 121.736 168.255 122.649 167.333C123.547 166.46 124.057 165.266 124.074 164.023V138.459H114.498ZM124.082 132.383V120.182C124.082 117.49 122.024 115.365 119.389 115.365C116.721 115.333 114.532 117.465 114.498 120.14V132.383H124.082Z" fill="white"/>
<path fill-rule="evenodd" clip-rule="evenodd" d="M194.229 135.404L181.114 109.824L167.99 135.404L178.068 155.056V183.534C178.068 185.214 179.434 186.556 181.13 186.556C181.929 186.556 182.702 186.243 183.271 185.675C183.847 185.107 184.16 184.333 184.16 183.534V154.974L194.229 135.404ZM181.114 147.877L174.708 135.396L181.114 122.889L187.519 135.396L181.114 147.877Z" fill="#CC222D"/>
</svg>
