<?xml version="1.0" encoding="UTF-8" standalone="no"?>
<!DOCTYPE svg PUBLIC "-//W3C//DTD SVG 1.1//EN" "http://www.w3.org/Graphics/SVG/1.1/DTD/svg11.dtd">
<!-- Created with Vectornator (http://vectornator.io/) -->
<svg height="100%" stroke-miterlimit="10" style="fill-rule:nonzero;clip-rule:evenodd;stroke-linecap:round;stroke-linejoin:round;" version="1.1" viewBox="0 0 1727 1221.3" width="100%" xml:space="preserve" xmlns="http://www.w3.org/2000/svg" xmlns:vectornator="http://vectornator.io" xmlns:xlink="http://www.w3.org/1999/xlink">
<defs/>
<g id="Layer-1" vectornator:layerName="Layer 1">
<g opacity="1" vectornator:layerName="g8371">
<path d="M349.939 434.607C440.474 434.607 513.973 361.143 513.973 270.572C513.973 179.989 440.474 106.513 349.939 106.513C259.32 106.513 185.845 179.989 185.845 270.572C185.845 361.143 259.32 434.607 349.939 434.607" fill="#ed1c24" fill-rule="nonzero" opacity="1" stroke="none" vectornator:layerName="path"/>
<path d="M746.889 242.515C754.853 242.515 752.005 251.52 754.945 255.895C755.072 257.816 752.954 257.052 751.89 257.585C740.743 253.626 727.941 256.358 716.32 257.272C712.177 258.245 708.403 260.143 704.596 261.937C694.745 264.286 684.572 265.942 674.016 266.682C669.849 265.513 665.265 266.416 661.943 268.789C661.006 268.789 659.918 267.979 659.663 267.053C658.864 262.979 659.072 258.499 657.29 254.818C656.827 253.626 658.008 252.92 658.714 252.353C661.006 251.879 662.521 253.152 664.524 253.152C672.603 252.666 680.544 253.395 687.419 249.853C693.322 249.031 698.646 246.415 704.838 245.941C713.578 244.725 721.205 238.707 731.148 241.427C735.858 243.441 741.704 241.427 746.889 242.515ZM624.858 187.744C627.069 194.549 627.311 203.74 624.615 210.384C622.092 213.81 617.635 213.451 613.816 213.451C611.235 213.242 608.7 211.923 607.415 209.458C607.3 204.33 610.991 200.684 612.878 196.274C616.073 192.709 618.087 188.45 621.27 185.151C623.168 184.306 624.245 186.32 624.858 187.744ZM671.388 165.706C671.642 167.037 672.14 168.541 671.921 169.849C666.804 172.199 662.881 177.315 656.919 177.674C654.223 176.956 650.53 177.813 648.772 175.544C647.822 171.736 653.03 171.053 653.887 167.72C655.635 164.074 659.79 162.418 660.867 158.495C666.179 155.867 667.499 163.31 671.388 165.706ZM729.481 152.094C730.546 155.3 729.007 158.715 728.751 162.036C723.288 168.912 715.741 173.542 707.443 174.931C700.313 181.574 689.803 181.945 680.394 180.625C675.543 178.6 676.493 172.708 676.122 168.437C679.594 166.412 683.842 170.116 687.175 167.395C694.618 164.27 701.98 161.319 709.931 159.548C716.205 157.302 720.487 148.922 727.861 150.311L729.481 152.094ZM647.591 145.103C647.591 147.094 645.565 148.297 644.859 149.918C642.034 155.3 644.616 161.423 646.155 166.412C645.461 174.734 648.308 181.945 649.153 189.758C648.447 196.864 649.038 203.659 649.338 210.731C649.616 223.521 648.772 237.04 648.586 249.853C647.359 254.483 648.215 260.004 647.221 264.784C643.563 271.729 633.955 269.032 627.311 269.9C634.315 247.237 634.43 223.278 637.057 199.723C637.753 189.538 638.655 178.6 637.636 168.541C639.28 161.782 637.289 155.3 633.492 150.172C636.213 147.684 639.743 147.314 642.636 145.103C643.921 144.281 646.653 142.973 647.591 145.103ZM718.011 189.758C706.471 195.788 694.271 199.851 683.147 206.356C681.945 207.397 681.331 209.122 682.777 210.117C686.111 211.09 689.201 209.458 692.523 209.122C698.913 206.957 705.162 204.805 711.598 202.814C713.126 201.957 714.539 203.288 715.476 204.585C716.552 207.513 715.152 210.279 713.369 212.513C705.29 216.773 696.413 218.926 687.638 221.183C686.366 221.565 685.161 222.456 684.687 223.88C684.687 224.956 684.433 226.461 685.647 227.248C690.405 228.382 695.717 227.56 700.313 226.461C706.841 223.44 717.513 224.956 719.422 215.824C718.693 207.397 722.745 201.043 721.332 192.246C721.541 190.325 719.782 189.306 718.011 189.758ZM733.162 182.304C735.858 185.267 743.602 183.6 741.784 189.538L736.472 197.605C735.767 206.957 731.969 214.898 731.367 224.227C729.828 227.456 729.377 233.162 724.851 232.885C721.772 231.253 719.075 233.857 716.205 234.239C707.559 235.581 699.722 240.038 690.729 239.309C687.268 238.232 683.379 239.899 679.698 239.528C678.182 237.607 678.993 234.794 678.298 232.549C674.096 220.685 673.564 207.397 669.849 195.232C670.114 194.283 670.589 193.288 671.515 192.709C673.437 192.015 675.67 192.617 677.557 192.941C688.947 189.399 699.492 183.808 711.332 181.239C718.011 175.174 726.286 181.111 733.162 182.304ZM1168.56 234.667C1168.22 240.616 1164.51 245.837 1159.2 248.707C1154.19 249.147 1153.99 243.799 1151.85 240.952C1151.63 237.781 1155.65 239.656 1157.44 238.591C1160.85 237.04 1163.93 234.447 1167.87 233.961L1168.56 234.667ZM1237.55 204.805C1233.16 206.263 1229.84 210.117 1225.44 211.68L1225.12 213.902C1225.44 215.743 1227.1 216.993 1228.64 217.849C1234.11 221.044 1237.41 214.759 1241.33 212.293C1242.39 210.603 1245.14 209.33 1244.31 206.957C1243.1 204.481 1239.9 205.268 1237.55 204.805ZM1232.59 185.151C1228.44 187.246 1224.3 189.758 1219.77 190.996C1217.03 192.501 1217.27 195.927 1217.17 198.763C1217.5 200.429 1217.41 202.814 1219.77 202.559L1229.97 197.952C1234.45 196.147 1233.5 190.846 1234.92 187.026C1234.82 185.973 1233.76 184.908 1232.59 185.151ZM1235.41 162.152L1224.4 167.824C1221.77 169.409 1218.26 168.287 1216.36 171.62C1215.51 174.224 1215.01 178.403 1217.27 180.162C1224.62 178.148 1231.97 175.544 1237.63 169.977C1238.17 167.72 1239.32 165.335 1238.47 162.881C1237.77 161.782 1236.48 162.418 1235.41 162.152ZM1245.73 147.591C1249.38 150.427 1253.29 153.043 1256.39 156.689C1256.98 159.652 1252.44 159.652 1253.07 162.476C1254.48 170.578 1250.57 176.725 1250.21 184.086C1249.15 189.399 1248.47 194.85 1248.07 200.429C1248.07 201.263 1248.32 202.814 1249.64 202.559C1251.16 201.957 1252.7 202.2 1253.89 203.416C1255.79 206.263 1259.46 208.462 1259.1 211.923C1257.82 213.242 1255.64 212.409 1254.25 213.451C1252.03 216.993 1249.15 219.771 1245.95 222.456C1245.33 223.278 1245.48 224.632 1245.73 225.419C1251.77 230.674 1258.06 235.94 1265.52 238.452C1273.95 241.288 1282.65 243.36 1290.86 246.994C1282.23 253.522 1269.9 250.906 1259.46 252.793C1253.46 253.267 1247.86 250.663 1245.33 245.212C1238.47 238.371 1234.23 229.563 1226.53 224.157C1226.64 220.558 1224.04 218.243 1221.66 215.743C1220.82 215.152 1219.89 214.388 1218.94 215.395C1216.1 220.315 1218.26 227.456 1217.17 232.734C1216.91 236.473 1215.13 240.258 1216.8 243.799C1219.07 243.915 1220.73 241.542 1222.95 240.952C1225.71 240.038 1227.84 236.924 1231.03 237.41C1232.08 239.436 1230.78 241.681 1230.08 243.568C1226.27 254.193 1214.53 261.103 1205.44 266.254C1202.23 266.532 1200.43 271.879 1196.76 269.379C1194.64 265.606 1187.77 262.863 1189.65 257.272C1191.31 255.791 1194.05 257.272 1195.82 255.999C1205.44 252.446 1202.57 241.045 1205.44 233.29C1206.24 227.456 1208 221.877 1207.33 215.395C1205.79 208.96 1208.13 202.038 1206.59 195.927C1206.49 187.385 1208.62 178.75 1204.85 170.694C1203.89 167.152 1202.11 163.101 1203.65 159.166C1211.69 162.036 1219.07 158.205 1224.99 155.057C1231.27 153.043 1236.91 149.246 1243.46 147.464L1245.73 147.591ZM1200.57 171.377C1201.64 171.829 1201.86 173.044 1201.54 173.889C1200.35 177.095 1197.03 177.975 1194.4 178.854C1188.49 177.975 1187.89 171.516 1184.91 167.72C1190.5 167.824 1195.47 169.849 1200.57 171.377ZM1181.59 151.723C1184.11 152.453 1186.57 154.351 1188.11 156.689C1187.19 161.319 1180.32 157.534 1179.24 162.731C1178.98 166.412 1180.67 171.169 1178.54 174.479C1174.71 178.148 1171.92 182.188 1171.04 187.026C1170.91 188.253 1171.92 188.577 1172.7 189.167C1174.26 189.642 1175.55 188.797 1176.39 187.385C1177.09 185.973 1176.28 183.808 1178.17 182.778C1180.44 182.419 1183.03 182.095 1185.15 182.419C1185.78 183.241 1185.88 184.549 1187.06 184.804C1189.18 185.394 1192.29 183.496 1192.96 185.973C1193.09 192.848 1182.07 193.288 1184.19 200.209C1185.06 201.853 1187.28 200.904 1188.49 200.429C1190.63 200.071 1193.56 197.952 1195.23 200.209C1195.95 206.263 1191.22 210.117 1187.41 214.018C1185.63 215.581 1182.55 215.395 1181.96 218.243C1181.96 219.956 1180.89 222.826 1182.78 223.88C1186.83 222.826 1189.57 218.335 1193.8 217.849C1195.59 217.988 1195.95 219.956 1196.5 221.183C1196.41 224.157 1198.82 226.264 1197.96 229.215C1196.76 230.06 1195.59 229.077 1194.4 229.215C1190.5 230.998 1187.19 234.331 1183.03 235.014C1181.11 236.345 1181.24 238.846 1181.59 240.616C1185.15 242.769 1188.49 237.977 1192.29 239.899C1194.98 249.598 1184.44 253.626 1178.76 258.754C1171.8 261.821 1163.93 262.979 1156.13 263.337C1153.04 263.847 1150.33 267.307 1147.23 265.513C1144.99 263.337 1143.89 260.421 1144.4 257.272C1146.05 255.999 1147.97 257.446 1149.74 257.585C1153.99 256.578 1157.53 253.754 1161.72 252.353C1165.02 250.663 1169.49 249.969 1171.41 246.3C1172.6 239.158 1172.7 231.727 1173.46 224.389C1170.46 220.685 1166.43 224.632 1163 225.106C1160.5 224.852 1156.85 229.806 1155.65 224.956C1155.44 221.785 1152.31 219.377 1153.32 215.824C1155.53 213.81 1158.82 214.018 1161.79 213.601C1166.06 210.384 1174.26 211.784 1175.21 204.805C1175.11 203.485 1174.49 202.2 1173.21 201.622C1169.05 202.2 1164.78 206.263 1161.07 201.957C1151.38 208.127 1143.68 219.898 1130.91 217.988C1129.85 216.888 1131.27 215.824 1131.83 214.759C1137.62 205.731 1146.05 197.455 1151.5 188.137C1160.41 180.498 1162.53 170.116 1171.31 162.418C1172.7 159.895 1172.95 155.427 1176.98 155.3C1179.58 153.344 1172.95 148.76 1178.54 149.582L1181.59 151.723ZM1460.28 187.616C1460.47 188.681 1459.93 189.642 1458.97 190.116C1456.2 190.475 1453.5 189.167 1451.48 191.204C1447.79 195.684 1446.75 201.622 1447.59 207.513C1451.48 213.902 1452.87 221.877 1452.21 229.702C1453.85 238.452 1450.78 246.994 1450.06 255.791C1449 257.909 1448.54 261.103 1445.69 261.937C1442.37 263.847 1437.74 263.499 1433.95 262.979C1432.06 262.284 1433.59 260.421 1433.72 259.333C1440 249.274 1441.3 237.19 1442.25 224.956C1442.96 221.183 1443.88 216.888 1442.82 212.999C1440.45 211.448 1439.4 215.743 1437.62 216.206C1430.28 222.12 1423.77 230.165 1413.81 229.702C1409.89 229.308 1405.29 229.956 1402.07 228.486C1408.93 223.173 1413.54 216.333 1420.1 212.293C1428.26 208.242 1434.29 199.11 1440.71 192.941C1443.33 188.346 1446.75 183.936 1448.21 178.75C1448.88 177.442 1450.42 178.148 1451.37 178.75L1460.28 187.616ZM1539.27 180.498C1539.91 182.778 1541.76 185.047 1540.95 187.385C1533.51 191.424 1522.61 186.783 1515.43 191.309C1513.22 192.617 1514.18 195.556 1514.41 197.455C1516.42 201.726 1520.45 205.163 1521.16 210.036C1522.61 213.902 1522.12 218.335 1522.21 222.352C1524.12 230.882 1522.21 236.924 1523.87 245.594C1522.72 252.793 1526.02 258.858 1525.08 265.942C1513.12 265.699 1501.61 267.539 1491.88 263.337C1490.81 262.284 1489.19 261.671 1488.83 260.143C1491.07 258.383 1494.52 258.499 1497.22 257.272C1501.61 255.316 1507.69 255.42 1510.05 249.598C1513.12 243.36 1510.62 234.794 1512.03 227.815C1510.5 219.771 1513.22 210.603 1509.09 203.659C1507.69 201.263 1506.68 198.392 1504.12 196.853C1499.16 196.645 1495.6 199.955 1491.21 201.043C1485.97 202.304 1480.05 202.038 1476.48 206.957C1474.72 207.513 1472.94 206.356 1472.11 204.7C1470.57 201.159 1469.98 197.235 1468.08 193.913C1468.32 192.617 1467.37 190.846 1468.89 190.325C1473.39 190.475 1476.97 191.424 1481.33 190.325C1499.47 185.394 1516.31 172.974 1536.8 177.975L1539.27 180.498ZM1521.76 153.228C1521.87 158.715 1518.65 163.599 1513.8 165.937C1508.51 167.395 1503.89 170.694 1499.01 173.194C1493.44 172.095 1486.09 179.005 1483.13 171.377C1482.42 167.604 1478.86 164.444 1479.83 160.254C1483.25 157.777 1487.74 161.203 1491.53 159.282C1500.05 155.96 1508.82 152.36 1517.99 150.635C1519.63 150.994 1521.87 150.994 1521.76 153.228ZM1455.64 152.557C1457.62 153.899 1460.64 155.427 1461.31 158.124C1462.86 162.152 1457.77 160.127 1456.32 161.654C1449.11 166.041 1447.2 176.505 1438.33 178.496C1434.91 179.78 1430.65 179.78 1426.84 179.433C1433.59 170.694 1440.71 161.909 1445.79 153.136C1446.86 151.26 1445.54 148.031 1448.28 147.198C1451.61 147.314 1452.76 151.26 1455.64 152.557ZM961.228 147.198C957.999 156.446 959.063 168.078 958.936 177.813C960.603 179.699 963.693 178.75 966.078 178.75C971.622 178.148 979.342 174.931 983.497 180.266C984.447 182.547 985.141 185.151 984.909 187.616C981.934 188.681 978.52 188.577 975.661 189.063C969.955 190.996 962.27 190.325 959.433 196.645C958.635 199.11 958.635 201.853 959.33 204.33C968.762 204.33 975.557 207.085 982.536 208.37C985.245 210.962 986.808 214.898 986.808 218.602C977.34 218.602 969.052 219.643 960.765 219.261C957.165 220.685 957.165 224.748 955.869 227.56C955.533 231.125 953.161 236.924 957.304 239.158C963.311 240.848 969.759 238.105 976.113 239.528C985.048 241.288 996.866 239.899 1000.92 249.598C1001.02 252.666 1000.16 255.42 998.532 257.712C995.106 257.712 992.132 255.536 988.555 255.316C977.906 254.483 956.876 252.041 955.429 252.226C953.913 252.423 941.667 254.112 936.307 258.754C932.742 261.103 927.661 259.9 924.12 262.064C918.297 262.736 912.001 263.951 906.318 262.4C902.418 262.62 899.35 265.513 895.808 265.838C894.245 261.37 893.748 256.485 892.845 251.774C892.22 249.853 893.516 248.545 894.615 247.133C897.301 246.068 899.222 249.378 901.839 249.598C909.292 250.594 916.307 246.913 924.12 246.67L941.284 241.288C944.977 237.885 945.474 232.202 944.409 227.248C938.576 227.132 934.154 227.456 929.964 227.815C927.083 228.752 924.583 230.674 921.619 231.125C917.973 226.982 918.205 220.801 918.078 215.743C921.619 214.759 924.964 216.773 928.854 216.078C934.409 215.002 939.618 213.37 944.688 211.09C948.298 208.127 946.886 202.686 945.903 198.994C943.183 197.952 940 198.763 937.268 198.994C932.535 199.457 928.02 201.853 923.159 201.043C920.103 198.08 919.871 194.029 917.371 190.846C914.386 191.089 914.038 194.549 911.792 195.788C905.52 201.726 896.282 201.957 888.331 203.659C887.74 198.867 891.745 196.645 892.961 193.068C896.143 189.873 900.032 187.026 902.185 183.241C908.599 176.632 914.386 169.409 916.781 161.006C917.221 159.652 916.422 157.661 918.205 157.187C922.453 157.43 924.583 162.881 928.39 164.502C929.837 165.335 931.469 165.706 932.407 167.395C927.083 173.287 918.297 177.095 919.871 185.267C924.12 187.859 929.964 188.137 934.791 187.987C937.94 185.73 942.257 185.973 945.787 184.202C947.917 182.651 947.812 180.162 948.298 177.813C946.886 168.287 950.683 156.793 944.409 148.992C945.695 146.515 949.016 146.631 951.598 145.809C954.92 147.684 959.433 142.869 961.228 147.198ZM1402.47 343.376L1420.77 343.376L1453.69 387.857L1453.85 343.376L1465.57 343.376L1465.57 401.353L1448.06 401.353L1414.37 356.05L1414.22 401.353L1402.47 401.353L1402.47 343.376ZM1367.76 378.898L1355.67 353.619L1343.61 378.898L1367.76 378.898ZM1348.43 343.376L1364.87 343.376L1394.47 401.353L1379.08 401.353L1372.35 388.366L1338.98 388.366L1332.87 401.353L1318.86 401.353L1348.43 343.376ZM1268.66 366.988L1287.2 366.988C1293.57 366.988 1297.34 365.043 1297.34 359.904C1297.34 353.619 1291.5 352.381 1284.74 352.381L1268.66 352.381L1268.66 366.988ZM1268.66 392.36L1286.68 392.36C1294.63 392.36 1300.34 390.195 1300.34 384.269C1300.34 377.602 1293.33 376.005 1287.55 376.005L1268.66 376.005L1268.66 392.36ZM1255.63 343.376L1289.8 343.376C1301.21 343.376 1311.3 346.188 1311.3 358.191C1311.3 365.437 1304.58 370.044 1297.05 370.518C1304.58 371.699 1314.32 374.766 1314.32 385.785C1314.32 392.14 1309.81 401.353 1291.08 401.353L1255.63 401.353L1255.63 343.376ZM1197.81 362.057C1197.45 353.943 1189.1 350.818 1182.65 350.818C1170.43 350.818 1159.1 356.976 1159.1 372.116C1159.1 382.88 1164.88 393.448 1182.74 393.448C1187.81 393.448 1192.22 392.765 1198.65 390.785L1198.65 379.685L1180.08 379.685L1180.08 370.68L1211.32 370.68L1211.32 397.776C1203.03 401.318 1190.35 402.881 1181.9 402.881C1160.32 402.881 1145.58 393.251 1145.58 372.22C1145.58 354.858 1157.89 341.825 1180.71 341.825C1198.25 341.825 1211.32 348.457 1211.32 362.057L1197.81 362.057ZM1070.48 343.376L1088.8 343.376L1121.68 387.857L1121.86 343.376L1133.56 343.376L1133.56 401.353L1116.07 401.353L1082.37 356.05L1082.22 401.353L1070.48 401.353L1070.48 343.376ZM1056.7 352.832L1023.73 352.832L1023.73 366.513L1055.5 366.513L1055.5 376.005L1023.73 376.005L1023.73 391.908L1058.13 391.908L1058.13 401.353L1010.71 401.353L1010.71 343.376L1056.7 343.376L1056.7 352.832ZM955.452 383.192C956.181 390.137 961.263 394.327 971.517 394.327C982.306 394.327 986.24 389.616 986.24 385.496C986.24 381.294 983.266 379.373 976.818 378.47L964.839 376.907C949.514 374.766 944.456 368.238 944.456 360.645C944.456 347.172 956.945 341.825 970.452 341.825C987.444 341.825 996.611 349.001 996.993 360.703L983.971 360.703C983.497 353.145 978.3 350.39 969.284 350.39C963.913 350.39 957.941 353.041 957.941 358.388C957.941 362.867 961.263 364.743 966.39 365.437L983.034 367.775C996.866 369.72 999.736 377.81 999.736 383.852C999.736 395.843 989.436 402.881 969.759 402.881C952.987 402.881 942.431 395.693 942.431 383.192L955.452 383.192ZM888.388 362.057C887.995 353.943 879.65 350.818 873.203 350.818C861.003 350.818 849.649 356.976 849.649 372.116C849.649 382.88 855.436 393.448 873.307 393.448C878.33 393.448 882.786 392.765 889.234 390.785L889.234 379.685L870.656 379.685L870.656 370.68L901.908 370.68L901.908 397.776C893.632 401.318 880.934 402.881 872.474 402.881C850.84 402.881 836.153 393.251 836.153 372.22C836.153 354.858 848.445 341.825 871.281 341.825C888.805 341.825 901.908 348.457 901.908 362.057L888.388 362.057ZM761.045 343.376L779.356 343.376L812.24 387.857L812.389 343.376L824.127 343.376L824.127 401.353L806.591 401.353L772.955 356.05L772.805 401.353L761.045 401.353L761.045 343.376ZM726.714 378.898L714.619 353.619L702.594 378.898L726.714 378.898ZM707.386 343.376L723.786 343.376L753.464 401.353L738 401.353L731.333 388.366L697.929 388.366L691.805 401.353L677.812 401.353L707.386 343.376ZM612.462 343.376L625.46 343.376L625.46 366.988L657.012 366.988L657.012 343.376L670.045 343.376L670.045 401.353L657.012 401.353L657.012 376.468L625.46 376.468L625.46 401.353L612.462 401.353L612.462 343.376ZM1494.01 343.376L1494.01 368.643L1518.52 343.376L1534.48 343.376L1508.96 369.465L1537.57 401.353L1520.36 401.353L1494.01 370.842L1494.01 401.353L1480.96 401.353L1480.96 343.376L1494.01 343.376ZM613.538 301.858L1534.71 301.858L1534.71 309.214L613.538 309.214L613.538 301.858Z" fill="#000000" fill-rule="evenodd" opacity="1" stroke="none" vectornator:layerName="path"/>
<path d="M346.57 198.138L336.083 198.138C334.15 198.138 332.599 196.563 332.599 194.642C332.599 192.64 334.15 191.089 336.083 191.089L346.558 191.089L346.57 159.34L321.522 159.34L327.622 203.832L292.551 203.832C292.551 203.832 305.747 289.936 270.201 361.779C291.405 361.86 316.962 361.779 316.962 361.779C341.466 295.631 338.734 287.76 338.734 287.76L346.558 287.76L346.57 258.187L338.653 258.187C336.639 258.187 335.065 256.578 335.065 254.691C335.065 252.677 336.639 251.08 338.653 251.08L346.558 251.08L346.57 198.138ZM324.648 294.276L327.183 306.441C327.645 308.177 326.626 310.076 324.774 310.492C323.05 311.002 321.245 309.96 320.759 308.154L317.876 297.645L314.763 297.645L311.903 308.154C311.406 309.96 309.647 311.002 307.876 310.492C306.024 310.076 305.006 308.177 305.468 306.441L308.605 294.878C305.619 292.031 304.404 289.021 304.415 285.827L304.415 237.885C304.415 231.368 309.832 225.998 316.453 226.021C322.947 226.056 328.213 231.415 328.213 237.966L328.213 285.896C328.213 289.079 326.975 292.031 324.648 294.276ZM311.07 257.944L311.07 285.827C311.07 287.262 311.579 288.616 312.541 289.589C313.57 290.561 314.879 291.105 316.187 291.105C317.621 291.14 318.953 290.526 320.053 289.508C321.002 288.535 321.569 287.239 321.569 285.896L321.569 257.944L311.07 257.944ZM321.569 251.288L321.569 237.931C321.569 234.991 319.266 232.653 316.43 232.653C313.479 232.653 311.082 234.991 311.07 237.885L311.07 251.288L321.569 251.288ZM349.903 413.587C428.912 413.587 493.012 349.476 493.012 270.467C493.012 191.413 428.912 127.336 349.903 127.336C270.79 127.336 206.749 191.413 206.749 270.467C206.749 349.476 270.79 413.587 349.903 413.587ZM213.311 270.433C213.311 195.012 274.414 133.887 349.891 133.887C425.265 133.887 486.414 195.012 486.414 270.433C486.414 345.853 425.265 407.013 349.891 407.013C274.414 407.013 213.311 345.853 213.311 270.433ZM353.654 198.138L363.862 198.138C365.83 198.138 367.369 196.563 367.369 194.642C367.369 192.64 365.83 191.089 363.862 191.089L353.654 191.089L353.654 159.34L378.482 159.34L372.415 203.832L407.591 203.832C407.591 203.832 394.245 289.936 429.838 361.779C408.599 361.86 383.007 361.779 383.007 361.779C358.399 295.631 361.188 287.76 361.188 287.76L353.654 287.76L353.654 258.187L361.373 258.187C363.353 258.187 364.927 256.578 364.927 254.691C364.927 252.677 363.353 251.08 361.373 251.08L354.093 251.08L353.654 198.138ZM398.262 254.575L383.898 226.623L369.615 254.575L380.657 276.093L380.657 307.251C380.657 309.115 382.139 310.573 383.921 310.573C385.773 310.573 387.289 309.115 387.289 307.251L387.289 276.023L398.262 254.575ZM383.898 268.245L376.895 254.575L383.898 240.906L390.935 254.575L383.898 268.245" fill="#ffffff" fill-rule="evenodd" opacity="1" stroke="none" vectornator:layerName="path"/>
</g>
<g opacity="1" vectornator:layerName="undraw_finance_re_gnv2.svg">
<path d="M402.257 644.443C365.596 644.443 335.876 614.724 335.876 578.063C335.876 541.402 365.596 511.683 402.257 511.683C438.917 511.683 468.637 541.402 468.637 578.063C468.595 614.706 438.9 644.402 402.257 644.443ZM402.257 514.449C367.123 514.449 338.642 542.93 338.642 578.063C338.642 613.196 367.123 641.677 402.257 641.677C437.39 641.677 465.871 613.196 465.871 578.063C465.831 542.946 437.373 514.488 402.257 514.449Z" fill="#f2f2f2" fill-rule="nonzero" opacity="1" stroke="none" vectornator:layerName="path"/>
<path d="M853.089 605.721C834.758 605.721 819.899 590.862 819.899 572.531C819.899 554.201 834.758 539.341 853.089 539.341C871.419 539.341 886.279 554.201 886.279 572.531C886.258 590.853 871.41 605.7 853.089 605.721ZM853.089 542.107C836.286 542.107 822.664 555.728 822.664 572.531C822.664 589.334 836.286 602.955 853.089 602.955C869.892 602.955 883.513 589.334 883.513 572.531C883.494 555.736 869.884 542.126 853.089 542.107Z" fill="#f2f2f2" fill-rule="nonzero" opacity="1" stroke="none" vectornator:layerName="path"/>
<path d="M1086.8 767.523C1066.18 767.523 1049.46 750.806 1049.46 730.184C1049.46 709.562 1066.18 692.845 1086.8 692.845C1107.42 692.845 1124.14 709.562 1124.14 730.184C1124.12 750.796 1107.41 767.5 1086.8 767.523ZM1086.8 695.611C1067.71 695.611 1052.23 711.09 1052.23 730.184C1052.23 749.278 1067.71 764.757 1086.8 764.757C1105.9 764.757 1121.38 749.278 1121.38 730.184C1121.35 711.099 1105.89 695.633 1086.8 695.611Z" fill="#f2f2f2" fill-rule="nonzero" opacity="1" stroke="none" vectornator:layerName="path"/>
<path d="M1389.74 1145.06L1078.58 1145.06C1077.82 1145.06 1077.2 1144.44 1077.2 1143.68C1077.2 1142.91 1077.82 1142.29 1078.58 1142.29L1389.74 1142.29C1390.5 1142.29 1391.12 1142.91 1391.12 1143.68C1391.12 1144.44 1390.5 1145.06 1389.74 1145.06Z" fill="#cccccc" fill-rule="nonzero" opacity="1" stroke="none" vectornator:layerName="path"/>
<path d="M1188.25 689.645C1188.25 670.886 1203.45 655.679 1222.21 655.679C1240.97 655.679 1256.18 670.886 1256.18 689.645C1256.18 708.404 1240.97 723.611 1222.21 723.611C1203.45 723.611 1188.25 708.404 1188.25 689.645Z" fill="#ffb8b8" fill-rule="nonzero" opacity="1" stroke="none" vectornator:layerName="circle"/>
<path d="M1225.74 1092.98L1209.68 1098.44L1181.01 1039.11L1204.71 1031.06L1225.74 1092.98Z" fill="#ffb8b8" fill-rule="nonzero" opacity="1" stroke="none" vectornator:layerName="polygon"/>
<path d="M1196.66 1097.74L1227.62 1087.23L1227.62 1087.23L1234.24 1106.72L1234.24 1106.72L1183.79 1123.86L1183.79 1123.86L1183.79 1123.86C1180.13 1113.09 1185.89 1101.4 1196.66 1097.74Z" fill="#2f2e41" fill-rule="nonzero" opacity="1" stroke="none" vectornator:layerName="path"/>
<path d="M1262.01 1126.49L1245.08 1127.35L1233.74 1062.44L1258.73 1061.18L1262.01 1126.49Z" fill="#ffb8b8" fill-rule="nonzero" opacity="1" stroke="none" vectornator:layerName="polygon"/>
<path d="M1232.74 1123.11L1265.4 1121.47L1265.4 1121.47L1266.43 1142.04L1266.43 1142.04L1213.21 1144.71L1213.21 1144.71L1213.21 1144.71C1212.64 1133.35 1221.38 1123.69 1232.74 1123.11Z" fill="#2f2e41" fill-rule="nonzero" opacity="1" stroke="none" vectornator:layerName="path"/>
<path d="M1161.24 910.835C1164.32 908.098 1166.02 904.141 1165.9 900.027C1165.77 895.913 1163.83 892.066 1160.6 889.521L1176.74 842.814L1151.86 849.172L1140.34 892.551C1136.34 898.396 1137.34 906.312 1142.67 910.976C1148 915.641 1155.98 915.58 1161.24 910.835Z" fill="#ffb8b8" fill-rule="nonzero" opacity="1" stroke="none" vectornator:layerName="path"/>
<path d="M1260.43 1106.92C1260.21 1106.92 1259.99 1106.91 1259.77 1106.89L1236.79 1104.46C1233.88 1104.16 1231.57 1101.87 1231.26 1098.96L1213.49 940.603L1200.64 983.937L1224.61 1069.1C1225.1 1070.86 1224.8 1072.74 1223.78 1074.25C1222.77 1075.77 1221.14 1076.76 1219.33 1076.97L1196.03 1079.65C1192.96 1079.99 1190.11 1078.04 1189.3 1075.06L1163.84 979.222C1163.63 978.434 1163.58 977.613 1163.69 976.805L1175.13 890.789L1260.48 897.632L1266.65 1100.51C1266.7 1102.19 1266.07 1103.83 1264.9 1105.03C1263.72 1106.24 1262.11 1106.92 1260.43 1106.92Z" fill="#2f2e41" fill-rule="nonzero" opacity="1" stroke="none" vectornator:layerName="path"/>
<path d="M1230.93 912.341C1202.33 912.341 1169.96 901.293 1168 900.614L1167.43 900.418L1199.69 734.904L1200.28 734.928C1213.07 735.447 1247.95 735.713 1248.3 735.716L1248.93 735.721L1262.37 881.783L1264.78 903.147L1264.48 903.385C1256.26 910.035 1243.99 912.341 1230.93 912.341Z" fill="#da3832" fill-rule="nonzero" opacity="1" stroke="none" vectornator:layerName="path"/>
<path d="M1179.27 898.037L1159.09 889.91L1169.38 765.525C1169.88 759.314 1173.17 753.665 1178.33 750.17L1188.95 742.944L1188.95 742.944C1188.34 740.872 1188.76 738.633 1190.08 736.925C1191.4 735.217 1193.46 734.246 1195.62 734.315L1198.66 734.413C1199.85 733.616 1201.4 733.627 1202.57 734.441C1203.74 735.256 1204.29 736.706 1203.96 738.093L1203.29 751.271L1179.27 898.037Z" fill="#2f2e41" fill-rule="nonzero" opacity="1" stroke="none" vectornator:layerName="path"/>
<path d="M1169.09 875.738L1142.75 874.628L1151.28 819.737L1158.35 768.087C1158.63 764.329 1160.62 760.907 1163.74 758.793C1166.85 756.679 1170.77 756.106 1174.36 757.237L1174.36 757.237C1180.07 759.027 1183.66 764.649 1182.9 770.578L1175.74 826.541L1169.09 875.738Z" fill="#2f2e41" fill-rule="nonzero" opacity="1" stroke="none" vectornator:layerName="path"/>
<path d="M1210.8 899.939L1210.62 899.385C1210.5 899.005 1198.63 860.923 1218.49 815.48L1228.45 765.936L1236.97 734.827C1237.29 733.7 1238.13 732.792 1239.22 732.376C1240.52 731.926 1241.96 732.296 1242.89 733.317L1242.89 733.317C1248.82 731.575 1255.2 732.213 1260.67 735.095L1272.62 741.393C1278.09 744.273 1280.92 750.482 1279.51 756.498L1263.17 826.229L1271.12 891.361L1210.8 899.939Z" fill="#2f2e41" fill-rule="nonzero" opacity="1" stroke="none" vectornator:layerName="path"/>
<path d="M1228.2 873.092C1232.29 873.536 1236.37 872.145 1239.34 869.294C1242.3 866.442 1243.86 862.423 1243.57 858.317L1280.58 830.906L1267.64 824.774L1227.74 845.327C1220.72 846.278 1215.52 852.329 1215.64 859.412C1215.75 866.496 1221.15 872.373 1228.2 873.092Z" fill="#ffb8b8" fill-rule="nonzero" opacity="1" stroke="none" vectornator:layerName="path"/>
<path d="M1251.4 860.822L1238.9 837.493L1269.72 817.209L1254.68 763.261C1253.46 758.895 1254.12 754.219 1256.49 750.354C1258.85 746.49 1262.72 743.785 1267.17 742.889L1267.17 742.889C1275.2 741.288 1283.18 745.877 1285.84 753.626L1306.13 813.279C1306.99 815.799 1306.15 818.585 1304.04 820.211L1251.4 860.822Z" fill="#2f2e41" fill-rule="nonzero" opacity="1" stroke="none" vectornator:layerName="path"/>
<path d="M1224.62 696.849C1220.55 697.379 1217.47 693.213 1216.05 689.362C1214.63 685.511 1213.54 681.028 1210 678.948C1205.16 676.106 1198.98 679.524 1193.44 678.586C1187.2 677.527 1183.14 670.908 1182.82 664.581C1182.5 658.254 1185.02 652.169 1187.49 646.335L1188.35 653.585C1188.12 648.588 1190.5 643.829 1194.63 641.018L1193.52 651.656C1194 648.692 1195.64 646.04 1198.08 644.287C1200.51 642.534 1203.55 641.824 1206.51 642.314L1206.34 648.652C1213.55 647.794 1220.83 646.935 1228.06 647.589C1235.3 648.242 1242.58 650.532 1248.07 655.297C1256.27 662.424 1259.27 674.161 1258.26 684.982C1257.26 695.802 1252.79 705.967 1248.13 715.786C1246.96 718.257 1245.34 721.045 1242.63 721.36C1240.19 721.642 1237.95 719.602 1237.19 717.266C1236.61 714.868 1236.63 712.363 1237.26 709.976C1237.95 706.329 1238.81 702.601 1238.17 698.947C1237.52 695.292 1234.89 691.681 1231.21 691.233C1227.52 690.785 1223.75 694.996 1225.53 698.257L1224.62 696.849Z" fill="#2f2e41" fill-rule="nonzero" opacity="1" stroke="none" vectornator:layerName="path"/>
<path d="M780.223 1069.8L767.001 1064.23L757.931 997.95L637.147 997.95L627.315 1063.96L615.486 1069.87C614.321 1070.46 613.71 1071.76 614.009 1073.03C614.308 1074.3 615.44 1075.2 616.743 1075.2L779.133 1075.2C780.47 1075.2 781.622 1074.25 781.886 1072.94C782.151 1071.63 781.455 1070.32 780.223 1069.8Z" fill="#e6e6e6" fill-rule="nonzero" opacity="1" stroke="none" vectornator:layerName="path"/>
<path d="M994.864 1006.77L401.539 1006.77C395.057 1006.75 389.81 1001.5 389.81 995.013L389.81 911.347L1006.59 911.347L1006.59 995.013C1006.59 1001.5 1001.35 1006.75 994.864 1006.77Z" fill="#cccccc" fill-rule="nonzero" opacity="1" stroke="none" vectornator:layerName="path"/>
<path d="M1007.21 950.89L389.269 950.89L389.269 592.898C389.278 585.075 395.617 578.736 403.44 578.727L993.042 578.727C1000.86 578.736 1007.2 585.075 1007.21 592.898L1007.21 950.89Z" fill="#3f3d56" fill-rule="nonzero" opacity="1" stroke="none" vectornator:layerName="path"/>
<path d="M970.306 924.906L426.176 924.906C420.146 924.9 415.258 920.013 415.252 913.982L415.252 615.635C415.258 609.604 420.145 604.717 426.176 604.71L970.306 604.71C976.336 604.717 981.224 609.604 981.23 615.635L981.23 913.982C981.224 920.013 976.336 924.9 970.306 924.906Z" fill="#ffffff" fill-rule="nonzero" opacity="1" stroke="none" vectornator:layerName="path"/>
<path d="M965.184 1075.89L438.291 1075.89C437.528 1075.89 436.908 1075.27 436.908 1074.5C436.908 1073.74 437.528 1073.12 438.291 1073.12L965.184 1073.12C965.948 1073.12 966.567 1073.74 966.567 1074.5C966.567 1075.27 965.948 1075.89 965.184 1075.89Z" fill="#cccccc" fill-rule="nonzero" opacity="1" stroke="none" vectornator:layerName="path"/>
<path d="M919.187 887.837L477.295 887.837C476.531 887.837 475.912 887.218 475.912 886.454L475.912 674.655C475.912 673.892 476.531 673.272 477.295 673.272C478.059 673.272 478.678 673.892 478.678 674.655L478.678 885.071L919.187 885.071C919.951 885.071 920.57 885.69 920.57 886.454C920.57 887.218 919.951 887.837 919.187 887.837Z" fill="#3f3d56" fill-rule="nonzero" opacity="1" stroke="none" vectornator:layerName="path"/>
<path d="M571.708 872.625L531.516 872.625C529.25 872.622 527.414 870.786 527.411 868.52L527.411 813.115C527.414 810.849 529.25 809.013 531.516 809.011L571.708 809.011C573.974 809.013 575.81 810.849 575.813 813.115L575.813 868.52C575.81 870.786 573.974 872.622 571.708 872.625Z" fill="#da3832" fill-rule="nonzero" opacity="1" stroke="none" vectornator:layerName="path"/>
<path d="M645.003 872.625L604.811 872.625C602.545 872.622 600.708 870.786 600.706 868.52L600.706 760.564C600.708 758.298 602.545 756.462 604.811 756.46L645.003 756.46C647.269 756.462 649.105 758.298 649.108 760.564L649.108 868.52C649.105 870.786 647.269 872.622 645.003 872.625Z" fill="#da3832" fill-rule="nonzero" opacity="1" stroke="none" vectornator:layerName="path"/>
<path d="M718.297 872.625L678.106 872.625C675.84 872.622 674.003 870.786 674 868.52L674 813.115C674.003 810.849 675.84 809.013 678.106 809.011L718.297 809.011C720.564 809.013 722.4 810.849 722.403 813.115L722.403 868.52C722.4 870.786 720.564 872.622 718.297 872.625Z" fill="#da3832" fill-rule="nonzero" opacity="1" stroke="none" vectornator:layerName="path"/>
<path d="M791.592 872.625L751.4 872.625C749.186 872.673 747.35 870.92 747.295 868.706L747.295 739.635C747.35 737.421 749.186 735.668 751.4 735.716L791.592 735.716C793.807 735.668 795.642 737.421 795.697 739.635L795.697 868.706C795.642 870.92 793.807 872.673 791.592 872.625Z" fill="#da3832" fill-rule="nonzero" opacity="1" stroke="none" vectornator:layerName="path"/>
<path d="M864.887 872.625L824.695 872.625C822.429 872.622 820.593 870.786 820.59 868.52L820.59 702.482C820.593 700.216 822.429 698.379 824.695 698.377L864.887 698.377C867.153 698.379 868.99 700.216 868.992 702.482L868.992 868.52C868.99 870.786 867.153 872.622 864.887 872.625Z" fill="#da3832" fill-rule="nonzero" opacity="1" stroke="none" vectornator:layerName="path"/>
<path d="M543.315 784.118C543.315 779.535 547.029 775.821 551.612 775.821C556.195 775.821 559.91 779.535 559.91 784.118C559.91 788.701 556.195 792.416 551.612 792.416C547.029 792.416 543.315 788.701 543.315 784.118Z" fill="#3f3d56" fill-rule="nonzero" opacity="1" stroke="none" vectornator:layerName="circle"/>
<path d="M616.609 730.184C616.609 725.602 620.324 721.887 624.907 721.887C629.489 721.887 633.204 725.602 633.204 730.184C633.204 734.767 629.489 738.482 624.907 738.482C620.324 738.482 616.609 734.767 616.609 730.184Z" fill="#3f3d56" fill-rule="nonzero" opacity="1" stroke="none" vectornator:layerName="circle"/>
<path d="M689.904 784.118C689.904 779.535 693.619 775.821 698.202 775.821C702.784 775.821 706.499 779.535 706.499 784.118C706.499 788.701 702.784 792.416 698.202 792.416C693.619 792.416 689.904 788.701 689.904 784.118Z" fill="#3f3d56" fill-rule="nonzero" opacity="1" stroke="none" vectornator:layerName="circle"/>
<path d="M763.199 703.909C763.199 699.326 766.914 695.611 771.496 695.611C776.079 695.611 779.794 699.326 779.794 703.909C779.794 708.491 776.079 712.206 771.496 712.206C766.914 712.206 763.199 708.491 763.199 703.909Z" fill="#3f3d56" fill-rule="nonzero" opacity="1" stroke="none" vectornator:layerName="circle"/>
<path d="M836.494 673.484C836.494 668.902 840.209 665.187 844.791 665.187C849.374 665.187 853.089 668.902 853.089 673.484C853.089 678.067 849.374 681.782 844.791 681.782C840.209 681.782 836.494 678.067 836.494 673.484Z" fill="#3f3d56" fill-rule="nonzero" opacity="1" stroke="none" vectornator:layerName="circle"/>
<path d="M698.376 785.977L624.907 730.948L552.442 785.224L550.782 783.012L624.907 727.492L698.027 782.259L770.687 702.744L770.979 702.625L844.274 673.094L845.308 675.66L772.305 705.073L698.376 785.977Z" fill="#3f3d56" fill-rule="nonzero" opacity="1" stroke="none" vectornator:layerName="polygon"/>
</g>
</g>
</svg>
