<svg width="1686" height="323" viewBox="0 0 1686 323" fill="none" xmlns="http://www.w3.org/2000/svg">
<g clip-path="url(#clip0_1139_263)">
<mask id="mask0_1139_263" style="mask-type:luminance" maskUnits="userSpaceOnUse" x="0" y="0" width="1686" height="323">
<path d="M1686 0H0V323H1686V0Z" fill="white"/>
</mask>
<g mask="url(#mask0_1139_263)">
<path d="M161.568 0C72.208 0 0 72.4639 0 161.499C0 250.818 72.489 323.003 161.568 323.003C250.929 323.003 323.428 250.537 323.428 161.499C323.428 72.4639 250.929 0 161.568 0Z" fill="#D00A2C"/>
<path d="M274.532 233.404C268.35 236.493 256.548 241.549 246.432 241.549C241.373 241.549 236.596 240.145 231.819 236.774C205.686 219.36 214.678 198.575 232.381 166.274C239.968 152.511 247.837 138.468 251.209 123.862C254.862 108.133 258.234 85.3819 244.746 67.9698C238.282 59.8244 228.728 53.6462 215.802 49.433C202.594 44.939 185.453 42.692 164.939 42.4111H158.195C137.682 42.692 120.54 44.939 107.333 49.433C94.4067 53.6462 84.8525 59.8244 78.3893 67.9698C64.9009 85.3819 68.2731 108.133 71.9261 123.862C75.2982 138.468 83.1665 152.511 90.7537 166.274C108.738 198.575 117.449 219.36 91.3156 236.774C86.5385 239.864 81.7614 241.549 76.7033 241.549C66.5871 241.549 54.7846 236.493 48.6133 233.404L50.0184 236.212C62.9339 255.593 79.5133 265.985 98.0597 265.985C106.209 265.985 114.639 264.019 123.35 260.087C132.624 255.874 140.773 248.571 146.393 239.021C152.013 229.471 153.98 219.079 152.575 210.091C150.608 201.946 146.393 190.991 141.335 178.071C128.409 144.647 110.705 99.1449 126.16 76.9556C132.624 67.6889 144.145 62.914 161.567 62.914C178.99 62.914 190.511 67.6889 196.974 76.9556C212.149 99.1449 194.445 144.647 181.8 178.071C176.742 190.991 172.527 201.946 170.56 210.091C168.874 219.36 171.122 229.752 176.742 239.302C182.362 248.852 190.511 256.436 199.784 260.368C208.496 264.3 217.207 266.266 225.075 266.266C243.621 266.266 260.201 255.874 273.127 236.493L274.532 233.404Z" fill="white"/>
<path d="M430.492 43.8154H464.494V264.019H430.492V43.8154ZM631.402 264.019H597.4V249.694C589.25 259.244 574.638 267.39 556.935 267.39C522.652 267.39 504.105 244.639 504.105 211.495V113.47H538.107V205.597C538.107 224.135 546.818 236.493 566.208 236.493C580.82 236.493 593.746 227.224 597.4 212.338V113.47H631.402V264.019ZM673.553 43.8154H707.554V264.019H673.553V43.8154ZM874.754 264.019H840.752V249.694C832.603 259.244 817.99 267.39 800.287 267.39C766.004 267.39 747.458 244.639 747.458 211.495V113.47H781.459V205.597C781.459 224.135 790.171 236.493 809.56 236.493C824.172 236.493 837.099 227.224 840.752 212.338V113.47H874.754V264.019ZM916.613 43.8154H950.615V264.019H916.613V43.8154ZM1116.69 217.394C1111.63 247.167 1089.43 267.671 1053.18 267.671C1011.03 267.671 982.088 235.931 982.088 189.306C982.088 144.366 1011.59 110.38 1052.62 110.38C1095.05 110.38 1118.1 140.434 1118.1 184.531V196.609H1015.25C1016.37 223.011 1031.55 239.021 1053.18 239.021C1069.48 239.021 1081.56 231.999 1085.5 217.394H1116.69ZM1016.37 171.892H1084.66C1084.37 153.635 1073.7 138.748 1053.18 138.748C1034.36 138.748 1020.59 150.264 1016.37 171.892ZM1305.25 110.38C1336.16 110.38 1354.13 132.007 1354.13 166.274V264.3H1320.14V171.892C1320.14 153.354 1311.99 140.995 1295.41 140.995C1283.33 140.995 1271.81 148.579 1268.72 163.465V264.581H1234.71V172.173C1234.71 153.635 1226.56 141.276 1209.98 141.276C1197.9 141.276 1186.38 148.86 1183.29 163.746V264.862H1149.29V114.312H1183.29V126.952C1190.31 117.402 1204.08 110.942 1220.94 110.942C1237.8 110.942 1252.7 119.368 1260.57 130.884C1270.96 117.964 1285.01 110.38 1305.25 110.38ZM1455.01 267.39C1412.58 267.39 1383.36 234.808 1383.36 188.744C1383.36 142.681 1412.58 110.099 1455.01 110.099C1497.44 110.099 1526.67 142.681 1526.67 188.744C1526.67 235.089 1497.44 267.39 1455.01 267.39ZM1455.01 139.31C1430.56 139.31 1417.36 160.376 1417.36 188.744C1417.36 217.113 1430.56 238.178 1455.01 238.178C1479.46 238.178 1492.67 217.113 1492.67 188.744C1492.67 160.376 1479.46 139.31 1455.01 139.31ZM1558.14 113.75H1592.14V128.075C1600.29 118.525 1615.19 110.38 1632.89 110.38C1667.17 110.38 1686 133.131 1686 166.274V264.3H1652V171.892C1652 153.354 1642.72 140.995 1623.62 140.995C1609 140.995 1595.8 150.264 1592.14 165.151V264.019H1558.14V113.75Z" fill="black"/>
</g>
</g>
<defs>
<clipPath id="clip0_1139_263">
<rect width="1686" height="323" fill="white"/>
</clipPath>
</defs>
</svg>
