<?xml version="1.0" encoding="UTF-8" standalone="no"?>
<!DOCTYPE svg PUBLIC "-//W3C//DTD SVG 1.1//EN" "http://www.w3.org/Graphics/SVG/1.1/DTD/svg11.dtd">
<!-- Created with Vectornator (http://vectornator.io/) -->
<svg height="100%" stroke-miterlimit="10" style="fill-rule:nonzero;clip-rule:evenodd;stroke-linecap:round;stroke-linejoin:round;" version="1.1" viewBox="0 0 1727 1221.3" width="100%" xml:space="preserve" xmlns="http://www.w3.org/2000/svg" xmlns:vectornator="http://vectornator.io" xmlns:xlink="http://www.w3.org/1999/xlink">
<defs/>
<g id="Layer-1" vectornator:layerName="Layer 1">
<g opacity="1" vectornator:layerName="undraw_fitness_stats_sht6.svg">
<path d="M1100.98 1087.34L1147.44 1018.26L1101.08 1094.78L1101.17 1102.55C1097.78 1102.58 1094.42 1102.52 1091.1 1102.38L1093.4 1002.45L1093.34 1001.68L1093.42 1001.53L1093.64 992.088L1042.77 918.221L1093.58 985.021L1093.76 987.017L1095.5 911.515L1051.56 834.932L1095.63 898.252L1095.17 741.832L1095.17 741.312L1095.19 741.824L1098.1 865.103L1138.15 815.027L1098.23 875.724L1099.11 943.258L1135.96 877.347L1099.24 953.187L1099.73 990.739L1153.33 898.926L1099.89 1003.84L1100.98 1087.34Z" fill="#e6e6e6" fill-rule="nonzero" opacity="1" stroke="none" vectornator:layerName="path"/>
<path d="M1257.33 1089.52L1303.79 1020.43L1257.43 1096.95L1257.52 1104.73C1254.13 1104.75 1250.77 1104.7 1247.45 1104.56L1249.75 1004.63L1249.69 1003.86L1249.77 1003.71L1249.99 994.264L1199.12 920.397L1249.93 987.197L1250.11 989.193L1251.85 913.691L1207.91 837.108L1251.98 900.428L1251.52 744.009L1251.52 743.488L1251.54 744L1254.45 867.28L1294.5 817.203L1254.58 877.9L1255.46 945.434L1292.31 879.523L1255.59 955.363L1256.08 992.915L1309.67 901.102L1256.24 1006.02L1257.33 1089.52Z" fill="#e6e6e6" fill-rule="nonzero" opacity="1" stroke="none" vectornator:layerName="path"/>
<path d="M509.325 538.817L787.333 538.817L787.333 538.817L787.333 914.856L787.333 914.856L509.325 914.856L509.325 914.856L509.325 538.817L509.325 538.817Z" fill="#e6e6e6" fill-rule="nonzero" opacity="1" stroke="none" vectornator:layerName="rect"/>
<path d="M519.122 552.068L777.537 552.068L777.537 552.068L777.537 901.605L777.537 901.605L519.122 901.605L519.122 901.605L519.122 552.068L519.122 552.068Z" fill="#ffffff" fill-rule="nonzero" opacity="1" stroke="none" vectornator:layerName="rect"/>
<path d="M743.57 613.375L553.916 613.375C550.718 613.371 548.127 610.777 548.127 607.578C548.127 604.379 550.718 601.785 553.916 601.781L743.57 601.781C745.643 601.778 747.56 602.883 748.597 604.677C749.634 606.472 749.634 608.684 748.597 610.479C747.56 612.274 745.643 613.378 743.57 613.375Z" fill="#e6e6e6" fill-rule="nonzero" opacity="1" stroke="none" vectornator:layerName="path"/>
<path d="M743.57 673.005L553.916 673.005C550.718 673 548.127 670.406 548.127 667.207C548.127 664.008 550.718 661.414 553.916 661.41L743.57 661.41C745.643 661.407 747.56 662.512 748.597 664.306C749.634 666.101 749.634 668.313 748.597 670.108C747.56 671.903 745.643 673.007 743.57 673.005Z" fill="#e6e6e6" fill-rule="nonzero" opacity="1" stroke="none" vectornator:layerName="path"/>
<path d="M743.57 732.634L553.916 732.634C550.718 732.629 548.127 730.035 548.127 726.836C548.127 723.638 550.718 721.043 553.916 721.039L743.57 721.039C745.643 721.036 747.56 722.141 748.597 723.936C749.634 725.73 749.634 727.942 748.597 729.737C747.56 731.532 745.643 732.636 743.57 732.634Z" fill="#e6e6e6" fill-rule="nonzero" opacity="1" stroke="none" vectornator:layerName="path"/>
<path d="M743.57 792.263L553.916 792.263C550.718 792.259 548.127 789.664 548.127 786.465C548.127 783.267 550.718 780.672 553.916 780.668L743.57 780.668C745.643 780.665 747.56 781.77 748.597 783.565C749.634 785.359 749.634 787.571 748.597 789.366C747.56 791.161 745.643 792.265 743.57 792.263Z" fill="#e6e6e6" fill-rule="nonzero" opacity="1" stroke="none" vectornator:layerName="path"/>
<path d="M743.57 851.892L553.916 851.892C550.718 851.888 548.127 849.293 548.127 846.095C548.127 842.896 550.718 840.301 553.916 840.297L743.57 840.297C745.643 840.295 747.56 841.399 748.597 843.194C749.634 844.989 749.634 847.201 748.597 848.995C747.56 850.79 745.643 851.895 743.57 851.892Z" fill="#e6e6e6" fill-rule="nonzero" opacity="1" stroke="none" vectornator:layerName="path"/>
<path d="M710.443 613.375L553.088 613.375C551.015 613.378 549.099 612.274 548.061 610.479C547.024 608.684 547.024 606.472 548.061 604.677C549.099 602.883 551.015 601.778 553.088 601.781L710.443 601.781C713.642 601.785 716.232 604.379 716.232 607.578C716.232 610.777 713.642 613.371 710.443 613.375Z" fill="#bf2b34" fill-rule="nonzero" opacity="1" stroke="none" vectornator:layerName="path"/>
<path d="M661.58 673.005L553.088 673.005C549.886 673.005 547.291 670.409 547.291 667.207C547.291 664.005 549.886 661.41 553.088 661.41L661.58 661.41C663.653 661.407 665.57 662.512 666.607 664.306C667.644 666.101 667.644 668.313 666.607 670.108C665.57 671.903 663.653 673.007 661.58 673.005Z" fill="#bf2b34" fill-rule="nonzero" opacity="1" stroke="none" vectornator:layerName="path"/>
<path d="M601.951 732.634L553.088 732.634C551.015 732.636 549.099 731.532 548.061 729.737C547.024 727.942 547.024 725.73 548.061 723.936C549.099 722.141 551.015 721.036 553.088 721.039L601.951 721.039C605.15 721.043 607.741 723.638 607.741 726.836C607.741 730.035 605.15 732.629 601.951 732.634Z" fill="#bf2b34" fill-rule="nonzero" opacity="1" stroke="none" vectornator:layerName="path"/>
<path d="M725.35 792.263L553.088 792.263C549.886 792.263 547.291 789.667 547.291 786.465C547.291 783.264 549.886 780.668 553.088 780.668L725.35 780.668C728.552 780.668 731.147 783.264 731.147 786.465C731.147 789.667 728.552 792.263 725.35 792.263Z" fill="#bf2b34" fill-rule="nonzero" opacity="1" stroke="none" vectornator:layerName="path"/>
<path d="M687.254 851.892L553.088 851.892C551.015 851.895 549.099 850.79 548.061 848.995C547.024 847.201 547.024 844.989 548.061 843.194C549.099 841.399 551.015 840.295 553.088 840.297L687.254 840.297C689.327 840.295 691.243 841.399 692.281 843.194C693.318 844.989 693.318 847.201 692.281 848.995C691.243 850.79 689.327 851.895 687.254 851.892Z" fill="#bf2b34" fill-rule="nonzero" opacity="1" stroke="none" vectornator:layerName="path"/>
<path d="M417.325 1102.56L1305.33 1102.56L1305.33 1102.56L1305.33 1104.56L1305.33 1104.56L417.325 1104.56L417.325 1104.56L417.325 1102.56L417.325 1102.56Z" fill="#3f3d56" fill-rule="nonzero" opacity="1" stroke="none" vectornator:layerName="rect"/>
<path d="M923.313 809.724C923.313 809.724 917.028 763.631 906.552 776.202C896.076 788.772 906.552 807.629 906.552 807.629L914.932 818.105L923.313 811.819L923.313 809.724Z" fill="#9f616a" fill-rule="nonzero" opacity="1" stroke="none" vectornator:layerName="path"/>
<path d="M948.455 824.39C948.455 824.39 927.503 801.343 923.313 805.534C919.123 809.724 906.552 811.819 908.647 820.2C910.742 828.58 954.74 855.818 954.74 855.818L948.455 824.39Z" fill="#bf2b34" fill-rule="nonzero" opacity="1" stroke="none" vectornator:layerName="path"/>
<path d="M948.455 824.39C948.455 824.39 927.503 801.343 923.313 805.534C919.123 809.724 906.552 811.819 908.647 820.2C910.742 828.58 954.74 855.818 954.74 855.818L948.455 824.39Z" fill="#000000" fill-rule="nonzero" opacity="0.1" stroke="none" vectornator:layerName="path"/>
<path d="M1067.88 822.295L1067.88 839.056C1067.88 839.056 1069.97 876.769 1057.4 874.674C1044.83 872.579 1051.12 841.151 1051.12 841.151L1053.21 822.295L1067.88 822.295Z" fill="#9f616a" fill-rule="nonzero" opacity="1" stroke="none" vectornator:layerName="path"/>
<path d="M1061.59 943.814C1061.59 943.814 1080.45 973.146 1086.74 975.242C1093.02 977.337 1126.54 996.193 1130.73 1015.05L1160.07 1052.76L1145.4 1071.62C1145.4 1071.62 1078.35 1000.38 1059.5 994.098C1040.64 987.813 1021.79 956.385 1021.79 956.385L1061.59 943.814Z" fill="#9f616a" fill-rule="nonzero" opacity="1" stroke="none" vectornator:layerName="path"/>
<path d="M912.837 895.626C912.837 895.626 873.029 901.911 879.315 927.053C885.6 952.195 946.36 1004.57 946.36 1004.57L948.455 1017.14L971.502 1021.34L981.978 1010.86L979.882 1004.57C979.882 1004.57 954.74 981.527 952.645 973.146C950.55 964.766 927.503 931.243 917.028 929.148L931.694 920.767L912.837 895.626Z" fill="#9f616a" fill-rule="nonzero" opacity="1" stroke="none" vectornator:layerName="path"/>
<path d="M1153.78 1052.76C1153.78 1052.76 1145.4 1040.19 1157.97 1042.29C1170.54 1044.38 1178.92 1046.48 1178.92 1054.86C1178.92 1063.24 1168.45 1121.9 1155.88 1117.71C1143.3 1113.52 1153.78 1094.67 1153.78 1094.67C1153.78 1094.67 1147.5 1077.9 1143.3 1075.81C1139.11 1073.71 1139.11 1063.24 1143.3 1063.24C1147.5 1063.24 1155.88 1056.95 1153.78 1052.76Z" fill="#2f2e41" fill-rule="nonzero" opacity="1" stroke="none" vectornator:layerName="path"/>
<path d="M975.692 1006.67C975.692 1006.67 975.692 996.193 984.073 1006.67C992.453 1017.14 996.644 1025.53 988.263 1031.81C979.882 1038.1 950.55 1052.76 950.55 1052.76C950.55 1052.76 919.123 1059.05 923.313 1044.38C923.313 1044.38 944.265 1033.91 944.265 1025.53C944.265 1017.14 944.265 1002.48 950.55 1006.67C956.836 1010.86 975.692 1012.95 975.692 1006.67Z" fill="#2f2e41" fill-rule="nonzero" opacity="1" stroke="none" vectornator:layerName="path"/>
<path d="M1015.5 849.532C1015.5 849.532 1044.83 853.722 1042.74 895.626C1042.74 895.626 1080.45 933.338 1069.97 945.909C1059.5 958.48 1036.45 981.527 1028.07 975.242C1019.69 968.956 994.548 920.767 994.548 920.767C994.548 920.767 935.884 941.719 925.408 931.243C914.932 920.767 904.457 895.626 904.457 895.626L956.836 868.388L1015.5 849.532Z" fill="#2f2e41" fill-rule="nonzero" opacity="1" stroke="none" vectornator:layerName="path"/>
<path d="M908.647 704.966C908.647 691.081 919.903 679.824 933.789 679.824C947.674 679.824 958.931 691.081 958.931 704.966C958.931 718.852 947.674 730.108 933.789 730.108C919.903 730.108 908.647 718.852 908.647 704.966Z" fill="#9f616a" fill-rule="nonzero" opacity="1" stroke="none" vectornator:layerName="circle"/>
<path d="M952.645 707.061C952.645 707.061 967.311 730.108 971.502 732.203C975.692 734.298 942.169 755.25 942.169 755.25C942.169 755.25 942.169 728.013 931.694 721.727L952.645 707.061Z" fill="#9f616a" fill-rule="nonzero" opacity="1" stroke="none" vectornator:layerName="path"/>
<path d="M954.74 730.108C954.74 730.108 988.263 719.632 994.548 736.393C1000.83 753.155 1015.5 784.582 1013.4 805.534C1011.31 826.485 1007.12 822.295 1013.4 828.58C1019.69 834.866 1023.88 830.676 1021.79 839.056C1019.69 847.437 1017.6 847.437 1019.69 851.627C1021.79 855.818 994.548 870.484 971.502 872.579L948.455 874.674C948.455 874.674 948.455 836.961 944.265 828.58C940.074 820.2 931.694 803.439 931.694 797.153L931.694 780.522C931.694 769.453 934.582 758.575 940.074 748.964L940.074 748.964C940.074 748.964 952.645 730.108 954.74 730.108Z" fill="#bf2b34" fill-rule="nonzero" opacity="1" stroke="none" vectornator:layerName="path"/>
<path d="M979.882 738.489C979.882 738.489 1057.4 744.774 1065.78 765.726C1074.16 786.677 1078.35 828.58 1069.97 828.58C1061.59 828.58 1051.12 832.771 1049.02 828.58C1046.93 824.39 1038.55 782.487 1036.45 782.487C1034.36 782.487 971.502 776.201 971.502 776.201C971.502 776.201 944.265 742.679 979.882 738.489Z" fill="#bf2b34" fill-rule="nonzero" opacity="1" stroke="none" vectornator:layerName="path"/>
<path d="M932.779 698.733C932.779 698.733 926.107 687.138 917.767 697.209C909.427 707.28 895.86 688.773 897.943 684.824C900.025 680.875 907.38 685.002 919.985 680.881C932.589 676.761 956.869 668.367 960.936 695.749C965.002 723.13 955.318 720.26 955.318 720.26C955.318 720.26 950.878 695.997 946.866 702.966L942.854 709.935L939.374 710.792L932.779 698.733Z" fill="#2f2e41" fill-rule="nonzero" opacity="1" stroke="none" vectornator:layerName="path"/>
</g>
<g opacity="1" vectornator:layerName="lululemon-1.svg">
<path d="M283.988 133.15C207.994 133.15 146.577 194.805 146.577 270.56C146.577 346.554 208.233 407.97 283.988 407.97C359.981 407.97 421.637 346.315 421.637 270.56C421.637 194.805 359.981 133.15 283.988 133.15" fill="#d00a2c" fill-rule="nonzero" opacity="1" stroke="none" vectornator:layerName="path"/>
<path d="M380.055 331.737C374.798 334.366 364.761 338.668 356.158 338.668C351.856 338.668 347.794 337.473 343.731 334.605C321.506 319.789 329.154 302.105 344.209 274.623C350.661 262.913 357.353 250.964 360.22 238.537C363.327 225.155 366.195 205.798 354.724 190.982C349.227 184.051 341.102 178.794 330.11 175.209C318.878 171.386 304.3 169.474 286.855 169.235L281.12 169.235C263.675 169.474 249.097 171.386 237.865 175.209C226.873 178.794 218.748 184.051 213.251 190.982C201.78 205.798 204.648 225.155 207.755 238.537C210.622 250.964 217.314 262.913 223.766 274.623C239.06 302.105 246.469 319.789 224.244 334.605C220.181 337.234 216.119 338.668 211.817 338.668C203.214 338.668 193.177 334.366 187.92 331.737L189.115 334.127C200.108 350.616 214.207 359.458 229.979 359.458C236.91 359.458 244.079 357.786 251.487 354.44C259.373 350.855 266.303 344.642 271.083 336.517C275.862 328.392 277.535 319.55 276.34 311.902C274.668 304.972 271.083 295.652 266.781 284.659C255.789 256.221 240.733 217.508 253.877 198.629C259.373 190.743 269.171 186.68 283.988 186.68C298.804 186.68 308.602 190.743 314.098 198.629C327.003 217.508 311.948 256.221 301.194 284.659C296.892 295.652 293.308 304.972 291.635 311.902C290.201 319.789 292.113 328.631 296.892 336.756C301.672 344.881 308.602 351.333 316.488 354.679C323.896 358.025 331.304 359.697 337.996 359.697C353.768 359.697 367.867 350.855 378.86 334.366L380.055 331.737Z" fill="#ffffff" fill-rule="nonzero" opacity="1" stroke="none" vectornator:layerName="path"/>
<path d="M512.686 170.43L541.602 170.43L541.602 357.786L512.686 357.786L512.686 170.43ZM683.552 357.786L654.637 357.786L654.637 345.598C647.706 353.723 635.28 360.653 620.224 360.653C591.069 360.653 575.297 341.296 575.297 313.097L575.297 229.695L604.213 229.695L604.213 308.079C604.213 323.851 611.621 334.366 628.11 334.366C640.537 334.366 651.53 326.48 654.637 313.814L654.637 229.695L683.552 229.695L683.552 357.786ZM719.399 170.43L748.314 170.43L748.314 357.786L719.399 357.786L719.399 170.43ZM890.504 357.786L861.588 357.786L861.588 345.598C854.658 353.723 842.231 360.653 827.176 360.653C798.021 360.653 782.249 341.296 782.249 313.097L782.249 229.695L811.165 229.695L811.165 308.079C811.165 323.851 818.573 334.366 835.062 334.366C847.489 334.366 858.482 326.48 861.588 313.814L861.588 229.695L890.504 229.695L890.504 357.786ZM926.111 170.43L955.027 170.43L955.027 357.786L926.111 357.786L926.111 170.43ZM1096.26 318.116C1091.96 343.447 1073.08 360.892 1042.25 360.892C1006.41 360.892 981.792 333.888 981.792 294.218C981.792 255.983 1006.88 227.067 1041.77 227.067C1077.86 227.067 1097.46 252.637 1097.46 290.156L1097.46 300.432L1009.99 300.432C1010.95 322.895 1023.85 336.517 1042.25 336.517C1056.11 336.517 1066.39 330.542 1069.73 318.116L1096.26 318.116ZM1010.95 279.402L1069.02 279.402C1068.78 263.869 1059.7 251.203 1042.25 251.203C1026.24 251.203 1014.53 261.001 1010.95 279.402M1256.61 227.067C1282.9 227.067 1298.19 245.468 1298.19 274.623L1298.19 358.025L1269.28 358.025L1269.28 279.402C1269.28 263.63 1262.35 253.115 1248.25 253.115C1237.97 253.115 1228.17 259.567 1225.55 272.233L1225.55 358.263L1196.63 358.263L1196.63 279.641C1196.63 263.869 1189.7 253.354 1175.6 253.354C1165.32 253.354 1155.53 259.806 1152.9 272.472L1152.9 358.502L1123.98 358.502L1123.98 230.412L1152.9 230.412L1152.9 241.166C1158.87 233.041 1170.58 227.545 1184.92 227.545C1199.26 227.545 1211.92 234.714 1218.62 244.512C1227.46 233.519 1239.41 227.067 1256.61 227.067M1383.99 360.653C1347.9 360.653 1323.05 332.932 1323.05 293.74C1323.05 254.549 1347.9 226.828 1383.99 226.828C1420.07 226.828 1444.92 254.549 1444.92 293.74C1444.92 333.171 1420.07 360.653 1383.99 360.653M1383.99 251.681C1363.2 251.681 1351.96 269.604 1351.96 293.74C1351.96 317.877 1363.2 335.8 1383.99 335.8C1404.78 335.8 1416.01 317.877 1416.01 293.74C1416.01 269.604 1404.78 251.681 1383.99 251.681M1471.69 229.934L1500.61 229.934L1500.61 242.122C1507.54 233.997 1520.2 227.067 1535.26 227.067C1564.41 227.067 1580.42 246.424 1580.42 274.623L1580.42 358.025L1551.51 358.025L1551.51 279.402C1551.51 263.63 1543.62 253.115 1527.37 253.115C1514.94 253.115 1503.71 261.001 1500.61 273.667L1500.61 357.786L1471.69 357.786L1471.69 229.934Z" fill="#000000" fill-rule="nonzero" opacity="1" stroke="none" vectornator:layerName="path"/>
</g>
</g>
</svg>
