<svg width="300" height="300" viewBox="0 0 300 300" fill="none" xmlns="http://www.w3.org/2000/svg">
<path d="M149.865 0C66.9775 0 0 67.3033 0 149.998C0 232.956 67.2381 300 149.865 300C232.753 300 300 232.695 300 149.998C300 67.3033 232.753 0 149.865 0Z" fill="#D00A2C"/>
<path d="M254.646 216.782C248.912 219.651 237.964 224.347 228.581 224.347C223.889 224.347 219.458 223.043 215.027 219.912C190.787 203.738 199.127 184.433 215.548 154.432C222.585 141.65 229.884 128.607 233.012 115.041C236.401 100.432 239.528 79.3012 227.017 63.1291C221.022 55.5638 212.16 49.8256 200.17 45.9125C187.919 41.7385 172.019 39.6515 152.991 39.3906H146.736C127.709 39.6515 111.808 41.7385 99.558 45.9125C87.5681 49.8256 78.706 55.5638 72.7109 63.1291C60.1996 79.3012 63.3275 100.432 66.7159 115.041C69.8437 128.607 77.1421 141.65 84.1797 154.432C100.861 184.433 108.941 203.738 84.7009 219.912C80.2698 222.782 75.8388 224.347 71.1471 224.347C61.7636 224.347 50.8161 219.651 45.0918 216.782L46.3951 219.39C58.3751 237.391 73.7535 247.042 90.9565 247.042C98.5155 247.042 106.335 245.216 114.415 241.565C123.017 237.652 130.576 230.869 135.789 221.999C141.002 213.129 142.826 203.477 141.523 195.129C139.698 187.564 135.789 177.389 131.097 165.389C119.107 134.346 102.686 92.0841 117.021 71.475C123.017 62.8682 133.704 58.4334 149.864 58.4334C166.024 58.4334 176.711 62.8682 182.706 71.475C196.782 92.0841 180.36 134.346 168.631 165.389C163.939 177.389 160.03 187.564 158.205 195.129C156.641 203.738 158.726 213.39 163.939 222.26C169.152 231.13 176.711 238.174 185.312 241.826C193.393 245.477 201.473 247.303 208.771 247.303C225.974 247.303 241.353 237.652 253.343 219.651L254.646 216.782Z" fill="white"/>
</svg>
