<svg width="1674" height="321" viewBox="0 0 1674 321" fill="none" xmlns="http://www.w3.org/2000/svg">
<g clip-path="url(#clip0_1139_273)">
<mask id="mask0_1139_273" style="mask-type:luminance" maskUnits="userSpaceOnUse" x="0" y="0" width="1674" height="321">
<path d="M1674 0H0V321H1674V0Z" fill="white"/>
</mask>
<g mask="url(#mask0_1139_273)">
<path d="M160.418 0C71.6941 0 0 72.0152 0 160.499C0 249.265 71.9731 321.003 160.418 321.003C249.143 321.003 321.127 248.986 321.127 160.499C321.127 72.0152 249.143 0 160.418 0Z" fill="#D00A2C"/>
<path d="M272.579 231.958C266.44 235.029 254.722 240.053 244.678 240.053C239.656 240.053 234.913 238.658 230.17 235.308C204.222 218.002 213.15 197.345 230.728 165.245C238.261 151.567 246.073 137.61 249.421 123.095C253.048 107.463 256.396 84.8532 243.004 67.5488C236.587 59.4539 227.1 53.3139 214.266 49.1269C201.153 44.6607 184.133 42.4276 163.766 42.1484H157.07C136.702 42.4276 119.683 44.6607 106.569 49.1269C93.7351 53.3139 84.2488 59.4539 77.8317 67.5488C64.4393 84.8532 67.7874 107.463 71.4145 123.095C74.7626 137.61 82.5748 151.567 90.108 165.245C107.964 197.345 116.614 218.002 90.6659 235.308C85.9228 238.379 81.1798 240.053 76.1577 240.053C66.1134 240.053 54.395 235.029 48.2676 231.958L49.6627 234.75C62.4863 254.01 78.9476 264.338 97.3621 264.338C105.453 264.338 113.824 262.384 122.473 258.476C131.68 254.289 139.771 247.032 145.351 237.541C150.932 228.05 152.885 217.722 151.49 208.79C149.537 200.695 145.351 189.809 140.329 176.968C127.495 143.751 109.917 98.5309 125.263 76.479C131.68 67.2697 143.119 62.5244 160.418 62.5244C177.716 62.5244 189.155 67.2697 195.573 76.479C210.639 98.5309 193.062 143.751 180.506 176.968C175.484 189.809 171.299 200.695 169.346 208.79C167.672 218.001 169.904 228.33 175.484 237.82C181.064 247.311 189.155 254.848 198.363 258.756C207.012 262.663 215.661 264.617 223.473 264.617C241.888 264.617 258.349 254.289 271.184 235.029L272.579 231.958Z" fill="white"/>
<path d="M427.428 43.5439H461.188V262.384H427.428V43.5439ZM626.907 262.384H593.147V248.148C585.056 257.639 570.548 265.734 552.97 265.734C518.931 265.734 500.517 243.124 500.517 210.186V112.767H534.277V204.324C534.277 222.747 542.926 235.029 562.177 235.029C576.686 235.029 589.52 225.817 593.147 211.023V112.767H626.907V262.384ZM668.758 43.5439H702.518V262.384H668.758V43.5439ZM868.527 262.384H834.767V248.148C826.676 257.639 812.168 265.734 794.59 265.734C760.552 265.734 742.137 243.124 742.137 210.186V112.767H775.897V204.324C775.897 222.747 784.546 235.029 803.798 235.029C818.306 235.029 831.14 225.817 834.767 211.023V112.767H868.527V262.384ZM910.089 43.5439H943.848V262.384H910.089V43.5439ZM1108.74 216.047C1103.72 245.636 1081.68 266.013 1045.69 266.013C1003.84 266.013 975.097 234.47 975.097 188.134C975.097 143.472 1004.39 109.696 1045.13 109.696C1087.26 109.696 1110.14 139.564 1110.14 183.388V195.391H1008.02C1009.14 221.63 1024.2 237.541 1045.69 237.541C1061.87 237.541 1073.87 230.563 1077.77 216.047H1108.74ZM1009.14 170.827H1076.93C1076.66 152.683 1066.05 137.889 1045.69 137.889C1026.99 137.889 1013.32 149.334 1009.14 170.827ZM1295.96 109.696C1326.65 109.696 1344.49 131.19 1344.49 165.245V262.663H1310.74V170.827C1310.74 152.404 1302.65 140.122 1286.19 140.122C1274.19 140.122 1262.75 147.659 1259.68 162.453V262.942H1225.92V171.106C1225.92 152.683 1217.83 140.401 1201.37 140.401C1189.37 140.401 1177.94 147.938 1174.87 162.732V263.222H1141.11V113.604H1174.87V126.165C1181.84 116.675 1195.51 110.254 1212.25 110.254C1228.99 110.254 1243.78 118.629 1251.59 130.073C1261.92 117.233 1275.87 109.696 1295.96 109.696ZM1444.66 265.734C1402.53 265.734 1373.51 233.354 1373.51 187.575C1373.51 141.797 1402.53 109.417 1444.66 109.417C1486.79 109.417 1515.8 141.797 1515.8 187.575C1515.8 233.633 1486.79 265.734 1444.66 265.734ZM1444.66 138.447C1420.38 138.447 1407.27 159.383 1407.27 187.575C1407.27 215.768 1420.38 236.704 1444.66 236.704C1468.93 236.704 1482.04 215.768 1482.04 187.575C1482.04 159.383 1468.93 138.447 1444.66 138.447ZM1547.05 113.046H1580.81V127.282C1588.9 117.791 1603.69 109.696 1621.27 109.696C1655.31 109.696 1674 132.306 1674 165.245V262.663H1640.24V170.827C1640.24 152.404 1631.03 140.122 1612.06 140.122C1597.55 140.122 1584.44 149.334 1580.81 164.128V262.384H1547.05V113.046Z" fill="white"/>
</g>
</g>
<defs>
<clipPath id="clip0_1139_273">
<rect width="1674" height="321" fill="white"/>
</clipPath>
</defs>
</svg>
