<svg width="1177" height="728" viewBox="0 0 1177 728" fill="none" xmlns="http://www.w3.org/2000/svg">
<g clip-path="url(#clip0_1168_299)">
<path d="M281.745 728H0V389.561L174.758 668.727C175.037 669.266 175.417 669.666 175.696 670.205H175.756C198.939 706.264 238.934 728 281.745 728Z" fill="#FFBF01"/>
<path d="M1177 389.581V728H1174.11C1130.76 728 1090.2 705.605 1067.18 668.727L685.594 59.273C685.315 58.714 684.935 58.334 684.656 57.775C661.453 21.736 621.457 0 578.646 0H863.287C906.657 0 947.132 22.395 970.234 59.273L1177 389.581Z" fill="#FFBF01"/>
<path d="M774.04 57.778C773.763 58.331 773.377 58.718 773.1 59.271L391.577 668.723C368.487 705.601 327.999 727.994 284.638 727.994H0C42.809 727.994 82.801 706.265 106.001 670.217C106.277 669.664 106.663 669.277 106.94 668.723L488.518 59.27C511.552 22.392 552.096 0 595.457 0H880.094C837.285 0 797.293 21.729 774.094 57.777H774.039L774.04 57.778Z" fill="#33C0E7"/>
</g>
<defs>
<clipPath id="clip0_1168_299">
<rect width="1177" height="728" fill="white"/>
</clipPath>
</defs>
</svg>
