<svg width="1531" height="181" viewBox="0 0 1531 181" fill="none" xmlns="http://www.w3.org/2000/svg">
<g clip-path="url(#clip0_1139_134)">
<g opacity="0.5">
<path d="M136.408 0H102.469L48.168 53.5458L50.4305 86.7292L85.8773 120.667L100.207 106.338V95.7792L79.8438 76.925V60.3333L110.011 30.1667H127.358L170.346 70.8917L168.838 73.1542L171.1 106.338L191.464 86.7292L190.709 51.2833L136.408 0Z" fill="#F57823"/>
</g>
<path d="M101.715 75.4163L102.469 83.7122L123.586 104.829V121.421L94.9271 150.833L78.335 151.587L37.6089 110.862L40.6256 107.846L38.3631 73.1538L18 95.0247V129.716L70.0389 181H102.469L153.754 128.208L151.491 95.0247L116.799 60.333L101.715 75.4163Z" fill="#F57823"/>
<path d="M301.98 67.5309C300.466 68.303 299.709 70.6194 299.709 72.9357C299.709 75.2521 300.466 76.7964 302.737 78.3406C305.008 79.8848 309.55 81.4291 317.119 82.9733C324.689 84.5176 330.745 87.606 334.53 91.4666C339.072 95.3273 340.586 100.732 340.586 107.681C340.586 114.63 337.558 120.807 332.259 125.44C326.96 130.073 320.147 132.389 311.064 132.389C298.195 132.389 286.841 127.756 277 118.491L287.598 105.365C295.924 113.086 304.251 116.947 311.821 116.947C314.849 116.947 317.876 116.175 319.39 114.63C320.904 113.086 322.418 111.542 322.418 109.225C322.418 106.909 321.661 104.593 319.39 103.048C317.876 101.504 314.092 99.96 308.036 98.4157C298.952 96.0994 292.139 93.783 287.598 89.9224C283.056 86.0618 281.542 80.657 281.542 72.9357C281.542 65.2145 284.57 59.8097 289.869 55.177C295.167 51.3164 301.98 49 310.307 49C315.606 49 320.904 49.7721 326.203 52.0885C331.502 53.6327 336.044 56.7212 339.829 59.8097L330.745 72.9357C323.932 67.5309 316.362 65.2145 308.793 65.2145C306.522 65.2145 303.494 65.9867 301.98 67.5309Z" fill="#F57823"/>
<path d="M467 90.2541C469.271 87.9378 470.028 84.0772 470.028 79.4445C470.028 74.8117 468.514 71.7232 466.243 69.4069C463.215 67.0905 459.43 66.3184 453.374 66.3184H443.534V93.3426H455.645C460.187 93.3426 464.729 92.5705 467 90.2541ZM479.868 58.5972C485.167 63.2299 488.195 70.9511 488.195 80.9887C488.195 91.0263 485.167 97.9754 479.868 102.608C473.812 106.469 464.729 108.785 453.374 108.785H442.777V131.177H424.609V50.876H452.617C465.486 50.876 473.812 53.1923 479.868 58.5972Z" fill="#F57823"/>
<path d="M631.264 91.0259C631.264 84.0768 628.993 77.8999 624.451 72.495C619.909 67.0902 614.61 64.7738 607.797 64.7738C600.985 64.7738 595.686 67.0902 591.144 72.495C586.602 77.8999 584.331 83.3047 584.331 91.0259C584.331 98.7471 586.602 104.152 591.144 109.557C595.686 114.19 600.985 117.278 607.797 117.278C614.61 117.278 619.909 114.962 624.451 109.557C628.993 104.152 631.264 97.975 631.264 91.0259ZM637.319 120.367C628.993 128.088 619.152 131.948 607.797 131.948C595.686 131.948 585.845 128.088 578.276 120.367C569.949 112.645 566.164 102.608 566.164 91.0259C566.164 79.4441 569.949 69.4065 578.276 61.6853C586.602 53.9641 596.443 50.1035 607.797 50.1035C619.909 50.1035 629.75 53.9641 637.319 61.6853C645.646 69.4065 649.431 79.4441 649.431 91.0259C649.431 102.608 645.646 112.645 637.319 120.367Z" fill="#F57823"/>
<path d="M776.6 87.1657C778.871 85.6214 779.628 82.5329 779.628 77.9002C779.628 73.2675 778.871 70.9511 775.843 68.6348C773.573 67.0905 769.788 66.3184 763.732 66.3184H750.106V90.2541H762.975C769.788 90.2541 774.33 89.482 776.6 87.1657ZM797.796 77.9002C797.796 91.0263 792.497 98.7475 782.656 102.608L803.094 131.177H781.142L763.732 105.697H751.62V131.177H733.453V50.876H763.732C775.843 50.876 784.927 53.1923 790.226 57.0529C795.525 61.6857 797.796 68.6348 797.796 77.9002Z" fill="#F57823"/>
<path d="M916.639 66.3184V131.177H899.229V66.3184H876.52V50.876H939.348V66.3184H916.639Z" fill="#F57823"/>
<path d="M1039.27 67.0898C1037.76 68.6341 1037 70.1783 1037 72.4947C1037 74.811 1037.76 76.3553 1040.03 77.8995C1042.3 79.4438 1046.84 80.988 1054.41 82.5323C1061.98 84.0765 1068.03 87.165 1071.82 91.0256C1076.36 94.8862 1077.87 100.291 1077.87 107.24C1077.87 114.189 1074.85 120.366 1069.55 124.999C1064.25 129.632 1057.44 131.948 1048.35 131.948C1035.48 131.948 1024.13 127.315 1014.29 118.05L1024.89 104.924C1033.21 112.645 1041.54 116.506 1049.11 116.506C1052.14 116.506 1055.17 115.733 1056.68 114.189C1058.19 112.645 1059.71 111.101 1059.71 108.784C1059.71 106.468 1058.95 104.152 1056.68 103.38C1054.41 101.835 1050.62 100.291 1044.57 98.7468C1035.48 96.4304 1028.67 93.3419 1024.13 90.2535C1019.59 86.3929 1017.32 80.988 1017.32 73.2668C1017.32 65.5456 1020.34 60.1407 1025.64 55.508C1030.94 51.6474 1037.76 49.3311 1046.08 49.3311C1051.38 49.3311 1056.68 50.1032 1061.98 52.4195C1067.28 53.9638 1071.82 57.0523 1075.6 60.1407L1066.52 73.2668C1059.71 67.862 1052.14 65.5456 1045.32 65.5456C1043.05 64.7735 1040.78 65.5456 1039.27 67.0898Z" fill="#F57823"/>
<path d="M1195.21 131.177H1177.8V99.5196L1149.79 50.876H1169.47L1186.12 80.9887L1203.53 50.876H1223.21L1195.21 99.5196V131.177Z" fill="#F57823"/>
<path d="M1355.68 50.876H1373.85V131.177H1355.68L1317.84 80.9887V131.177H1299.67V50.876H1316.32L1355.68 102.608V50.876Z" fill="#F57823"/>
<path d="M1498.45 115.402C1507.53 115.402 1514.35 111.542 1519.64 104.593L1531 116.175C1521.92 126.212 1511.32 131.617 1499.21 131.617C1487.1 131.617 1476.5 127.756 1468.93 120.035C1460.6 112.314 1456.82 102.276 1456.82 90.6945C1456.82 79.1127 1460.6 69.0751 1468.93 60.5818C1477.25 52.8606 1487.1 49 1498.45 49C1511.32 49 1522.67 53.6327 1531 63.6703L1520.4 76.7964C1515.1 69.8473 1508.29 66.7588 1499.96 66.7588C1493.15 66.7588 1487.1 68.303 1482.55 72.9358C1478.01 77.5685 1474.98 83.7454 1474.98 90.6945C1474.98 98.4157 1477.25 103.821 1481.8 108.453C1486.34 113.086 1491.64 115.402 1498.45 115.402Z" fill="#F57823"/>
</g>
<defs>
<clipPath id="clip0_1139_134">
<rect width="1531" height="181" fill="white"/>
</clipPath>
</defs>
</svg>
