<svg width="300" height="314" viewBox="0 0 300 314" fill="none" xmlns="http://www.w3.org/2000/svg">
<g opacity="0.5">
<path d="M204.782 0H146.086L52.1738 92.6058L56.0868 149.995L117.391 208.69L142.174 183.908V165.647L106.956 133.039V104.345L159.129 52.1724H189.13L263.477 122.605L260.869 126.518L264.781 183.908L300 149.995L298.694 88.6929L204.782 0Z" fill="#F57823"/>
</g>
<path d="M144.782 130.43L146.087 144.778L182.608 181.299V209.994L133.043 260.861L104.348 262.165L33.913 191.733L39.1303 186.516L35.2173 126.517L0 164.342V224.34L89.9997 313.034H146.087L234.782 221.732L230.869 164.342L170.87 104.344L144.782 130.43Z" fill="#F57823"/>
</svg>
