<svg width="1573" height="235" viewBox="0 0 1573 235" fill="none" xmlns="http://www.w3.org/2000/svg">
<path d="M1448.98 186.952C1460.77 186.952 1472.55 187.136 1484.35 187.166H1545.69C1562.23 187.166 1567.31 190.78 1572.62 206.235V210.735C1571.93 214.884 1570.12 218.765 1567.38 221.953C1564.64 225.141 1561.08 227.516 1557.09 228.817C1555.08 229.408 1552.99 229.69 1550.9 229.652H1434.19C1433.61 229.652 1433.01 229.55 1432.41 229.499C1432.77 227.269 1434.86 227.117 1436.35 226.333C1439.75 224.759 1442.62 222.212 1444.58 219.011C1446.55 215.81 1447.53 212.099 1447.39 208.343C1446.97 201.516 1447.14 194.666 1447.9 187.869C1448.01 187.649 1448.16 187.454 1448.34 187.296C1448.53 187.139 1448.74 187.021 1448.98 186.952Z" fill="#006EB8"/>
<path d="M1572.6 25.2545C1572.29 25.7565 1572.04 26.2888 1571.85 26.8428C1570.99 31.9291 1568.29 36.5191 1564.26 39.7267C1560.23 42.9343 1555.16 44.5322 1550.02 44.2119H1454.34C1452.55 44.2119 1450.76 44.3035 1448.97 44.3646C1448.72 44.3067 1448.5 44.1928 1448.31 44.032C1448.11 43.8712 1447.96 43.668 1447.86 43.4381C1447.08 37.0887 1446.93 30.6767 1447.41 24.2975C1447.73 20.1036 1446.71 15.9168 1444.49 12.3474C1442.27 8.77806 1438.97 6.01273 1435.07 4.45447C1433.93 3.91487 1432.41 3.67052 1432.38 1.90918L1502.42 1.74629H1549.56C1554.85 1.35729 1560.1 2.97538 1564.25 6.27954C1568.41 9.5837 1571.17 14.3325 1572 19.5837C1572.16 19.9963 1572.38 20.3812 1572.66 20.7239L1572.6 25.2545Z" fill="#A8CE38"/>
<path d="M410.856 115.562V23.3408C410.817 18.4183 412.48 13.634 415.564 9.80171C418.648 5.96944 422.962 3.32573 427.772 2.3202C432.581 1.31466 437.59 2.00942 441.946 4.28625C446.302 6.56309 449.737 10.2814 451.666 14.8089C452.922 17.868 453.538 21.1533 453.475 24.4607V207.558C453.621 210.466 453.174 213.372 452.159 216.1C451.145 218.828 449.585 221.319 447.576 223.422C445.567 225.524 443.15 227.194 440.474 228.328C437.799 229.461 434.92 230.036 432.014 230.016C429.109 229.995 426.238 229.381 423.578 228.21C420.919 227.04 418.525 225.337 416.545 223.207C414.565 221.076 413.04 218.564 412.064 215.822C411.087 213.08 410.68 210.168 410.866 207.263C410.832 176.727 410.829 146.159 410.856 115.562Z" fill="#EE4D74"/>
<path d="M197.489 146.013C196.194 167.491 186.714 187.65 171.007 202.325C159.907 213.136 146.518 221.302 131.835 226.216C117.152 231.13 101.552 232.666 86.1952 230.71C70.8382 228.754 56.1187 223.355 43.1303 214.916C30.1419 206.476 19.2187 195.213 11.1721 181.963C4.83617 171.57 1.23174 159.737 0.695312 147.571C2.78865 147.357 2.89025 149.261 3.58125 150.432C5.53671 154.177 8.62421 157.207 12.4022 159.088C16.1801 160.969 20.455 161.604 24.6153 160.904C28.7757 160.204 32.6084 158.203 35.5653 155.188C38.5223 152.174 40.452 148.299 41.0784 144.119C41.2918 143.101 41.3223 142.022 42.4096 141.432C43.8268 152.945 48.9448 163.684 56.9907 172.026C65.0367 180.368 75.5735 185.861 87.0098 187.674C98.3362 190.036 110.102 189.075 120.897 184.905C131.691 180.735 141.056 173.535 147.869 164.166C151.474 158.501 154.009 152.22 155.348 145.636C157.502 145.799 157.604 147.785 158.336 149.149C159.844 152.826 162.458 155.942 165.814 158.063C169.17 160.185 173.102 161.208 177.064 160.99C180.958 160.958 184.758 159.784 187.995 157.613C191.231 155.441 193.761 152.368 195.274 148.772C195.772 147.734 195.579 145.983 197.489 146.013Z" fill="#006EB8"/>
<path d="M635.158 217.444C621.694 201.745 608.229 186.086 594.938 170.346C570.319 141.364 545.748 112.348 521.224 83.2976C520.714 82.7681 520.175 82.2683 519.608 81.8009C519.231 81.5724 518.912 81.2595 518.676 80.8868C518.439 80.5142 518.293 80.0918 518.247 79.6527C517.495 65.0122 518.145 50.3311 517.891 35.6703C518.297 29.0896 517.991 22.4841 516.976 15.9696C516.86 15.5317 516.852 15.072 516.953 14.6303C517.054 14.1886 517.261 13.7782 517.556 13.4346C531.931 30.3013 546.31 47.1646 560.692 64.0246C584.532 92.1382 608.345 120.269 632.13 148.416C632.759 149.042 633.438 149.614 634.162 150.127C634.667 150.452 635.055 150.93 635.27 151.491C635.707 153.534 635.898 155.623 635.839 157.712C636.052 176.526 635.432 195.382 636.184 214.135C636.287 214.729 636.247 215.338 636.069 215.914C635.89 216.489 635.578 217.013 635.158 217.444Z" fill="#00A8A1"/>
<path d="M994.774 11.5918C1009.17 28.4586 1023.55 45.3286 1037.92 62.2022C1061.76 90.3157 1085.57 118.446 1109.36 146.594C1109.99 147.222 1110.67 147.804 1111.39 148.335C1111.89 148.671 1112.28 149.15 1112.5 149.709C1112.93 151.901 1113.13 154.134 1113.07 156.368C1113.26 175.02 1112.66 193.661 1113.39 212.293C1113.5 212.884 1113.46 213.491 1113.3 214.068C1113.13 214.645 1112.84 215.176 1112.44 215.622C1100.77 201.979 1089.07 188.398 1077.44 174.704C1050.93 143.407 1024.45 112.09 997.995 80.7523C997.664 80.4541 997.292 80.207 996.888 80.0192C996.502 79.804 996.174 79.4995 995.93 79.1311C995.686 78.7626 995.534 78.3411 995.486 77.9016C994.734 63.9738 995.485 50.0357 995.13 36.1588C995.568 28.6817 995.272 21.1795 994.246 13.7604C994.156 13.3828 994.158 12.9893 994.25 12.6123C994.341 12.2353 994.521 11.8856 994.774 11.5918Z" fill="#00A8A1"/>
<path d="M634.354 151.297C634.312 150.901 634.24 150.51 634.14 150.126V23.1973C634.105 20.4195 634.621 17.6624 635.658 15.086C636.695 12.5095 638.232 10.165 640.18 8.18836C642.128 6.21175 644.449 4.6424 647.008 3.57138C649.566 2.50035 652.311 1.94897 655.084 1.94919C657.908 1.91109 660.711 2.4387 663.328 3.50108C665.946 4.56346 668.325 6.13921 670.326 8.1357C672.327 10.1322 673.91 12.5092 674.982 15.1272C676.053 17.7451 676.592 20.5511 676.566 23.3805C676.627 84.1483 676.627 144.916 676.566 205.684C676.566 206.122 676.464 206.57 676.414 207.018C675.916 207.018 675.336 206.896 675.306 206.488C674.635 197.784 668.03 192.683 663.111 186.676C654.464 176.179 645.684 165.784 636.691 155.583C635.757 154.244 634.973 152.807 634.354 151.297Z" fill="#006EB8"/>
<path d="M1111.55 149.506C1111.52 149.11 1111.45 148.718 1111.34 148.335V21.0707C1111.31 16.2291 1112.98 11.5303 1116.05 7.79403C1119.12 4.05779 1123.41 1.52133 1128.16 0.627022C1132.81 -0.353716 1137.65 0.260703 1141.91 2.37147C1146.16 4.48223 1149.59 7.96661 1151.63 12.264C1152.97 14.955 1153.68 17.9126 1153.73 20.918C1153.73 81.4755 1153.73 142.03 1153.73 202.58C1153.7 202.878 1153.66 203.174 1153.59 203.466C1153.28 203.466 1152.86 203.466 1152.78 203.272C1147.3 192.485 1140.06 182.689 1131.36 174.287C1125.87 167.211 1120.02 160.359 1113.9 153.792C1112.72 152.53 1112.57 150.789 1111.55 149.506Z" fill="#006EB8"/>
<path d="M996.493 78.8278L996.848 79.9986L996.746 170.458C996.746 182.747 996.848 195.056 996.746 207.365C996.713 212.987 994.452 218.365 990.46 222.316C986.469 226.267 981.074 228.468 975.463 228.435C969.851 228.401 964.484 226.135 960.54 222.136C956.596 218.137 954.399 212.732 954.432 207.11C954.371 147.842 954.371 88.578 954.432 29.3169C954.432 28.2988 954.555 27.2196 954.626 26.1709C957.949 28.2886 958.325 32.361 960.723 35.1608C971.718 48.213 982.987 61.0516 993.769 74.2565C994.977 75.5798 995.903 77.1349 996.493 78.8278Z" fill="#EE3F6B"/>
<path d="M519.23 80.478C519.362 80.9158 519.484 81.3435 519.606 81.7813C519.606 101.125 519.562 120.47 519.474 139.814V208.231C519.571 213.49 517.718 218.598 514.273 222.567C510.828 226.536 506.035 229.084 500.824 229.718C495.612 230.351 490.351 229.025 486.059 225.996C481.766 222.968 478.748 218.451 477.587 213.322C477.262 211.844 477.112 210.334 477.14 208.822V29.6334C477.14 29.0327 477.241 28.432 477.292 27.8313C477.512 27.7866 477.741 27.8083 477.949 27.8934C478.157 27.9786 478.335 28.1235 478.461 28.3099C485.336 39.5176 493.416 49.9372 502.555 59.3826C507.27 65.3793 512.401 71.0401 517.279 76.9045C518.136 77.9698 518.797 79.18 519.23 80.478Z" fill="#A8CE38"/>
<path d="M247.77 1.92976C264.516 1.92976 281.304 1.74652 298.01 1.73634H366.205C371.333 1.73047 376.287 3.59574 380.142 6.98351C383.996 10.3713 386.487 15.0496 387.149 20.1438C387.838 25.3184 386.613 30.5666 383.706 34.8989C380.799 39.2313 376.41 42.3484 371.368 43.6623C368.88 44.1808 366.334 44.3656 363.797 44.2121L264.211 44.3648L263.663 43.8965C262.606 38.9316 262.39 33.8242 263.022 28.7875C263.852 23.7244 262.96 18.5289 260.491 14.0337C258.022 9.5385 254.118 6.004 249.406 3.99656C248.953 3.86434 248.552 3.59439 248.259 3.22415C247.966 2.8539 247.795 2.40162 247.77 1.92976Z" fill="#A8CE38"/>
<path d="M0.197604 138.459C0.197604 117.343 0.146782 96.2174 0.0451636 75.0813C0.0451636 57.0912 -0.0564545 39.1012 0.0451636 21.1213C0.0850814 16.0397 1.93802 11.1399 5.26909 7.30763C8.60016 3.47536 13.1896 0.96338 18.208 0.225603C23.2264 -0.512175 28.3427 0.572933 32.6322 3.28487C36.9217 5.99681 40.1015 10.1567 41.5968 15.0126C42.159 16.8767 42.4231 18.8181 42.3793 20.7649V133.623C42.3599 134.199 42.3056 134.774 42.2167 135.344C40.4689 135.344 40.2453 133.755 39.6458 132.635C37.9242 128.88 35.089 125.748 31.5265 123.665C27.964 121.583 23.8473 120.651 19.7372 120.997C15.6271 121.343 11.7235 122.95 8.55791 125.6C5.39236 128.249 3.11885 131.811 2.04705 135.802C1.71171 136.85 1.97592 138.347 0.197604 138.459Z" fill="#EE5A78"/>
<path d="M155.531 136.158C155.47 112.911 155.409 89.6706 155.348 66.4372V21.9049C155.253 19.0677 155.729 16.2404 156.746 13.5908C157.763 10.9412 159.3 8.52326 161.268 6.48042C163.235 4.43759 165.592 2.81147 168.199 1.69861C170.805 0.585754 173.609 0.008835 176.442 0.00201432C179.275 -0.00480636 182.081 0.558624 184.693 1.65892C187.305 2.75922 189.67 4.37399 191.647 6.40733C193.624 8.44067 195.174 10.8511 196.203 13.4958C197.233 16.1405 197.722 18.9655 197.641 21.8031V133.796C197.641 134.529 197.539 135.292 197.479 136.025C195.141 135.73 195.131 133.541 194.43 132.055C192.954 128.819 190.599 126.065 187.633 124.108C184.668 122.151 181.213 121.069 177.663 120.988C173.974 120.678 170.273 121.443 167.007 123.189C163.741 124.936 161.047 127.59 159.25 130.833C158.112 132.686 158.132 135.353 155.531 136.158Z" fill="#A8CE38"/>
<path d="M1177.97 111.245C1178.23 92.5777 1183.57 74.3347 1193.4 58.4759C1202.76 42.0709 1215.98 28.1974 1231.89 18.0545C1247.81 7.91159 1265.95 1.80423 1284.75 0.26012C1286.39 0.177616 1288.03 0.177616 1289.67 0.26012C1289.26 2.29635 1287.35 2.42867 1285.97 3.14135C1282.57 4.8145 1279.71 7.41551 1277.71 10.6456C1275.72 13.8756 1274.67 17.6037 1274.7 21.4016C1274.72 25.1995 1275.82 28.9132 1277.86 32.1161C1279.89 35.319 1282.79 37.8812 1286.22 39.5084C1287.61 40.2007 1289.51 40.3738 1289.89 42.3998C1285.49 43.2041 1281.05 43.7947 1276.68 44.8433C1260.31 48.8994 1245.8 58.3932 1235.51 71.7762C1225.22 85.1592 1219.75 101.642 1220.01 118.535C1219.89 119.166 1219.58 119.268 1219.1 118.86C1218.47 117.835 1218.16 116.643 1218.21 115.439C1217.85 111.401 1216.26 107.57 1213.66 104.462C1211.06 101.353 1207.58 99.1159 1203.67 98.05C1199.66 97.0402 1195.43 97.293 1191.57 98.7739C1187.7 100.255 1184.39 102.892 1182.07 106.327C1180.92 108.038 1180.57 110.614 1177.97 111.245Z" fill="#EE5A78"/>
<path d="M1219.46 118.452C1219.66 118.498 1219.87 118.498 1220.06 118.452C1220.21 136.907 1227.19 154.65 1239.65 168.242C1252.11 181.833 1269.17 190.303 1287.51 192.011C1288.23 192.143 1288.95 192.327 1289.65 192.561C1289.72 194.852 1287.62 194.882 1286.33 195.554C1282.57 197.093 1279.4 199.806 1277.3 203.291C1275.2 206.776 1274.28 210.847 1274.67 214.898C1274.92 219.032 1276.43 222.989 1279.01 226.226C1281.58 229.464 1285.09 231.823 1289.06 232.98C1289.98 233.296 1291.24 233.275 1291.18 234.782C1264.92 234.407 1239.62 224.825 1219.68 207.7C1207.61 197.815 1197.68 185.578 1190.48 171.731C1183.28 157.884 1178.96 142.716 1177.79 127.147C1177.74 126.102 1177.74 125.057 1177.79 124.011C1179.75 123.889 1180.17 125.508 1180.92 126.781C1182.88 130.514 1185.97 133.529 1189.75 135.394C1193.53 137.259 1197.8 137.878 1201.94 137.163C1206.09 136.447 1209.91 134.434 1212.85 131.411C1215.79 128.388 1217.69 124.511 1218.3 120.336C1218.35 119.954 1218.49 119.588 1218.69 119.259C1218.89 118.93 1219.16 118.645 1219.47 118.422L1219.46 118.452Z" fill="#00A8A1"/>
<path d="M726.066 153.242C729.572 144.65 734.196 136.617 738.352 128.36C756.027 93.3841 773.736 58.4492 791.478 23.5551C792.342 21.8446 793.388 20.2156 794.354 18.5459C794.653 18.7735 794.895 19.0676 795.061 19.4052C795.226 19.7427 795.312 20.1143 795.309 20.4904C796.046 30.2231 799.457 39.5615 805.166 47.4706C808.977 54.9639 812.919 62.2841 816.344 69.9505C816.441 70.4001 816.441 70.8652 816.344 71.3148C804.536 94.9656 792.027 118.26 780.432 142.033C779.759 143.698 778.841 145.253 777.709 146.645C777.146 147.135 776.422 147.396 775.677 147.378C765.688 147.164 755.698 147.256 745.75 147.307C740.037 147.074 734.404 148.722 729.715 152C729.237 152.466 728.661 152.818 728.03 153.033C727.399 153.248 726.728 153.319 726.066 153.242Z" fill="#EE4D74"/>
<path d="M815.552 70.775C815.537 70.5513 815.537 70.3269 815.552 70.1031C815.477 67.9993 816.068 65.9257 817.239 64.1777C821.73 55.2692 826.008 46.1876 830.957 37.5743C833.938 32.8981 835.499 27.4542 835.449 21.9055C835.354 21.3109 835.412 20.702 835.617 20.1359C835.821 19.5697 836.165 19.0648 836.617 18.668C844.797 34.6015 853.079 50.5044 861.158 66.5193C875.073 93.832 888.94 121.158 902.76 148.498C903.573 149.995 904.183 151.756 904.905 153.395C904.234 153.445 903.56 153.353 902.927 153.123C902.295 152.893 901.719 152.531 901.236 152.061C896.293 148.665 890.375 146.985 884.388 147.276C874.592 147.113 864.775 147.602 854.989 147.001C854.511 146.912 854.048 146.75 853.617 146.523C852.218 145.403 851.161 143.91 850.569 142.216C839.889 120.184 828.132 98.7427 817.411 76.6801C816.194 74.9529 815.545 72.8891 815.552 70.775Z" fill="#006EB8"/>
<path d="M264.211 94.4971H348.219C353.432 94.4976 358.459 96.4355 362.328 99.9355C366.196 103.435 368.632 108.249 369.163 113.444C369.697 118.72 368.256 124.007 365.118 128.278C361.98 132.549 357.369 135.499 352.182 136.555C350.258 136.87 348.308 136.989 346.36 136.912H264.161L263.551 136.301C263.302 135.924 263.13 135.502 263.043 135.059C262.447 122.163 262.447 109.233 263.043 96.2685C263.128 95.8297 263.297 95.4114 263.541 95.0366L264.211 94.4971Z" fill="#00A8A1"/>
<path d="M776.458 146.736L777.261 146.105C779.072 144.741 781.346 144.145 783.592 144.445H847.235C849.478 144.187 851.74 144.716 853.637 145.942C853.8 146.095 853.962 146.237 854.145 146.38C855.31 147.044 856.198 148.107 856.645 149.373C862.559 160.979 868.84 172.382 874.449 184.152C875.109 185.557 876.329 186.972 875.242 188.723L780.218 188.876C772.007 188.876 763.756 188.784 755.576 188.743C754.722 187.348 755.474 186.117 756.054 184.956C762.035 172.576 768.319 160.328 774.903 148.212C775.25 147.566 775.796 147.048 776.458 146.736Z" fill="#A8CE38"/>
<path d="M264.191 136.983C264.191 160.817 264.191 184.631 263.967 208.465C263.971 212.001 263.09 215.481 261.407 218.589C259.723 221.697 257.289 224.332 254.328 226.256C251.366 228.179 247.971 229.329 244.453 229.6C240.934 229.871 237.403 229.256 234.183 227.809C230.614 226.512 227.52 224.166 225.304 221.078C223.088 217.99 221.855 214.303 221.765 210.501C221.481 180.833 221.765 151.155 221.765 121.487C224.052 121.335 224.133 123.422 224.895 124.715C226.627 128.056 229.258 130.845 232.491 132.765C235.724 134.685 239.429 135.66 243.186 135.578H258.825C260.6 135.262 262.428 135.665 263.906 136.698L264.191 136.983Z" fill="#006EB8"/>
<path d="M1299.48 0.167969C1328.69 0.900022 1356.48 12.942 1377.01 33.7657C1380.69 37.5965 1382.76 42.6969 1382.8 48.0133C1382.83 53.3298 1380.82 58.4562 1377.19 62.334C1373.76 66.4145 1368.87 68.9823 1363.57 69.485C1358.26 69.9877 1352.98 68.3851 1348.84 65.0219C1335.49 52.3322 1318.36 44.3752 1300.07 42.3688C1300.07 40.3326 1301.94 40.2714 1303.11 39.5791C1306.85 37.7903 1309.94 34.8845 1311.95 31.2627C1313.97 27.641 1314.81 23.4818 1314.36 19.3595C1314.12 15.6059 1312.81 12 1310.59 8.96866C1308.37 5.93731 1305.33 3.60752 1301.82 2.25512C1300.91 1.82751 1299.42 1.93949 1299.48 0.167969Z" fill="#006EB8"/>
<path d="M1299.92 192.704C1304.89 191.686 1309.93 191.054 1314.79 189.71C1326.54 186.452 1337.32 180.387 1346.21 172.036C1349.07 169.425 1352.58 167.643 1356.37 166.88C1360.16 166.118 1364.08 166.404 1367.72 167.708C1371.36 169.012 1374.58 171.285 1377.03 174.283C1379.47 177.28 1381.06 180.889 1381.61 184.722C1382.2 187.992 1381.95 191.358 1380.88 194.505C1379.82 197.651 1377.97 200.475 1375.52 202.712C1357.54 220.171 1334.33 231.231 1309.47 234.192C1305.94 234.893 1302.35 235.14 1298.77 234.925C1298.77 232.767 1300.8 233.062 1302 232.543C1305.44 231.289 1308.45 229.066 1310.67 226.14C1312.88 223.215 1314.21 219.711 1314.49 216.049C1314.99 211.947 1314.21 207.79 1312.25 204.152C1310.29 200.514 1307.26 197.574 1303.56 195.738C1302.19 194.862 1300.23 194.781 1299.92 192.704Z" fill="#A8CE38"/>
<path d="M1448.97 186.962C1448.85 187.13 1448.7 187.272 1448.52 187.379C1447.04 188.41 1445.22 188.84 1443.44 188.58H1428.3C1424.17 188.35 1420.08 189.438 1416.61 191.686C1413.14 193.935 1410.47 197.228 1408.99 201.093C1408.44 202.335 1408.44 204.086 1406.46 204.331V119.827C1408.4 120.102 1408.42 121.863 1409 123.156C1410.54 127.01 1413.24 130.287 1416.73 132.528C1420.21 134.77 1424.31 135.864 1428.45 135.659H1443.69C1445.41 135.659 1447.36 135.313 1448.56 137.155L1448.97 186.962Z" fill="#EE5A78"/>
<path d="M1448.98 44.4054L1448.69 94.293C1447.53 96.1968 1445.56 95.7896 1443.85 95.7896C1438.77 95.8914 1433.69 95.7896 1428.6 95.7896C1424.47 95.5641 1420.36 96.648 1416.87 98.888C1413.38 101.128 1410.68 104.411 1409.15 108.272C1408.58 109.544 1408.55 111.326 1406.59 111.581V27.0771C1408.71 27.4233 1408.63 29.3984 1409.3 30.7831C1410.83 34.454 1413.43 37.5742 1416.77 39.7332C1420.1 41.8922 1424.01 42.9885 1427.98 42.8782C1433.07 42.9698 1438.07 42.8782 1443.13 42.8782C1445.05 42.5858 1447.01 42.9786 1448.67 43.988C1448.77 44.1328 1448.87 44.2721 1448.98 44.4054Z" fill="#EF5B78"/>
<path d="M221.756 109.982C221.664 92.755 221.542 75.5082 221.512 58.3122C221.512 48.4365 221.674 38.5505 221.756 28.6748C223.717 28.6748 223.981 30.4158 224.743 31.6681C226.444 35.2743 229.188 38.285 232.618 40.3093C236.048 42.3336 240.007 43.2781 243.979 43.0202C248.888 42.8064 253.806 42.9489 258.714 43.0202C259.594 42.8607 260.497 42.8793 261.37 43.0752C262.242 43.271 263.067 43.6401 263.795 44.1604L264.181 44.4556V94.5774L263.866 94.7912C262.381 95.8084 260.56 96.2098 258.785 95.9111C253.847 95.9111 248.928 96.1046 244 95.9111C240.02 95.6271 236.047 96.5541 232.602 98.5706C229.157 100.587 226.4 103.599 224.692 107.212C224.022 108.363 223.849 110.165 221.756 109.982Z" fill="#006EB8"/>
<path d="M996.491 78.8381C983.714 63.8515 970.941 48.8376 958.171 33.7966C956.584 31.4537 955.355 28.8871 954.523 26.1812C953.472 21.0796 954.29 15.7693 956.828 11.2231C959.367 6.67692 963.455 3.19917 968.344 1.42701C973.233 -0.345139 978.596 -0.293023 983.45 1.57374C988.304 3.44051 992.324 6.99697 994.774 11.5916C996.431 16.0668 997.056 20.8595 996.603 25.611C996.542 43.3466 996.505 61.089 996.491 78.8381Z" fill="#00A94F"/>
<path d="M519.242 80.508C506.466 65.5214 493.699 50.5314 480.942 35.538C479.396 33.1746 478.16 30.622 477.264 27.9428C476.241 22.8426 477.083 17.5439 479.635 13.0135C482.187 8.48309 486.279 5.02275 491.166 3.2637C496.052 1.50465 501.407 1.56413 506.253 3.43125C511.099 5.29836 515.114 8.8487 517.566 13.4347C519.078 18.1238 519.709 23.0535 519.425 27.9733C519.283 45.4747 519.283 62.9863 519.242 80.508Z" fill="#00A94F"/>
<path d="M1111.57 149.495C1120.54 159.961 1129.52 170.455 1138.5 180.975C1140.9 183.795 1143.13 186.789 1145.66 189.487C1149.66 193.258 1152.44 198.145 1153.64 203.516C1154.44 208.341 1153.56 213.294 1151.16 217.55C1148.76 221.807 1144.97 225.109 1140.43 226.906C1135.89 228.703 1130.87 228.887 1126.21 227.426C1121.55 225.966 1117.54 222.949 1114.83 218.88C1113.98 217.862 1113.23 216.731 1112.44 215.673C1110.46 193.6 1111.95 171.486 1111.57 149.495Z" fill="#006A86"/>
<path d="M634.345 151.298C646.183 165.103 657.981 178.97 669.911 192.715C673.575 196.624 675.853 201.633 676.394 206.968C676.755 211.545 675.63 216.115 673.188 219.999C670.745 223.883 667.116 226.872 662.84 228.521C658.564 230.17 653.871 230.391 649.459 229.151C645.048 227.911 641.154 225.276 638.359 221.639C637.21 220.285 636.194 218.809 635.117 217.384C633.329 195.413 634.772 173.289 634.345 151.298Z" fill="#006A86"/>
<path d="M909.403 162.151C915.957 174.908 922.868 187.502 928.944 200.463C931.005 205.37 931.147 210.874 929.343 215.881C927.538 220.889 923.919 225.032 919.205 227.489C914.491 229.945 909.027 230.534 903.9 229.139C898.772 227.745 894.355 224.468 891.529 219.96C885.889 209.942 881.052 199.455 875.971 189.172C878.115 187.197 880.777 187.93 883.226 187.91C887.548 188.167 891.877 187.555 895.959 186.108C899.539 184.767 902.626 182.364 904.805 179.218C906.984 176.072 908.153 172.334 908.153 168.504C908.184 166.346 907.584 163.994 909.403 162.151Z" fill="#006EB8"/>
<path d="M754.907 189.171C749.744 199.464 744.968 209.961 739.328 219.989C736.527 224.473 732.151 227.744 727.062 229.156C721.974 230.569 716.542 230.021 711.837 227.621C707.131 225.221 703.493 221.143 701.64 216.19C699.786 211.236 699.851 205.767 701.821 200.859C707.918 187.725 714.91 174.989 721.515 162.079C722.146 162.823 722.589 163.708 722.809 164.659C723.028 165.61 723.016 166.601 722.775 167.546C722.732 170.241 723.232 172.916 724.244 175.413C725.257 177.91 726.762 180.176 728.668 182.077C730.575 183.978 732.844 185.474 735.341 186.476C737.838 187.478 740.511 187.965 743.2 187.909C747.092 188.051 751.218 186.717 754.907 189.171Z" fill="#EF4D74"/>
<path d="M836.666 18.6672C837.088 25.9994 835.208 33.2799 831.291 39.4876C825.864 49.5873 820.814 59.8501 815.54 70.0923C809.077 57.4541 802.594 44.8192 796.09 32.1878C794.328 27.8713 793.726 23.1676 794.342 18.5451C795.042 15.7412 796.291 13.1045 798.016 10.7882C799.741 8.47181 801.908 6.52203 804.392 5.05193C806.876 3.58184 809.626 2.62073 812.483 2.22453C815.341 1.82833 818.249 2.0049 821.038 2.74395C824.786 3.8345 828.192 5.87156 830.928 8.65983C833.665 11.4481 835.641 14.894 836.666 18.6672Z" fill="#2B4172"/>
<path d="M909.405 162.15C909.797 166.022 909.64 169.929 908.938 173.757C907.616 178.061 904.986 181.846 901.416 184.583C897.846 187.32 893.514 188.874 889.021 189.028C884.692 189.151 880.353 189.13 876.034 189.181C875.769 189.144 875.524 189.022 875.333 188.835C868.992 176.183 862.658 163.528 856.331 150.87C855.599 149.373 854.928 147.876 854.217 146.369C866.187 145.616 878.036 145.871 889.925 146.217C895.642 146.606 901.006 149.122 904.964 153.272C906.821 156.027 908.313 159.011 909.405 162.15Z" fill="#176543"/>
<path d="M754.896 189.171C749.401 189.277 743.904 189.066 738.434 188.54C733.373 187.669 728.823 184.93 725.68 180.863C722.536 176.795 721.028 171.696 721.453 166.569C721.585 165.073 721.453 163.576 721.545 162.069C722.694 158.942 724.227 155.97 726.107 153.222C728.847 150.671 732.079 148.71 735.604 147.46C739.129 146.21 742.873 145.697 746.604 145.952C754.977 146.115 763.361 145.952 771.744 145.952C773.329 145.952 775.047 145.474 776.49 146.655L758.087 183.5C757.223 185.241 756.441 187.013 755.638 188.764C755.428 188.96 755.173 189.1 754.896 189.171Z" fill="#9D4434"/>
<path d="M221.754 109.941C222.996 106.435 225.037 103.267 227.715 100.688C230.392 98.1099 233.633 96.1921 237.179 95.0871C241.584 94.4217 246.051 94.2645 250.491 94.6187C254.932 94.5271 259.464 94.6187 263.884 94.6187C264.237 108.608 264.237 122.637 263.884 136.708C256.314 136.708 248.733 137.003 241.163 136.708C237.512 136.533 233.974 135.383 230.915 133.379C227.856 131.374 225.388 128.586 223.766 125.305C223.034 124.042 223.105 122.311 221.733 121.426C221.345 117.607 221.352 113.759 221.754 109.941Z" fill="#006A86"/>
<path d="M1406.51 111.642C1407.63 106.222 1410.76 101.431 1415.28 98.2427C1419.79 95.0543 1425.35 93.7077 1430.82 94.4765C1436.8 94.4765 1442.79 94.3441 1448.68 94.2627L1449 94.558C1449.8 96.0218 1450.18 97.6848 1450.08 99.3533V132.147C1450.21 133.8 1449.85 135.456 1449.06 136.911L1448.73 137.197C1442.75 137.197 1436.83 137.003 1430.89 136.983C1425.42 137.722 1419.88 136.364 1415.37 133.181C1410.86 129.997 1407.72 125.224 1406.57 119.817L1406.51 111.642Z" fill="#1D5162"/>
<path d="M263.746 44.1003C256.023 44.1003 248.289 44.4464 240.587 44.1003C237.009 43.8582 233.561 42.6631 230.599 40.6387C227.637 38.6143 225.269 35.8342 223.738 32.5854C223.017 31.2924 222.417 29.9484 221.767 28.6249C220.464 22.9662 221.44 17.0209 224.484 12.0787C227.528 7.13652 232.393 3.59603 238.026 2.22522C241.245 1.63963 244.534 1.54694 247.781 1.95032C253.059 3.47587 257.609 6.85863 260.596 11.4768C263.583 16.095 264.806 21.6382 264.04 27.0875C263.725 32.7584 263.837 38.4192 263.746 44.1003Z" fill="#176542"/>
<path d="M1448.58 44.0286C1440.85 44.0286 1433.05 44.67 1425.37 44.0286C1420.8 43.6726 1416.48 41.8198 1413.07 38.756C1409.65 35.6921 1407.34 31.5879 1406.49 27.0771C1405.9 23.5714 1406.17 19.9743 1407.27 16.5956C1408.38 13.2169 1410.29 10.158 1412.83 7.68231C1415.38 5.20666 1418.49 3.38859 1421.89 2.38465C1425.3 1.38072 1428.89 1.22106 1432.37 1.91945C1437.85 3.55256 1442.57 7.07215 1445.71 11.8562C1447.58 14.7525 1448.62 18.1161 1448.69 21.5691C1448.58 29.0726 1448.58 36.5455 1448.58 44.0286Z" fill="#9D4E35"/>
<path d="M1406.51 204.3C1407.61 198.895 1410.73 194.113 1415.22 190.925C1419.71 187.737 1425.25 186.382 1430.71 187.135C1436.69 187.135 1442.59 187.267 1448.53 187.328C1448.53 194.211 1448.53 201.104 1448.66 207.986C1448.92 212.364 1447.74 216.706 1445.31 220.353C1442.88 224 1439.33 226.754 1435.2 228.195L1432.37 229.438C1428.89 230.144 1425.3 229.99 1421.89 228.99C1418.49 227.99 1415.38 226.174 1412.83 223.698C1410.28 221.222 1408.38 218.162 1407.27 214.782C1406.17 211.402 1405.91 207.805 1406.51 204.3Z" fill="#284473"/>
<path d="M155.532 136.158C160.47 124.551 167.055 119.491 177.39 119.868C182.044 120.011 186.526 121.666 190.159 124.584C193.792 127.502 196.38 131.525 197.531 136.046V146.003C196.349 150.913 193.457 155.241 189.376 158.206C185.295 161.172 180.292 162.581 175.266 162.181C171.745 162.131 168.303 161.129 165.304 159.282C162.304 157.434 159.859 154.809 158.225 151.684C157.107 149.78 156.314 147.683 155.369 145.688C155.4 142.48 155.471 139.324 155.532 136.158Z" fill="#176543"/>
<path d="M1299.48 0.167969C1302.7 0.962018 1305.69 2.48759 1308.23 4.62672C1310.77 6.76586 1312.78 9.46121 1314.11 12.5043C1315.44 15.5474 1316.06 18.8568 1315.91 22.1763C1315.76 25.4958 1314.85 28.7367 1313.25 31.6481C1310.24 36.6439 1305.59 40.4445 1300.11 42.4095H1289.88C1286.75 41.459 1283.84 39.8734 1281.34 37.7508C1278.84 35.6282 1276.8 33.014 1275.35 30.07C1274.07 27.1951 1273.43 24.0756 1273.48 20.9286C1273.53 17.7815 1274.26 14.6824 1275.62 11.8465C1276.98 9.01055 1278.94 6.50591 1281.37 4.50672C1283.8 2.50753 1286.63 1.06174 1289.67 0.269802L1299.48 0.167969Z" fill="#284473"/>
<path d="M0.19673 138.418C0.685598 133.991 2.58233 129.838 5.60692 126.573C8.63152 123.308 12.6237 121.103 16.9942 120.285C20.95 119.32 25.1046 119.576 28.9129 121.018C32.7211 122.461 36.0052 125.023 38.334 128.369C39.793 130.594 41.0773 132.929 42.1752 135.353C42.1752 137.39 42.2666 139.375 42.3276 141.35C42.2932 146.297 40.5263 151.075 37.3352 154.85C34.1441 158.625 29.7315 161.157 24.8671 162.006C20.0028 162.854 14.9955 161.965 10.7189 159.492C6.44229 157.02 3.16789 153.121 1.46696 148.477C1.33485 148.09 0.918223 147.805 0.613368 147.459C-0.0118177 144.488 -0.152521 141.434 0.19673 138.418Z" fill="#284473"/>
<path d="M1219.46 118.452C1219.46 122.941 1217.96 127.3 1215.2 130.833C1212.44 134.366 1208.57 136.868 1204.22 137.939C1199.74 139.229 1194.96 138.969 1190.65 137.202C1186.33 135.434 1182.74 132.261 1180.45 128.196C1179.65 126.791 1178.79 125.406 1177.95 124.011C1177.31 119.759 1177.31 115.435 1177.95 111.183C1179.43 106.935 1182.15 103.232 1185.76 100.559C1189.37 97.8848 1193.7 96.3644 1198.18 96.1963C1201.08 96.1071 1203.97 96.6292 1206.65 97.7288C1209.34 98.8285 1211.76 100.481 1213.77 102.579C1215.77 104.678 1217.32 107.175 1218.3 109.91C1219.28 112.644 1219.68 115.554 1219.46 118.452Z" fill="#1E5162"/>
<path d="M1299.92 192.693C1303.2 194.103 1306.29 195.923 1309.12 198.11C1312 200.666 1314.11 203.983 1315.19 207.681C1316.28 211.379 1316.31 215.309 1315.27 219.022C1314.48 222.801 1312.6 226.265 1309.87 228.981C1307.13 231.697 1303.65 233.545 1299.87 234.294C1299.46 234.445 1299.07 234.639 1298.7 234.874H1291.22C1286.88 234.071 1282.88 231.967 1279.75 228.842C1276.62 225.716 1274.5 221.714 1273.69 217.362C1272.91 212.847 1273.64 208.202 1275.75 204.138C1277.86 200.075 1281.25 196.817 1285.38 194.862L1289.72 192.693H1299.92Z" fill="#00A94F"/>
<path d="M1449 136.841C1448.47 122.743 1448.47 108.632 1449 94.5074C1477.13 94.5074 1505.24 94.3853 1533.34 94.5074C1538.95 94.5074 1544.33 96.7407 1548.3 100.716C1552.27 104.691 1554.5 110.083 1554.5 115.705C1554.5 121.326 1552.27 126.718 1548.3 130.693C1544.33 134.668 1538.95 136.902 1533.34 136.902C1505.23 137.024 1477.12 136.922 1449 136.841Z" fill="#00A8A1"/>
</svg>
