<svg width="300" height="352" viewBox="0 0 300 352" fill="none" xmlns="http://www.w3.org/2000/svg">
<path d="M299.755 221.625C297.79 254.225 283.401 284.823 259.56 307.097C242.712 323.506 222.39 335.901 200.103 343.36C177.817 350.818 154.139 353.15 130.83 350.181C107.52 347.212 85.1783 339.017 65.4641 326.208C45.7498 313.398 29.1702 296.302 16.9567 276.191C7.33983 260.416 1.8689 242.455 1.05469 223.989C4.23203 223.665 4.38624 226.555 5.43507 228.332C8.40314 234.016 13.0895 238.615 18.8238 241.47C24.5581 244.325 31.0467 245.289 37.3613 244.227C43.6761 243.164 49.4935 240.127 53.9816 235.551C58.4699 230.976 61.3988 225.094 62.3496 218.75C62.6735 217.205 62.7198 215.567 64.3702 214.671C66.5212 232.146 74.2895 248.446 86.5019 261.108C98.7144 273.77 114.708 282.107 132.066 284.859C149.258 288.444 167.116 286.986 183.501 280.656C199.885 274.327 214.099 263.398 224.44 249.178C229.912 240.579 233.76 231.046 235.792 221.052C239.062 221.3 239.216 224.314 240.328 226.385C242.616 231.966 246.584 236.695 251.678 239.915C256.772 243.135 262.74 244.688 268.754 244.357C274.664 244.309 280.432 242.527 285.345 239.232C290.257 235.935 294.097 231.27 296.393 225.812C297.149 224.237 296.856 221.579 299.755 221.625Z" fill="#006EB8"/>
<path d="M0.299931 210.158C0.299931 178.108 0.222791 146.042 0.068551 113.961C0.068551 86.6551 -0.0856887 59.3492 0.068551 32.0587C0.12914 24.3456 2.9416 16.9086 7.99762 11.0918C13.0536 5.27503 20.0197 1.46225 27.6368 0.342428C35.2539 -0.777398 43.0196 0.869619 49.5304 4.9859C56.0411 9.10218 60.8675 15.4162 63.1372 22.7867C63.9905 25.6161 64.3913 28.5628 64.3249 31.5177V202.818C64.2954 203.692 64.213 204.565 64.0781 205.43C61.4252 205.43 61.0858 203.018 60.1759 201.318C57.5628 195.619 53.2594 190.865 47.8521 187.703C42.4448 184.543 36.1963 183.129 29.9579 183.654C23.7194 184.179 17.7944 186.618 12.9895 190.64C8.18472 194.661 4.73391 200.068 3.10709 206.125C2.5981 207.716 2.99912 209.988 0.299931 210.158Z" fill="#EE5A78"/>
<path d="M236.071 206.666C235.979 171.38 235.886 136.105 235.793 100.841V33.248C235.649 28.9416 236.372 24.6502 237.915 20.6286C239.459 16.6069 241.792 12.9369 244.779 9.83618C247.765 6.7355 251.342 4.26732 255.299 2.57818C259.255 0.889044 263.511 0.0133752 267.811 0.00302257C272.111 -0.00733011 276.37 0.847865 280.334 2.51793C284.299 4.18801 287.889 6.63897 290.889 9.72525C293.89 12.8115 296.243 16.4702 297.805 20.4844C299.368 24.4986 300.11 28.7865 299.987 33.0935V203.08C299.987 204.193 299.832 205.351 299.741 206.464C296.193 206.016 296.177 202.693 295.113 200.438C292.873 195.526 289.299 191.346 284.797 188.376C280.296 185.405 275.052 183.763 269.664 183.64C264.065 183.169 258.447 184.331 253.49 186.981C248.533 189.632 244.444 193.661 241.716 198.583C239.989 201.396 240.019 205.444 236.071 206.666Z" fill="#A8CE38"/>
<path d="M236.074 206.666C243.569 189.049 253.564 181.369 269.25 181.941C276.314 182.158 283.117 184.67 288.632 189.099C294.146 193.528 298.074 199.634 299.821 206.496V221.61C298.027 229.062 293.638 235.631 287.443 240.132C281.249 244.634 273.655 246.772 266.027 246.165C260.682 246.089 255.458 244.568 250.906 241.765C246.352 238.96 242.641 234.976 240.161 230.232C238.464 227.342 237.261 224.159 235.826 221.131C235.873 216.262 235.981 211.472 236.074 206.666Z" fill="#176543"/>
<path d="M0.29843 210.096C1.04045 203.377 3.91938 197.073 8.51022 192.117C13.1011 187.162 19.1605 183.815 25.7942 182.573C31.7985 181.108 38.1045 181.497 43.8849 183.686C49.6651 185.876 54.6498 189.765 58.1846 194.843C60.3991 198.221 62.3485 201.765 64.0149 205.444C64.0149 208.536 64.1536 211.549 64.2462 214.546C64.194 222.055 61.5121 229.307 56.6686 235.037C51.825 240.767 45.1274 244.61 37.744 245.899C30.3608 247.186 22.7605 245.837 16.2694 242.083C9.77817 238.331 4.80817 232.413 2.22643 225.364C2.02591 224.777 1.39354 224.344 0.930818 223.819C-0.0181118 219.309 -0.231676 214.674 0.29843 210.096Z" fill="#284473"/>
</svg>
