<svg width="300" height="300" viewBox="0 0 300 300" fill="none" xmlns="http://www.w3.org/2000/svg">
<g clip-path="url(#clip0_1240_308)">
<rect width="300" height="300" fill="white"/>
<path d="M0 150V300H150H300V150V-3.24555e-05H150H0V150ZM123.729 49.3714C123.986 49.6714 129.771 82.9714 136.629 123.386C144.643 170.614 149.314 196.971 149.657 197.186C149.957 197.4 150.471 197.314 150.771 196.971C151.114 196.671 156.343 166.8 163.757 123.171C170.614 82.8857 176.443 49.6714 176.657 49.3714C177 48.9857 180.9 48.8571 193.543 48.8571H210V49.9714C210 51.3857 170.657 248.871 170.143 250.157L169.714 251.143H149.829C134.443 251.143 129.857 251.014 129.557 250.586C128.957 249.857 89.0572 49.8 89.3572 49.2857C89.7857 48.6 123.214 48.7285 123.729 49.3714Z" fill="#0A2A3C"/>
</g>
<defs>
<clipPath id="clip0_1240_308">
<rect width="300" height="300" fill="white"/>
</clipPath>
</defs>
</svg>
