<svg width="1364" height="341" viewBox="0 0 1364 341" fill="none" xmlns="http://www.w3.org/2000/svg">
<path d="M153.978 15.0039C107.926 19.7779 68.285 44.3299 43.1192 79.7939H104.704L119.708 125.829L155.581 19.7779L153.978 15.0039ZM185.504 15.0039L183.969 19.7779L219.774 125.829L234.778 80.3054H297.522C271.777 44.3299 231.709 19.7779 185.504 15.0039ZM169.511 62.062L133.621 168.624L169.511 281.325L205.964 168.624L169.511 62.062ZM27.5866 109.802C18.9934 125.829 14.707 147.141 14.707 168.624C14.707 195.393 19.5219 216.876 28.6608 232.903H83.289L105.232 168.624L84.8917 109.802H27.5866ZM254.727 109.802L234.267 168.624L256.261 232.903H311.503C320.54 216.876 325.314 195.393 325.314 168.624C325.314 147.141 321.051 125.829 312.526 109.802H254.727ZM119.162 211.42L103.101 259.16H44.1933C69.8877 296.67 109.529 318.835 155.052 323.95L119.162 211.42ZM220.456 211.42L184.481 323.95C230.516 318.835 270.242 296.67 295.988 259.16H236.483L220.456 211.42Z" fill="#003572"/>
<path d="M856.422 10.5713C832.893 10.5713 812.092 24.0407 803.396 40.5792C794.36 57.7997 794.36 74.3382 794.36 88.8307C794.36 141.856 819.594 173.91 838.86 190.108C858.127 211.42 868.868 216.876 868.868 248.93C868.868 264.275 866.14 271.095 864.435 276.21C862.389 276.21 862.389 276.21 854.376 276.21C845.169 276.21 844.146 276.21 842.1 276.21C839.883 271.095 837.155 264.275 837.155 248.93L837.667 227.618L789.586 222.162L789.074 248.93C788.392 271.095 792.143 286.44 803.396 301.785C815.331 318.835 835.109 323.95 854.376 323.95C874.665 323.95 893.932 318.835 904.162 301.785C914.392 286.44 916.949 271.095 916.949 248.93C916.949 200.849 890.692 173.91 872.619 157.883C854.376 141.856 842.611 131.115 842.611 88.8307C842.611 76.5547 844.146 66.3248 846.362 62.5738C847.897 59.3343 845.851 58.8228 856.422 58.8228C867.163 58.8228 865.117 59.3342 866.14 61.5507C867.675 64.2787 868.868 71.7807 868.868 80.3057V94.7982V120.373H916.949V94.7982V80.3057C916.949 70.0757 916.949 55.0718 908.936 39.0448C900.411 23.5293 880.121 10.5713 856.422 10.5713ZM402.551 13.8107L449.609 323.95H504.68L551.738 13.8107H503.657L477.4 184.652L451.143 13.8107H402.551ZM576.972 13.8107L548.499 323.95H597.262L600.501 286.44H638.523L641.762 323.95H690.525L662.052 13.8107H576.972ZM716.782 13.8107V323.95H764.863V13.8107H716.782ZM958.722 13.8107L930.419 323.95H979.182L982.421 286.44H1020.44L1023.51 323.95H1072.27L1044.48 13.8107H958.722ZM1090.52 13.8107V323.95H1201.85V286.44H1138.77V13.8107H1090.52ZM1241.07 13.8107L1212.6 323.95H1261.36L1264.6 286.44H1302.62L1305.86 323.95H1354.62L1326.15 13.8107H1241.07ZM619.768 77.5778L634.26 238.189H604.764L619.768 77.5778ZM1001.69 77.5778L1016.01 238.189H986.684L1001.69 77.5778ZM1283.87 77.5778L1298.36 238.189H1268.86L1283.87 77.5778Z" fill="#003572"/>
</svg>
