<svg width="1586" height="371" viewBox="0 0 1586 371" fill="none" xmlns="http://www.w3.org/2000/svg">
<g clip-path="url(#clip0_1139_292)">
<mask id="mask0_1139_292" style="mask-type:luminance" maskUnits="userSpaceOnUse" x="0" y="0" width="1586" height="371">
<path d="M1586 0H0V371H1586V0Z" fill="white"/>
</mask>
<g mask="url(#mask0_1139_292)">
<path d="M164.854 5.24707C110.343 10.8996 63.4251 39.9653 33.632 81.9508H106.526L124.291 136.451L166.752 10.8996L164.854 5.24707ZM202.165 5.24707L200.352 10.8996L242.728 136.451L260.493 82.5555H334.762C304.287 39.9653 256.857 10.8996 202.165 5.24707ZM183.237 60.9586L140.755 187.11L183.237 320.542L226.381 187.11L183.237 60.9586ZM15.2485 117.477C5.07576 136.451 0 161.685 0 187.11C0 218.807 5.70483 244.233 16.5174 263.217H81.1794L107.155 187.11L83.0775 117.477H15.2485ZM284.101 117.477L259.885 187.11L285.925 263.217H351.312C362.007 244.233 367.659 218.807 367.659 187.11C367.659 161.685 362.615 136.451 352.517 117.477H284.101ZM123.641 237.78L104.628 294.295H34.9008C65.3231 338.705 112.242 364.941 166.123 370.999L123.641 237.78ZM243.538 237.78L200.96 370.999C255.449 364.941 302.474 338.705 332.939 294.295H262.508L243.538 237.78Z" fill="white"/>
<path d="M996.311 0C968.458 0 943.837 15.9466 933.547 35.5257C922.851 55.9121 922.851 75.4922 922.851 92.6492C922.851 155.424 952.719 193.371 975.517 212.547C998.326 237.781 1011.04 244.233 1011.04 282.19C1011.04 300.353 1007.81 308.426 1005.79 314.484C1003.37 314.484 1003.37 314.484 993.89 314.484C982.992 314.484 981.777 314.484 979.356 314.484C976.733 308.426 973.502 300.353 973.502 282.19L974.11 256.957L917.2 250.493L916.592 282.19C915.782 308.427 920.228 326.589 933.547 344.763C947.665 364.941 971.081 370.999 993.89 370.999C1017.9 370.999 1040.7 364.941 1052.82 344.763C1064.93 326.589 1067.95 308.427 1067.95 282.19C1067.95 225.26 1036.87 193.371 1015.48 174.398C993.89 155.424 979.964 142.711 979.964 92.6492C979.964 78.1158 981.777 66.0045 984.4 61.5646C986.213 57.7294 983.792 57.1236 996.311 57.1236C1009.02 57.1236 1006.6 57.7294 1007.81 60.3531C1009.63 63.5825 1011.04 72.4644 1011.04 82.5568V99.7139V129.988H1067.95V99.7139V82.5568C1067.95 70.4455 1067.95 52.6827 1058.47 33.7094C1048.38 15.3408 1024.35 0 996.311 0ZM459.074 3.8352L514.779 370.999H579.964L635.668 3.8352H578.759L547.675 206.094L516.592 3.8352H459.074ZM665.536 3.8352L631.83 370.999H689.55L693.389 326.589H738.388L742.226 370.999H799.947L766.24 3.8352H665.536ZM831.019 3.8352V370.999H887.929V3.8352H831.019ZM1117.39 3.8352L1083.9 370.999H1141.62L1145.45 326.589H1190.45L1194.08 370.999H1251.8L1218.91 3.8352H1117.39ZM1273.4 3.8352V370.999H1405.18V326.589H1330.51V3.8352H1273.4ZM1451.6 3.8352L1417.9 370.999H1475.61L1479.45 326.589H1524.45L1528.29 370.999H1586.01L1552.3 3.8352H1451.6ZM716.187 79.3274L733.344 269.467H698.432L716.187 79.3274ZM1168.26 79.3274L1185.21 269.467H1150.49L1168.26 79.3274ZM1502.26 79.3274L1519.41 269.467H1484.5L1502.26 79.3274Z" fill="white"/>
</g>
</g>
<defs>
<clipPath id="clip0_1139_292">
<rect width="1586" height="371" fill="white"/>
</clipPath>
</defs>
</svg>
