<?xml version="1.0" standalone="no"?>
<!DOCTYPE svg PUBLIC "-//W3C//DTD SVG 20010904//EN"
 "http://www.w3.org/TR/2001/REC-SVG-20010904/DTD/svg10.dtd">
<svg version="1.0" xmlns="http://www.w3.org/2000/svg"
 width="700.000000pt" height="700.000000pt" viewBox="0 0 700.000000 700.000000"
 preserveAspectRatio="xMidYMid meet">
<metadata>
Created by potrace 1.14, written by Peter Selinger 2001-2017
</metadata>
<g transform="translate(0.000000,700.000000) scale(0.100000,-0.100000)"
fill="#000000" stroke="none">
<path d="M0 3500 l0 -3500 3500 0 3500 0 0 3500 0 3500 -3500 0 -3500 0 0
-3500z m2887 2348 c6 -7 141 -784 301 -1727 187 -1102 296 -1717 304 -1722 7
-5 19 -3 26 5 8 7 130 704 303 1722 160 940 296 1715 301 1722 8 9 99 12 394
12 l384 0 0 -26 c0 -33 -918 -4641 -930 -4671 l-10 -23 -464 0 c-359 0 -466 3
-473 13 -14 17 -945 4685 -938 4697 10 16 790 13 802 -2z"/>
</g>
</svg>
